<?xml version="1.0" encoding="utf-8"?>
<!-- Generator: Adobe Illustrator 21.1.0, SVG Export Plug-In . SVG Version: 6.00 Build 0)  -->
<!DOCTYPE svg PUBLIC "-//W3C//DTD SVG 1.1//EN" "http://www.w3.org/Graphics/SVG/1.1/DTD/svg11.dtd">
<svg version="1.1" id="Layer_1" xmlns="http://www.w3.org/2000/svg" xmlns:xlink="http://www.w3.org/1999/xlink" x="0px" y="0px"
	 width="90px" height="90px" viewBox="0 0 90 90" style="enable-background:new 0 0 90 90;" xml:space="preserve">
<style type="text/css">
	.st0{fill:#999999;stroke:#999999;stroke-width:1.5;stroke-miterlimit:10;}
	.st1{fill:#999999;}
</style>
<g>
	<path class="st0" d="M45,89C20.9,89,1,69.4,1,45C1,20.9,20.6,1,45,1c24.1,0,44,19.6,44,44C89,69.1,69.1,89,45,89z M45,3.5
		C22.1,3.5,3.5,22.1,3.5,45S22.1,86.5,45,86.5S86.5,67.9,86.5,45C86.5,22.1,67.9,3.5,45,3.5z"/>
</g>
<path class="st1" d="M35.3,30.3v33.8c0,0.5,0,0.8-0.3,1.3s-0.5,0.5-1,0.5c-0.3,0-0.8,0-1-0.3L19.6,59c-0.5-0.3-0.8-0.5-1-1
	c-0.3-0.5-0.5-1-0.5-1.3V23.9c0-0.5,0-0.8,0.3-1c0.3-0.3,0.5-0.5,0.8-0.5c0.3,0,0.8,0.3,1.3,0.5L35.3,30.3L35.3,30.3z M37.1,33.3
	l15.3,24.9l-15.3-7.6C37.1,50.6,37.1,33.3,37.1,33.3z M69.7,33.8v30.3c0,0.5-0.3,0.8-0.5,1.3c-0.3,0.5-0.5,0.5-1,0.5s-1,0-1.3-0.3
	l-12.7-6.4L69.7,33.8z M69.7,30.3c0,0-2.5,4.1-7.4,11.9c-4.8,7.9-7.9,12.7-8.6,14L42.5,37.9l9.4-15.3c0.3-0.5,0.8-0.8,1.5-0.8
	c0.3,0,0.5,0,0.8,0.3L69.7,30.3L69.7,30.3z"/>
</svg>
