<?xml version="1.0" encoding="utf-8"?>
<!-- Generator: Adobe Illustrator 18.0.0, SVG Export Plug-In . SVG Version: 6.00 Build 0)  -->
<!DOCTYPE svg PUBLIC "-//W3C//DTD SVG 1.1//EN" "http://www.w3.org/Graphics/SVG/1.1/DTD/svg11.dtd">
<svg version="1.1" id="Layer_1" xmlns="http://www.w3.org/2000/svg" xmlns:xlink="http://www.w3.org/1999/xlink" x="0px" y="0px"
	 viewBox="0 62.1 612 702" enable-background="new 0 62.1 612 702" xml:space="preserve">
<g>
	<rect x="121.7" y="197.9" fill="none" stroke="#999999" stroke-width="1.3" width="444.1" height="444.1"/>
	<line fill="none" stroke="#999999" stroke-width="1.3" x1="121.7" y1="568.1" x2="565.6" y2="568.1"/>
	<line fill="none" stroke="#999999" stroke-width="1.3" x1="121.7" y1="493.8" x2="565.6" y2="493.8"/>
	<line fill="none" stroke="#999999" stroke-width="1.3" x1="121.7" y1="420" x2="565.6" y2="420"/>
	<line fill="none" stroke="#999999" stroke-width="1.3" x1="121.7" y1="346.1" x2="565.6" y2="346.1"/>
	<line fill="none" stroke="#999999" stroke-width="1.3" x1="121.7" y1="271.8" x2="565.6" y2="271.8"/>
	<line fill="none" stroke="#999999" stroke-width="1.3" x1="491.7" y1="197.9" x2="491.7" y2="642"/>
	<line fill="none" stroke="#999999" stroke-width="1.3" x1="417.8" y1="197.9" x2="417.8" y2="642"/>
	<line fill="none" stroke="#999999" stroke-width="1.3" x1="343.7" y1="197.9" x2="343.7" y2="642"/>
	<line fill="none" stroke="#999999" stroke-width="1.3" x1="269.7" y1="197.9" x2="269.7" y2="642"/>
	<line fill="none" stroke="#999999" stroke-width="1.3" x1="195.6" y1="197.9" x2="195.6" y2="642"/>
</g>
<g enable-background="new    ">
	<path d="M130.5,91.1l-4-6.7l-3.9,6.7h-5.4V89c1.1-0.2,2.1-0.4,3-0.6l4.3-6.5l-4.1-6.3c-0.9,0-2.1-0.4-3-0.6v-2.1h5.4l3.7,6.5
		l3.9-6.5h5.2V75c-1.1,0.2-2.1,0.4-3,0.6l-3.9,6.3l4.3,6.5c0.9,0,2.1,0.4,3,0.6v2.1H130.5z"/>
</g>
<g enable-background="new    ">
	<path d="M20.9,187.8l-6.3,17.4c-1.9,5.4-3.7,7.3-7.7,7.3c-0.7,0-1.7,0-2.4-0.2l0.2-3c0.7,0.2,1.5,0.4,2.4,0.4c1.9,0,3-0.9,4.3-4.5
		l0.7-2.1h-0.7L6,187.6c-0.7,0-1.7-0.2-2.2-0.4v-1.8H12v1.9c-0.7,0.2-1.5,0.4-2.2,0.4l2.6,7.7c0.6,1.7,0.9,3,1.3,4.5l0,0
		c0.4-1.3,0.9-3.2,1.7-5.2l2.4-6.9c-0.9,0-1.7-0.2-2.2-0.4v-2h8v1.9C22.6,187.6,21.8,187.8,20.9,187.8z"/>
</g>
<g enable-background="new    ">
	<path d="M128.2,152.5c-4.9,0-8.8-2.8-8.8-11c0-7.1,4.3-11.2,9.3-11.2c4.7,0,8.8,2.6,8.8,11C137.6,148.6,133.3,152.5,128.2,152.5z
		 M128.4,132.9c-3,0-5.6,2.6-5.6,8.2c0,6,2.2,8.6,5.8,8.6c3,0,5.6-2.4,5.6-8.2C134.2,135.5,131.8,132.9,128.4,132.9z"/>
</g>
<g enable-background="new    ">
	<path d="M193.2,152.1v-3h6.5V134l-6.2,4.1l-1.1-2.8l7.8-4.9h2.8v18.7h5.6v3H193.2z"/>
</g>
<g enable-background="new    ">
	<path d="M263.9,152.1v-2.6l5-4.7c4.5-3.9,5.6-5.4,5.6-7.8c0-2.4-1.3-3.9-4.5-3.9c-2.1,0-4.1,0.9-5.2,1.9l-0.7-2.8
		c1.9-1.1,3.9-1.9,6.5-1.9c4.9,0,7.3,2.8,7.3,6.3c0,3-1.5,5.4-5.6,8.8l-4.3,3.7h-0.2c1.7-0.2,5.6-0.2,11-0.2v3.2H263.9z"/>
</g>
<g enable-background="new    ">
	<path d="M340.5,155.5c-1.5,0-3.2-0.2-4.5-0.6l0.6-3c1.3,0.4,2.8,0.7,4.3,0.7c3.7,0,6.3-2.2,6.3-4.9c0-2.6-2.1-4.5-6-4.5
		c-1.3,0-2.2,0-3.2,0.2v-2.6h0.7c5,0,7.7-1.5,7.7-4.5c0-2.2-1.7-3.5-4.3-3.5c-2.1,0-3.5,0.6-5,1.3l-0.6-2.8c1.9-0.7,3.9-1.3,6.2-1.3
		c4.9,0,7.3,2.4,7.3,5.8c0,2.8-1.7,4.9-4.3,5.6l0,0c3,0.4,5.2,2.8,5.2,5.8C350.7,152.1,346.5,155.5,340.5,155.5z"/>
</g>
<g enable-background="new    ">
	<path d="M420.2,149.1v6H417v-6h-11l-0.2-2.6l9.9-15.9h4.5v15.5h4.1v3H420.2z M417,133.5L417,133.5l-8,12.7c2.1,0,6.7,0,8,0V133.5z"
		/>
</g>
<g enable-background="new    ">
	<path d="M483.7,155.5c-1.1,0-2.6-0.2-3.9-0.4l0.2-2.8c1.1,0.4,2.8,0.4,4.1,0.4c4.3,0,6.7-2.4,6.7-5.4c0-3-2.4-4.7-6.5-4.7
		c-1.5,0-2.8,0.2-3.7,0.2v-12.3h12.7v3.2h-9.5v6.3c0.6,0,1.3,0,1.7,0c6,0,9,3,9,6.9C494.1,151.8,490,155.5,483.7,155.5z"/>
</g>
<g enable-background="new    ">
	<path d="M558.5,152.5c-5,0-8-3.7-8-10.3c0-10.3,5-14.6,11.9-14.6c0.7,0,1.5,0,2.1,0.2v2.8c-0.7-0.2-1.5-0.2-2.4-0.2
		c-4.7,0-7.3,2.8-8.2,7.7c-0.2,0.4-0.2,1.1-0.4,1.9l0,0c1.1-2.1,3.4-3.2,5.6-3.2c4.9,0,7.5,3.2,7.5,7.1
		C566.7,149,563.4,152.5,558.5,152.5z M558.7,139.6c-3,0-4.7,2.6-4.7,4.7c0,3,1.7,5.6,4.9,5.6c2.8,0,4.7-2.2,4.7-5.2
		C563.4,141.5,561.7,139.6,558.7,139.6z"/>
</g>
<circle fill="#808080" cx="195.6" cy="346.1" r="11.6"/>
<g enable-background="new    ">
	<path d="M72.4,214.1c-4.9,0-8.8-2.8-8.8-11c0-7.1,4.3-11.2,9.3-11.2c4.7,0,8.8,2.6,8.8,11C81.7,210.2,77.4,214.1,72.4,214.1z
		 M72.6,194.7c-3,0-5.6,2.6-5.6,8.2c0,6,2.2,8.6,5.8,8.6c3,0,5.6-2.4,5.6-8.2C78.4,197.3,76.1,194.7,72.6,194.7z"/>
</g>
<g enable-background="new    ">
	<path d="M65.7,285.6v-3h6.5v-15.1l-6.2,4.1l-1.1-2.8l7.8-4.9h2.8v18.7h5.6v3H65.7z"/>
</g>
<g enable-background="new    ">
	<path d="M64.9,357.3v-2.6l5-4.7c4.5-3.9,5.6-5.4,5.6-7.8s-1.3-3.9-4.5-3.9c-2.1,0-4.1,0.9-5.2,1.9l-0.7-2.8
		c1.9-1.1,3.9-1.9,6.5-1.9c4.9,0,7.3,2.8,7.3,6.3c0,3-1.5,5.4-5.6,8.8l-4.3,3.7h-0.2c1.7-0.2,5.6-0.2,11-0.2v3.2H64.9z"/>
</g>
<g enable-background="new    ">
	<path d="M69.8,432.2c-1.5,0-3.2-0.2-4.5-0.6l0.6-3c1.3,0.4,2.8,0.7,4.3,0.7c3.7,0,6.3-2.2,6.3-4.9c0-2.6-2.1-4.5-6-4.5
		c-1.3,0-2.2,0-3.2,0.2v-2.6H68c5,0,7.7-1.5,7.7-4.5c0-2.2-1.7-3.5-4.3-3.5c-2.1,0-3.5,0.6-5,1.3l-0.6-2.8c1.9-0.7,3.9-1.3,6.2-1.3
		c4.9,0,7.3,2.4,7.3,5.8c0,2.8-1.7,4.9-4.3,5.6l0,0c3,0.4,5.2,2.8,5.2,5.8C79.9,428.8,75.8,432.2,69.8,432.2z"/>
</g>
<g enable-background="new    ">
	<path d="M77.6,497.5v6h-3.2v-6h-11l-0.2-2.6l9.9-15.9h4.5v15.5h4.1v3H77.6L77.6,497.5z M74.5,482L74.5,482l-8,12.7c2.1,0,6.7,0,8,0
		V482z"/>
</g>
<g enable-background="new    ">
	<path d="M69.6,575.5c-1.1,0-2.6-0.2-3.9-0.4l0.2-2.8c1.1,0.4,2.8,0.4,4.1,0.4c4.3,0,6.7-2.4,6.7-5.4s-2.4-4.7-6.5-4.7
		c-1.5,0-2.8,0.2-3.7,0.2v-12.3H79v3.2h-9.5v6.3c0.6,0,1.3,0,1.7,0c6,0,9,3,9,6.9C80.1,571.8,75.8,575.5,69.6,575.5z"/>
</g>
<g enable-background="new    ">
	<path d="M72.8,644.2c-5,0-8-3.7-8-10.3c0-10.3,5-14.6,11.9-14.6c0.7,0,1.5,0,2.1,0.2v2.8c-0.7-0.2-1.5-0.2-2.4-0.2
		c-4.7,0-7.3,2.8-8.2,7.7c-0.2,0.4-0.2,1.1-0.4,1.9l0,0c1.1-2.1,3.4-3.2,5.6-3.2c4.9,0,7.5,3.2,7.5,7.1
		C80.8,640.9,77.6,644.2,72.8,644.2z M72.8,631.3c-3,0-4.7,2.6-4.7,4.7c0,3,1.7,5.6,4.9,5.6c2.8,0,4.7-2.2,4.7-5.2
		S75.9,631.3,72.8,631.3z"/>
</g>
<line fill="none" stroke="#000000" stroke-width="1.3" x1="123.6" y1="197.9" x2="109.4" y2="197.9"/>
<line fill="none" stroke="#000000" stroke-width="1.3" x1="123.6" y1="272.2" x2="109.4" y2="272.2"/>
<line fill="none" stroke="#000000" stroke-width="1.3" x1="123.6" y1="345.9" x2="109.4" y2="345.9"/>
<line fill="none" stroke="#000000" stroke-width="1.3" x1="123.6" y1="419.6" x2="109.4" y2="419.6"/>
<line fill="none" stroke="#000000" stroke-width="1.3" x1="123.6" y1="493.9" x2="109.4" y2="493.9"/>
<line fill="none" stroke="#000000" stroke-width="1.3" x1="123.6" y1="568.8" x2="109.4" y2="568.8"/>
<line fill="none" stroke="#000000" stroke-width="1.3" x1="123.6" y1="641.4" x2="109.4" y2="641.4"/>
<line fill="none" stroke="#000000" stroke-width="1.3" x1="565.1" y1="197.7" x2="565.1" y2="183.5"/>
<line fill="none" stroke="#000000" stroke-width="1.3" x1="490.8" y1="197.7" x2="490.8" y2="183.5"/>
<line fill="none" stroke="#000000" stroke-width="1.3" x1="417" y1="197.7" x2="417" y2="183.5"/>
<line fill="none" stroke="#000000" stroke-width="1.3" x1="343.1" y1="197.7" x2="343.1" y2="183.5"/>
<line fill="none" stroke="#000000" stroke-width="1.3" x1="269" y1="197.7" x2="269" y2="183.5"/>
<line fill="none" stroke="#000000" stroke-width="1.3" x1="193.9" y1="197.7" x2="193.9" y2="183.5"/>
<line fill="none" stroke="#000000" stroke-width="1.3" x1="122.2" y1="197.7" x2="122.2" y2="183.5"/>
<polyline fill="#FFFFFF" stroke="#000000" stroke-width="1.3" points="21.8,333.6 13,342.2 4.3,333.6 "/>
<line fill="none" stroke="#000000" stroke-width="1.3" x1="13" y1="342.2" x2="13" y2="238.2"/>
<polyline fill="#FFFFFF" stroke="#000000" stroke-width="1.3" points="537.1,544.2 528.3,552.9 519.5,544.2 "/>
<line fill="none" stroke="#000000" stroke-width="1.3" x1="528.3" y1="552.9" x2="528.3" y2="501.8"/>
<polyline fill="#FFFFFF" stroke="#000000" stroke-width="1.3" points="519.5,369.2 528.3,360.5 537.1,369.2 "/>
<line fill="none" stroke="#000000" stroke-width="1.3" x1="528.3" y1="360.5" x2="528.3" y2="411.6"/>
<polyline fill="#FFFFFF" stroke="#000000" stroke-width="1.3" points="257.4,71.5 266.2,80.3 257.4,89 "/>
<line fill="none" stroke="#000000" stroke-width="1.3" x1="268.2" y1="80.3" x2="164.2" y2="80.3"/>
<polyline fill="#FFFFFF" stroke="#000000" stroke-width="1.3" points="462.6,593.5 471.3,602.2 462.6,610.8 "/>
<line fill="none" stroke="#000000" stroke-width="1.3" x1="473.4" y1="602.2" x2="402.5" y2="602.2"/>
<polyline fill="#FFFFFF" stroke="#000000" stroke-width="1.3" points="222.1,610.8 213.3,602.2 222.1,593.5 "/>
<line fill="none" stroke="#000000" stroke-width="1.3" x1="211.3" y1="602.2" x2="282.2" y2="602.2"/>
<g enable-background="new    ">
	<path d="M218,333.2c-6-5.4-8.8-11.2-8.8-18.1c0-7.3,3.5-13.4,9-18.3l1.9,1.9c-4.9,4.7-7.5,10.3-7.5,16.1c0,6,2.4,11.4,7.5,16.4
		L218,333.2z"/>
	<path d="M228.5,325v-2.8h6.5v-15.1l-6.2,4.1l-1.1-2.8l8-4.9h2.8v18.7h5.6v3h-15.7L228.5,325L228.5,325z"/>
	<path d="M251.2,329.9c3.7-0.9,4.9-2.6,4.9-3.9c0-2.2-1.9-2.2-1.9-4.3c0-1.5,1.1-2.6,2.6-2.6c2.2,0,3.4,2.2,3.4,4.5
		c0,4.5-3,7.1-8.2,8.4L251.2,329.9z"/>
	<path d="M270.8,325v-2.6l5-4.7c4.5-3.9,5.6-5.4,5.6-7.8s-1.3-3.9-4.5-3.9c-2.1,0-4.1,0.9-5.2,1.9l-0.7-2.8c1.9-1.1,3.9-1.9,6.5-1.9
		c4.9,0,7.3,2.8,7.3,6.3c0,3-1.5,5.4-5.6,8.8l-4.3,3.7h-0.2c1.7-0.2,5.6-0.2,11-0.2v3.2H270.8z"/>
	<path d="M296.4,296.8c6,5.6,8.8,11.2,8.8,18.1c0,7.3-3.5,13.4-9,18.3l-1.9-1.9c4.9-4.7,7.5-10.3,7.5-16.1c0-6-2.4-11.6-7.5-16.4
		L296.4,296.8z"/>
</g>
<line fill="none" stroke="#000000" stroke-width="2" x1="193.4" y1="347.2" x2="491.7" y2="347.2"/>
<line fill="none" stroke="#000000" stroke-width="2" x1="193.4" y1="566.4" x2="491.7" y2="566.4"/>
<line fill="none" stroke="#000000" stroke-width="2" x1="489.8" y1="568.1" x2="489.8" y2="346.1"/>
<line fill="none" stroke="#000000" stroke-width="2" x1="195.1" y1="568.1" x2="195.1" y2="346.1"/>
<g enable-background="new    ">
	<path fill="#808080" d="M134.8,742.4v-1.9c0.9-0.2,2.1-0.4,3.2-0.4v-19.4c-1.1,0-2.2-0.2-3.2-0.4v-1.9h15.7v5.6h-2.2
		c-0.2-1.1-0.4-2.2-0.4-3h-6.5v8h5.2c0.2-0.9,0.4-1.7,0.6-2.4h2.1v7.3h-2.1c-0.2-0.7-0.4-1.7-0.6-2.4h-5.2v8.6h6.5
		c0.2-0.9,0.4-2.1,0.6-3.2h2.2v5.8h-15.9V742.4z"/>
	<path fill="#808080" d="M166.3,742.4l-3.9-6.7l-3.9,6.7H153v-2c1.1-0.2,2.1-0.4,3-0.6l4.3-6.5l-4.1-6.3c-0.9,0-2.1-0.4-3-0.6v-2.1
		h5.4l3.7,6.5l3.9-6.5h5.2v2.1c-1.1,0.2-2.1,0.4-3,0.6l-3.9,6.3l4.3,6.5c0.9,0,2.1,0.4,3,0.6v2.1L166.3,742.4L166.3,742.4z"/>
	<path fill="#808080" d="M184.8,742.4c0-1.3,0-2.6,0.2-3.5l0,0c-0.9,2.2-3.2,3.9-6,3.9c-3,0-4.9-1.9-4.9-4.7c0-3.9,3.9-6.2,10.6-6.2
		v-1.3c0-2.4-0.9-3.9-3.7-3.9c-1.1,0-2.2,0.2-3.4,0.6c0,0.9-0.2,1.9-0.4,3h-2.1v-4.9c1.9-0.6,3.9-0.9,6-0.9c5.2,0,6.7,2.4,6.7,6v9.7
		c0.9,0.2,2.1,0.4,3,0.4v1.9C189.1,742.4,186.6,742.6,184.8,742.4z M184.6,734.2c-5.6,0-7.5,1.3-7.5,3.4c0,1.5,1.1,2.6,2.8,2.6
		c2.8,0,4.9-2.8,4.9-5.6v-0.4H184.6z"/>
	<path fill="#808080" d="M217.8,742.4V731c0-2.4-0.6-4.1-2.8-4.1c-2.6,0-5,2.6-5,7.1v6c0.9,0,2.1,0.2,3,0.4v1.9h-6.2v-11.2
		c0-2.2-0.4-4.1-3-4.1s-5,3-5,7.1v6c0.9,0,2.1,0.2,2.8,0.4v1.9h-9.1v-2c0.9-0.2,2.1-0.4,3.2-0.4v-12.9c-0.9-0.2-2.1-0.4-3.2-0.4
		v-1.9c1.9-0.2,4.3-0.4,6.3-0.2c0,1.1-0.2,2.6-0.4,3.7l0,0c0.9-2.4,3.4-4.1,6.2-4.1c3.7,0,4.9,2.6,4.9,4.1c0.7-1.7,2.6-4.1,6.2-4.1
		c3.4,0,5.2,1.9,5.2,5.8v9.9c1.1,0,2.1,0.2,3,0.4v1.9h-6L217.8,742.4L217.8,742.4z"/>
	<path fill="#808080" d="M234.3,742.6c-1.1,0-2.1,0-3-0.2v6.5c1.1,0,2.2,0.2,3.2,0.4v1.9h-9.3v-1.9c0.9-0.2,1.9-0.4,3-0.4v-21.7
		c-0.9-0.2-2.1-0.4-3-0.4v-1.9c1.7-0.2,4.1-0.4,6.2-0.2c0,0.9-0.2,2.6-0.4,3.5l0,0c0.9-2.4,3.2-3.9,6-3.9c4.1,0,6.5,3,6.5,8.4
		C243.4,739.1,240,742.6,234.3,742.6z M236.1,726.9c-3.2,0-4.9,3.7-4.9,6.9v5.8c0.9,0.4,2.1,0.4,3.2,0.4c3.4,0,5.6-2.1,5.6-7.1
		C240,729.2,238.7,726.9,236.1,726.9z"/>
	<path fill="#808080" d="M245.6,742.4v-1.9c0.9-0.2,2.1-0.4,3-0.4v-21.3c-0.9-0.2-2.1-0.4-3.2-0.4v-1.9c1.9-0.2,4.3-0.4,6.3-0.2V740
		c1.1,0,2.1,0.2,3,0.4v1.9L245.6,742.4C245.6,742.3,245.6,742.4,245.6,742.4z"/>
	<path fill="#808080" d="M271.8,733.5H260c-0.2,4.7,1.7,6.7,5.6,6.7c1.7,0,3.5-0.4,5-1.1l0.4,2.6c-1.9,0.7-3.9,1.1-6.2,1.1
		c-5.4,0-8.4-2.8-8.4-9.1c0-5.2,3-9.3,8-9.3s7.1,3.4,7.1,7.3C271.8,732,271.8,732.8,271.8,733.5z M264.5,726.8
		c-2.2,0-3.9,1.7-4.3,4.5h8.4C268.6,728.4,267.1,726.8,264.5,726.8z"/>
	<path fill="#808080" d="M279.2,732.3c-1.3,0-2.2-0.9-2.2-2.2s0.9-2.2,2.2-2.2s2.2,0.9,2.2,2.2C281.5,731.2,280.4,732.3,279.2,732.3
		z M279.2,742.8c-1.3,0-2.2-0.9-2.2-2.2s0.9-2.2,2.2-2.2s2.2,0.9,2.2,2.2C281.5,741.8,280.4,742.8,279.2,742.8z"/>
</g>
<g enable-background="new    ">
	<path d="M313.4,727.5c-4.1-0.7-6,2.1-6,7.8v4.9c1.1,0,2.2,0.2,3.2,0.4v1.9h-9.5v-1.9c0.9-0.2,2.1-0.4,3.2-0.4v-12.9
		c-0.9-0.2-2.1-0.4-3.2-0.4V725c1.9-0.2,4.3-0.4,6.2-0.2c0,1.1-0.2,2.8-0.4,4.3l0,0c0.7-2.4,2.6-4.9,6.5-4.5V727.5L313.4,727.5z"/>
	<path d="M330.6,733.5H319c-0.2,4.7,1.7,6.7,5.6,6.7c1.7,0,3.5-0.4,5-1.1l0.4,2.6c-1.9,0.7-3.9,1.1-6.2,1.1c-5.4,0-8.4-2.8-8.4-9.1
		c0-5.2,3-9.3,8-9.3s7.1,3.4,7.1,7.3C330.6,732,330.6,732.8,330.6,733.5z M323.5,726.8c-2.2,0-3.9,1.7-4.3,4.5h8.4
		C327.4,728.4,325.9,726.8,323.5,726.8z"/>
	<path d="M341.8,742.8c-4.5,0-8-2.1-8-8.6c0-5.8,3-9.7,8.8-9.7c1.5,0,3.2,0.2,4.3,0.6v5.2h-2.1c-0.2-1.1-0.4-2.1-0.4-3
		c-0.6-0.2-1.5-0.4-2.4-0.4c-3.2,0-5,2.6-5,6.5c0,3.5,1.1,6.3,5.4,6.3c1.5,0,3-0.4,4.3-0.9l0.6,2.6
		C345.9,742.2,344,742.8,341.8,742.8z"/>
	<path d="M356.9,742.8c-3.7,0-4.9-1.5-4.9-5.4v-10.3h-3.7v-2.4h3.7v-5.8l3.2-0.9v6.7h5v2.4h-5v9.1c0,3,0.6,3.7,2.6,3.7
		c0.7,0,1.7-0.2,2.2-0.4l0.4,2.6C359.3,742.6,358,742.8,356.9,742.8z"/>
	<path d="M384,750.5c-6-5.4-8.8-11.2-8.8-18.1c0-7.3,3.5-13.4,9-18.3l1.9,1.9c-4.9,4.7-7.5,10.3-7.5,16.1c0,6,2.4,11.4,7.5,16.4
		L384,750.5z"/>
	<path d="M394.6,742.4v-3h6.5v-15.1l-6.1,4.1l-1.1-2.8l7.8-4.9h2.8v18.7h5.6v3H394.6L394.6,742.4z"/>
	<path d="M417.4,747.1c3.7-0.9,4.9-2.6,4.9-3.9c0-2.2-1.9-2.2-1.9-4.3c0-1.5,1.1-2.6,2.6-2.6c2.2,0,3.4,2.2,3.4,4.5
		c0,4.5-3,7.1-8.2,8.4L417.4,747.1z"/>
	<path d="M436.8,742.4v-2.6l5-4.7c4.5-3.9,5.6-5.4,5.6-7.8c0-2.4-1.3-3.9-4.5-3.9c-2.1,0-4.1,0.9-5.2,1.9l-0.7-2.8
		c1.9-1.1,3.9-1.9,6.5-1.9c4.9,0,7.3,2.8,7.3,6.3c0,3-1.5,5.4-5.6,8.8l-4.3,3.7h-0.2c1.7-0.2,5.6-0.2,11-0.2v3.2H436.8L436.8,742.4z
		"/>
	<path d="M460.3,747.1c3.7-0.9,4.9-2.6,4.9-3.9c0-2.2-1.9-2.2-1.9-4.3c0-1.5,1.1-2.6,2.6-2.6c2.2,0,3.4,2.2,3.4,4.5
		c0,4.5-3,7.1-8.2,8.4L460.3,747.1z"/>
	<path d="M492.6,739.4v6h-3.2v-6h-11l-0.2-2.6l9.9-15.9h4.5v15.5h4.1v3H492.6L492.6,739.4z M489.5,723.9L489.5,723.9l-8,12.7
		c2.1,0,6.7,0,8,0V723.9z"/>
	<path d="M503.3,747.1c3.7-0.9,4.9-2.6,4.9-3.9c0-2.2-1.9-2.2-1.9-4.3c0-1.5,1.1-2.6,2.6-2.6c2.2,0,3.4,2.2,3.4,4.5
		c0,4.5-3,7.1-8.2,8.4L503.3,747.1z"/>
	<path d="M527.7,745.8c-1.5,0-3.2-0.2-4.5-0.6l0.6-3c1.3,0.4,2.8,0.7,4.3,0.7c3.7,0,6.3-2.2,6.3-4.9c0-2.6-2.1-4.5-6-4.5
		c-1.3,0-2.2,0-3.2,0.2v-2.6h0.7c5,0,7.7-1.5,7.7-4.5c0-2.2-1.7-3.5-4.3-3.5c-2.1,0-3.5,0.6-5,1.3l-0.6-2.8c1.9-0.7,3.9-1.3,6.2-1.3
		c4.9,0,7.3,2.4,7.3,5.8c0,2.8-1.7,4.9-4.3,5.6l0,0c3,0.4,5.2,2.8,5.2,5.8C538,742.4,533.7,745.8,527.7,745.8z"/>
	<path d="M548.4,714.2c6,5.6,8.8,11.2,8.8,18.1c0,7.3-3.5,13.4-9,18.3l-1.9-1.9c4.9-4.7,7.5-10.3,7.5-16.1c0-6-2.4-11.6-7.5-16.4
		L548.4,714.2z"/>
	<path d="M574.8,748l-1.3-1.3c2.2-2.4,2.4-4.1,1.5-5.2c-0.9-1.3-0.2-3.2,1.5-3.2C579.1,738.3,580.2,743,574.8,748z M576.4,732.3
		c-1.3,0-2.2-0.9-2.2-2.2s0.9-2.2,2.2-2.2s2.2,0.9,2.2,2.2C578.7,731.2,577.6,732.3,576.4,732.3z"/>
</g>
<g enable-background="new    ">
	<path d="M316.2,594.6l-4.9,15.5h-3.7l-3.5-10.5c-0.4-1.1-0.7-2.2-0.9-3.5l0,0c-0.4,1.5-0.7,3-1.3,4.5l-3,9.5h-3.7l-4.7-15.5
		c-0.7,0-1.5-0.2-2.2-0.4v-1.9h8.2v1.9c-0.7,0.2-1.5,0.4-2.4,0.4l2.2,8c0.4,1.5,0.7,3,1.1,4.1l0,0c0.4-1.5,0.7-3,1.3-4.3l3.2-10.1
		h3.4l3.2,10.1c0.6,2.1,0.9,3.2,1.3,4.3l0,0c0.4-1.3,0.6-2.2,1.1-3.9l2.2-8c-0.7,0-1.7-0.2-2.4-0.4v-1.9h8v1.9
		C317.7,594.4,317,594.6,316.2,594.6z"/>
	<path d="M319.8,610.1v-1.9c0.9-0.2,2.1-0.4,3.2-0.4v-13.1c-0.9-0.2-2.1-0.4-3.2-0.4v-1.9c1.9-0.2,4.3-0.4,6.3-0.2v15.5
		c1.1,0,2.1,0.2,3,0.4v1.9h-9.3V610.1z M324.4,588.8c-1.1,0-2.2-0.9-2.2-2.1s0.9-2.1,2.2-2.1c1.1,0,2.1,0.9,2.1,2.1
		C326.7,587.9,325.5,588.8,324.4,588.8z"/>
	<path d="M343.5,610.1c0-0.9,0-2.6,0.4-3.5l0,0c-0.9,2.4-3.2,3.9-6,3.9c-4.3,0-6.5-3.2-6.5-8.4c0-6.2,3.5-10.1,9.1-10.1
		c0.9,0,1.9,0,3,0.2v-5.8c-0.9-0.2-2.1-0.4-3.2-0.4v-1.9c1.9-0.2,4.3-0.4,6.3-0.2v23.5c0.9,0.2,2.1,0.4,3,0.4v1.9
		C347.9,610.1,345.5,610.3,343.5,610.1z M343.5,594.9c-1.1-0.2-2.2-0.4-3.2-0.4c-3.4,0-5.6,2.1-5.6,7.1c0,3.9,1.3,6,3.9,6
		c3.2,0,4.9-3.7,4.9-6.9V594.9L343.5,594.9z"/>
	<path d="M358.2,610.4c-3.7,0-4.9-1.5-4.9-5.4v-10.3h-3.7v-2.4h3.7v-5.8l3.2-0.9v6.7h5v2.4h-5v9.1c0,3,0.6,3.7,2.6,3.7
		c0.7,0,1.7-0.2,2.2-0.4l0.4,2.6C360.6,610.3,359.3,610.4,358.2,610.4z"/>
	<path d="M378,610.1v-11.4c0-2.4-0.7-4.1-3-4.1c-3,0-5,3-5,6.9v6.2c0.9,0,2.1,0.2,2.8,0.4v1.9h-9.1v-1.9c0.9-0.2,2.1-0.4,3-0.4
		v-21.3c-0.9-0.2-2.1-0.4-3.2-0.4v-1.9c1.9-0.2,4.3-0.4,6.3-0.2v8.4c0,1.1,0,2.6-0.4,3.5l0,0c1.1-2.4,3.2-3.9,6.2-3.9
		c4.1,0,5.4,2.6,5.4,5.8v10.1c0.9,0,2.1,0.2,3,0.4v1.9L378,610.1L378,610.1z"/>
</g>
<g enable-background="new    ">
	<path d="M521,468.7v-11.3c0-2.4-0.7-4.1-3-4.1c-3,0-5,3-5,6.9v6.2c0.9,0,2.1,0.2,2.8,0.4v1.9h-9.1v-1.9c0.9-0.2,2.1-0.4,3-0.4
		v-21.3c-0.9-0.2-2.1-0.4-3.2-0.4v-1.9c1.9-0.2,4.3-0.4,6.3-0.2v8.4c0,1.1,0,2.6-0.4,3.5l0,0c1.1-2.4,3.2-3.9,6.2-3.9
		c4.1,0,5.4,2.6,5.4,5.8v10.1c0.9,0,2.1,0.2,3,0.4v1.9L521,468.7L521,468.7z"/>
	<path d="M544.3,459.8h-11.8c-0.2,4.7,1.7,6.7,5.6,6.7c1.7,0,3.5-0.4,5-1.1l0.4,2.6c-1.9,0.7-3.9,1.1-6.2,1.1
		c-5.4,0-8.4-2.8-8.4-9.1c0-5.2,3-9.3,8-9.3s7.1,3.4,7.1,7.3C544.3,458.3,544.3,459,544.3,459.8z M537.1,453.1
		c-2.2,0-3.9,1.7-4.3,4.5h8.4C541.2,454.7,539.7,453.1,537.1,453.1z"/>
	<path d="M547.1,468.7v-1.9c0.9-0.2,2.1-0.4,3.2-0.4v-12.9c-0.9-0.2-2.1-0.4-3.2-0.4v-1.7c1.9-0.2,4.3-0.4,6.3-0.2v15.5
		c1.1,0,2.1,0.2,3,0.4v1.9h-9.3V468.7L547.1,468.7z M551.8,447.3c-1.1,0-2.2-0.9-2.2-2.1s0.9-2.1,2.2-2.1c1.1,0,2.1,0.9,2.1,2.1
		C553.9,446.3,552.9,447.3,551.8,447.3z"/>
	<path d="M566,477.9c-4.7,0-7.5-1.9-7.5-5.4c0-2.1,1.3-3.9,3-4.7c-1.1-0.4-1.7-1.5-1.7-2.6c0-1.3,0.7-2.4,2.1-3
		c-1.7-0.9-2.6-2.6-2.6-4.9c0-3.5,2.6-6.7,7.5-6.7c0.9,0,1.7,0.2,2.4,0.4h6v2.6h-3c0.9,0.7,1.5,1.9,1.5,3.4c0,3.7-2.4,6.5-7.5,6.5
		c-0.7,0-1.3,0-1.9-0.2c-0.7,0.4-1.1,0.9-1.1,1.5c0,0.9,0.9,1.3,3,1.3l3.2,0.2c3.9,0.2,6,1.9,6,5.2
		C575.3,474.9,571.6,477.9,566,477.9z M568.4,468.6l-3.4-0.2c-0.4,0-0.7,0-1.1,0c-1.3,0.9-2.2,2.2-2.2,3.5c0,2.1,2.1,3.4,4.9,3.4
		c3.5,0,5.6-1.7,5.6-3.9C572.2,469.9,571,468.7,568.4,468.6z M566.6,453.1c-2.6,0-4.3,1.7-4.3,3.9c0,2.4,1.5,3.9,4.1,3.9
		s4.1-1.5,4.1-3.9S569,453.1,566.6,453.1z"/>
	<path d="M591.4,468.7v-11.3c0-2.4-0.7-4.1-3-4.1c-3,0-5,3-5,6.9v6.2c0.9,0,2.1,0.2,2.8,0.4v1.9H577v-1.9c0.9-0.2,2.1-0.4,3-0.4
		v-21.3c-0.9-0.2-2.1-0.4-3.2-0.4v-1.9c1.9-0.2,4.3-0.4,6.3-0.2v8.4c0,1.1,0,2.6-0.4,3.5l0,0c1.1-2.4,3.2-3.9,6.2-3.9
		c4.1,0,5.4,2.6,5.4,5.8v10.1c0.9,0,2.1,0.2,3,0.4v1.9L591.4,468.7L591.4,468.7z"/>
	<path d="M606.5,468.9c-3.7,0-4.9-1.5-4.9-5.4v-10.3h-3.7v-2.4h3.7V445l3.2-0.9v6.7h5v2.4h-5v9.1c0,3,0.6,3.7,2.6,3.7
		c0.7,0,1.7-0.2,2.2-0.4l0.4,2.6C608.9,468.9,607.6,468.9,606.5,468.9z"/>
</g>
</svg>
