<svg xmlns="http://www.w3.org/2000/svg" width="1000" height="1000" viewBox="0 0 1000 1000"><g fill="#111918"><path d="M168.361 231.454c0 7.416-.072 21.887-.072 27.862 0 2.665 1.08 3.025 2.736 3.025.72 0 1.727-.073 2.375-.144v4.32c-1.152.216-2.592.36-4.248.36-2.952 0-5.76-1.512-5.76-6.479v-28.943h-3.024v-4.392h3.024c0-.143.144-6.264.144-6.264l4.752-.216v6.479h5.183v4.392h-5.11zm20.593 35.207c-.073 0-.073-.575-.073-31.895 0-2.016-.791-3.456-3.383-3.456-2.304 0-4.104 1.656-4.104 5.329v30.022h-4.823v-57.526h4.751v21.239c.648-2.447 3.096-3.743 6.192-3.743 3.6 0 6.264 2.16 6.264 7.2 0 32.255 0 32.83.073 32.83h-4.897zm17.64.432c-3.6 0-6.048-.865-7.487-4.032-1.369-2.952-1.873-7.92-1.873-15.768 0-8.424.648-13.968 2.448-17.135 1.44-2.52 3.6-3.6 6.768-3.6 7.056 0 8.927 4.825 8.927 14.4v8.064h-13.391c0 10.152.504 13.751 4.464 13.751 3.529 0 4.177-2.231 4.177-8.064h4.608c-.001 8.784-2.881 12.384-8.641 12.384zm4.032-27.36c0-5.472-.504-8.639-4.321-8.639-3.168 0-4.32 1.583-4.32 13.679h8.64v-5.04z"/><path d="M275.016 204.123c3.28.161 6.346 2.959 7.525 6.918 1.262 4.234.874 9.207.464 14.473-.184 2.363-.375 4.805-.422 7.27-.238 12.423-2.184 26.014-5.787 40.397a202.815 202.815 0 0 1-1.647 6.125l-.648 2.29-.463 1.539c-2.395 7.955-5.319 16.291-9.482 27.032l-.189.485c-2.357 6.081-22.462 63.711-29.672 60.104-4.065-2.038 1.5-9.715 2.55-11.558 3.082-5.408 4.912-11.372 7.352-17.078 4.939-11.549 9.169-23.395 13.457-35.201 3.68-10.131 6.753-20.249 9.4-30.93l.354-1.431 1.077-2.727c4.965-12.575 7.937-28.555 9.354-50.29.177-2.712.325-6.756-.425-10.559-.582-2.953-1.597-5.18-2.798-6.859m223.561 24.003c-.922 1.636-1.716 3.264-2.435 4.741-.573 1.174-1.113 2.285-1.584 3.116-9.028 15.919-15.666 33.033-21.492 49.155-5.513 15.253-10.777 30.587-16.175 45.879-2.167 6.137-4.389 12.457-7.718 18.08-.328.553-6.243 9.01-7.867 5.981-2.659-4.958 3.089-12.446 4.924-16.793 3.564-8.448 6.306-17.31 9.324-25.964 2.568-7.364 5.222-14.979 7.952-22.404l.306-.832c6.544-17.804 13.311-36.214 23.948-51.211 2.484-3.502 6.474-7.156 10.817-9.748m366.268 12.863c-8.452 6.559-15.828 16.671-20.834 23.532l-.646.885c-3.131 4.283-6.236 8.989-9.493 14.387 0 0-.794 1.317-.827 1.317l-.717 1.243-5.326 8.827.325-.012c-1.861 3.364-3.677 6.732-5.457 10.032-2.947 5.466-5.995 11.118-9.136 16.546l-1.547 2.673c-6.095 10.528-12.398 21.416-18.306 32.299-3.866 7.123-7.812 14.252-11.324 21.559-2.147 4.464-4.193 12.79-10.247 13.658-5.304.759 1.491-9.118 1.872-9.797 2.558-4.567 4.526-9.412 7.136-13.977 5.98-10.457 11.665-21.06 17.832-31.418 8.64-14.511 17.719-29.204 25.549-41.837l4.005-6.462.802-1.293c3.395-5.47 6.787-10.938 10.168-16.407 2.341-3.788 7.376-11.136 14.798-17.809 3.05-2.74 6.982-5.772 11.373-7.946M380.542 244c-.497 10.872-3.273 21.96-5.973 32.74l-.084.339c-1.426 5.697-3.182 11.631-5.367 18.142 0 0-1.14 3.397-1.146 3.4l-1.232 3.43a512.13 512.13 0 0 1-4.494 12.013l-.186.482c-1.939 5.005-4.055 10.412-6.813 15.033-1.025 1.717-4.134 7.665-6.873 7.155-2.583-.482-1.617-3.146-.811-5.091 2.385-5.759 4.759-11.445 6.899-17.312l4.976-13.642-.253.079a298.107 298.107 0 0 0 6.885-24.581c2.236-9.544 4.728-20.177 5.014-31.428 2.6-.338 6.105-.646 9.458-.759m-226.079 68.523c-8.231 10.422-16.355 24.636-23.159 44.027-1.497 4.267-5.398 26.352-12.932 23.947-9.226-2.949 8.89-32.7 11.191-36.676 7.482-12.928 15.739-23.323 24.9-31.298m388.744 8.353c-4.853 7.57-8.604 15.677-12.274 23.605-2.754 5.954-7.165 20.802-14.467 22.553-5.127 1.229-3.84-4.175-2.618-6.641 2.605-5.262 5.606-10.365 8.235-15.633 1.806-3.619 3.621-7.257 5.474-10.911 4.879-9.634 7.237-11.715 15.65-12.973m-130.018 2.737c-3.798 7.035-6.67 14.43-9.483 21.673-1.454 3.745-7.869 27.002-14.944 23.394-3.769-1.924 6.599-19.614 7.711-22.247 1.46-3.456 2.929-6.932 4.43-10.424 3.674-8.548 5.673-10.809 12.286-12.396m254.693.055c-1.575 2.373-3.007 4.786-4.418 7.161a224.417 224.417 0 0 1-2.738 4.532c-4.578 7.317-8.728 14.92-12.741 22.274-2.331 4.273-7.784 20.738-15.227 17.467-.714-3.652 5.19-10.281 6.916-13.422 7.103-12.922 14.445-26.28 23.604-37.433.954-.311 2.924-.477 4.604-.579m42.832 2.949c-7.145 7.87-12.915 15.547-17.562 23.357-3.495 5.874-6.608 11.95-9.65 18.066-1.775 3.57-4.112 11.452-8.831 12.297-6.8 1.216 5.559-17.793 5.919-18.394 6.108-10.214 12.703-19.772 21.231-28.166a57.451 57.451 0 0 1 8.893-7.16m-124.156 4.919a305.422 305.422 0 0 0-2.77 3.375c-1.206 1.485-2.346 2.887-3.355 4.041-2.435 2.782-24.003 33.105-27.416 30.207-2.507-2.129 10.55-14.229 12.06-15.993 4.811-5.624 12.689-14.83 21.481-21.63M274.044 506.939c-6.258 9.851-10.378 23.675-4.811 35.884.359.785.799 1.541 1.31 2.271-4.13-2.481-7.607-5.742-9.745-9.312-2.334-3.895-2.967-8.003-1.88-12.207 1.418-5.481 5.856-10.596 13.566-15.64a97.197 97.197 0 0 1 1.56-.996m174.242 80.212a49.163 49.163 0 0 0-1.846 1.93c-10.561 11.672-16.614 27.664-15.796 41.735.34 5.825 1.853 10.852 4.24 15.118-9.449-7.868-12.101-19.494-11.117-28.902 1.163-11.139 8.298-25.392 24.519-29.881M274.718 196.916c-2.236 0-4.568.559-6.892 1.795-13.372 7.117-21.459 20.105-22.307 35.215-.772 13.784 7.153 29.351 14.946 40.331a298.227 298.227 0 0 1-9.178 30.203c-9.516 26.197-19.473 53.223-33.913 77.183-7.01 11.63-14.314 23.084-21.101 34.848-3.687 6.389-7.682 18.378-16.78 18.378-.257 0-.517-.009-.782-.029-10.968-.825-3.193-20.469-1.309-25.957 4.09-11.912 9.178-23.883 14.865-34.882 3.918-7.579 7.651-15.333 11.609-22.95 1.595-3.073 3.382-6.645 5.217-9.471.878-1.352 4.923-4.263 3.75-6.072-2.62-4.039-13.293 3.984-15.408 5.76-4.186 3.517-7.77 7.685-10.905 12.152-9.84 14.017-15.459 29.913-22.897 45.19-4.455 9.15-7.87 18.797-12.994 27.664-2.59 4.48-6.638 9.913-12.35 9.913-.606 0-1.23-.061-1.875-.191-12.026-2.428-10.45-20.435-9.404-29.262.811-6.846 1.537-13.712 2.945-20.471 1.911-9.178 5.041-18.487 8.143-27.331 9.005-25.664 26.391-56.879 53.868-66.075 1.215-.407 2.378-.594 3.478-.594 6.926 0 11.511 7.392 12.787 14.065.786 4.113.158 9.996-2.696 13.296-.827.956-2.222 1.615-3.54 1.615-1.095 0-2.136-.453-2.76-1.564-1.787-3.184 2.784-5.286 3.329-7.911.674-3.247-4.587-7.728-7.39-7.944a6.871 6.871 0 0 0-.517-.02c-3.708 0-7.37 3.009-9.471 5.773-4.403 5.79-3.898 15.67 2.801 19.937 3.335 2.125 6.437 3.052 9.251 3.052 14.309 0 21.198-23.947 13.971-35.957-3.988-6.623-11.243-9.218-18.638-9.218-3.244 0-6.513.499-9.548 1.376-27.167 7.852-45.962 27.728-59.692 51.452-6.753 11.67-12.551 23.919-15.648 37.097-4.695 19.973-13.134 53.545 13.859 61.776 4.378 1.336 10.054 2.314 15.179 2.314 1.711 0 3.36-.109 4.88-.35 4.562-.724 8.945-2.228 13.295-3.739 2.783-.967 5.745-2.873 8.749-2.873a6.35 6.35 0 0 1 2.304.42c1.57.602 1.931 1.631 3.214 2.545 4.226 3.012 8.957 4.304 13.75 4.304 10.784 0 21.898-6.534 28.393-14.735 9.75-12.309 18.386-26.715 26.418-40.194 13.998-23.493 23.7-48.607 33.546-74.012 3.52-9.084 6.855-18.237 9.662-27.558 4.336.271 8.964.697 11.705 3.927 4.422 5.217-1.318 14.287-3.465 19.39-8.205 19.5-16.645 38.985-24.887 58.522-6.864 16.273-12.418 33.705-14.612 51.307-1.021 8.193 2.372 16.286 9.688 20.252 8.775 4.757 19.628 2.418 28.839.359 7.546-1.686 14.048-5.514 19.774-10.532.621 3.237 2.699 6.361 5.611 8.3 4.797 3.197 9.853 4.568 14.978 4.568 9.061 0 18.342-4.283 26.807-10.332 5.578 5.959 16.287 8.45 24.539 8.45.948 0 1.862-.033 2.734-.097 5.678-.418 19.415-1.982 23.18-7.24-2.182 3.048-3.233 6.196-4.802 9.63-1.798 3.933-3.451 7.934-5.286 11.852-3.711 7.929-7.691 15.736-12.016 23.347-19.586.075-39.292 1.658-58.603 4.813-19.098 3.121-40.305 9.543-56.57 20.182-7.315 4.785-14.327 11.097-16.595 19.863-4.479 17.315 11.89 30.727 26.394 34.246 5.004 1.214 10.113 1.741 15.241 1.741 11.463 0 23.034-2.632 33.81-6.108 22-7.096 44.55-26.119 58.857-43.726 6.091-7.495 11.512-15.52 16.453-23.855.435-.735 2.239-1.032 4.889-1.032 10.705 0 35.211 4.868 38.951 5.49 14.427 2.399 28.786 5.487 42.962 9.077 27.288 6.911 56.004 19.029 72.764 42.695 11.371 16.057 18.007 40.855 8.46 59.514-2.216 4.33-7.267 7.623-10.458 11.415-4.811 4.324-9.697 8.569-14.722 12.667-19.03 15.516-41.545 29.635-66.264 33.223-2.318.336-4.699.51-7.086.51-16.396 0-33.256-8.134-34.368-27.232-.758-13.034 5.322-26.954 13.947-36.486 3.313-3.661 9.156-8.722 14.719-8.722 1.903 0 3.774.592 5.5 2.036 7.504 6.277-1.161 12.512-5.712 17.041-7.965 7.927-12.431 21.151 3.884 21.321l.238.001c15.872 0 24.605-16.711 19.004-30.029-5.317-12.641-16.684-17.283-28.814-17.283-4.046 0-8.175.516-12.196 1.424-37.332 8.428-44.252 61.307-8.94 77.513 8.803 4.041 18.834 5.613 29.099 5.613 14.415 0 29.29-3.103 41.87-6.83 27.601-8.178 51.393-26.987 72.622-45.755 21.79-19.263 42.334-40.05 63.415-60.084 27.497-26.132 54.723-52.559 83.179-77.658 7.107-6.27 14.411-12.302 21.506-18.586 2.816-2.493 5.911-4.928 5.911-4.928s5.102 2.005 8.531 2.946c2.681.736 5.756 1.025 8.94 1.025 5.482 0 11.289-.858 15.981-1.772 15.755-3.069 37.23-13.201 45.204-27.983 3.465-6.427 2.761-17.559-4.225-21.963-3.773-2.379-8.27-3.337-13.021-3.337-10.908 0-23.157 5.048-31.085 9.53-5.428 3.068-10.576 6.64-15.562 10.451.868-2.985 1.829-5.793 2.643-8.225 6.22-18.618 15.4-36.295 24.739-53.502 6.352-11.701 13.088-23.276 19.757-34.801 6.32-10.923 11.974-22.185 18.264-33.085 4.234-.045 8.5-.279 12.8-.736 10.46-1.111 23.357-4.582 31.785-11.283 12.314-9.79 25.35-34.772 4.74-43.375a26.362 26.362 0 0 0-10.241-2.067c-9.976 0-19.603 5.535-27.655 12.776-6.689 6.014-12.293 13.205-16.109 19.377-4.022 6.506-8.06 13.01-12.097 19.518-5.56-.736-11.03-1.788-16.262-3.039-26.123-6.241-50.398-19.596-75.805-28.024-9.186-3.047-19.127-5.823-28.973-5.823-3.143 0-6.274.282-9.37.929-8.704 1.819-18.319 6.372-23.644 13.696-4.823 6.636-4.486 18.05 2.3 23.703 3.73 3.108 9.836 5.134 15.663 5.134 4.786 0 9.384-1.366 12.326-4.623 2.978-3.297 5.05-9.97 3.345-14.205-1.002-2.493-3.134-3.503-5.499-4.441-1.937-.769-8.041-1.656-9.165-3.323-1.286-1.907-.331-4.889.884-6.643 1.573-2.272 4.784-3.095 7.312-3.668a40.874 40.874 0 0 1 9.066-.99c16.166 0 32.237 8.746 46.559 15.025 22.098 9.689 44.763 17.97 68.391 20.931-8.633 13.928-17.241 27.881-25.616 41.947-11.127 18.686-21.787 37.71-31.028 57.407-6.132 13.074-12.603 27.273-14.628 41.801-.948 1.2-1.897 2.36-2.93 3.299-3.432 3.123-7.62 6.104-11.984 6.104-1.741 0-3.51-.474-5.271-1.602-6.476-4.15-4.389-16.518-2.583-22.686 2.737-9.351 6.244-18.544 10.02-27.517 3.184-7.566 6.453-15.357 11.245-22.071 2.238-3.136 4.649-6.159 7.29-8.963.667-.707 5.231-5.129 1.48-5.484a5.057 5.057 0 0 0-.463-.021c-1.58 0-3.326.68-4.87.834-2.94.295-5.593 0-8.391 1.154-8.012 3.311-11.541 10.261-15.353 17.43-6.011 11.306-10.499 23.313-16.687 34.563-4.389 7.978-8.848 16.73-14.808 23.652-4.928 5.723-14.529 11.249-22.788 11.249-.874 0-1.732-.062-2.569-.192-4.054-.629-7.46-2.825-10.099-5.914-.438-.516-1.005-1.672-1.649-3.05 4.28-4.372 7.908-9.507 11.179-14.4 12.809-19.154 20.502-41.23 32.264-60.998 5.639-9.477 12.536-17.933 20.142-25.887 5.593-5.849 12.946-12.083 21.28-12.962a21.496 21.496 0 0 1 2.276-.117c7.175 0 15.338 3.397 16.579 10.992 1.107 6.775-3.53 13.945-9.803 16.568-1.412.591-2.829.87-4.141.87-4.789 0-8.202-3.711-5.019-9.525 1.609-2.94 3.384-6.266.778-9.339-.7-.825-2.424-1.151-4.155-1.151-1.639 0-3.287.292-4.085.731-2.641 1.452-3.503 4.757-3.474 7.564.097 9.464 7.852 15.25 15.979 15.25 2.816 0 5.678-.695 8.28-2.173 7.349-4.172 11.125-13.899 8.278-21.865-3.001-8.394-13.411-11.15-21.531-11.674a46.951 46.951 0 0 0-3.047-.097c-15.145-.001-30.11 7.175-40.907 17.803-16.6 16.341-26.943 36.458-36.938 57.202-6.237 12.942-12.376 25.635-20.85 37.324-5.017 6.92-13.037 14.206-21.396 14.206-3.78 0-7.629-1.489-11.302-5.177-.245-.246-.899-1.085-1.708-2.092 16.856-12.78 28.889-33.211 39.366-50.643 7.962-13.248 14.691-27.185 22.887-40.284 3.903-6.237 7.277-12.95 12.35-18.345.455-.483 8.735-8.136 3.459-8.136-.086 0-.175.002-.267.006-2.515.11-5.061 2.421-7.502 3.088-4.111 1.124-13.789-.164-16.72 3.357-13.025 15.676-22.073 34.787-32.208 52.351-11.471 19.882-23.578 40.455-40.471 56.28-6.141 5.754-12.492 10.191-18.901 10.191-4.232 0-8.49-1.934-12.73-6.7-10.29-11.566-3.43-30.577 2-42.656 7.382-16.419 18.195-31.425 30.009-44.923 3.084-3.524 6.82-8.616 10.984-12.845 2.847 7.7 7.256 15.582 15.4 15.582.757 0 1.545-.067 2.367-.21 11.486-1.988 12.791-20.45 3.844-26.544-4.053-2.76-8.256-3.936-12.488-3.936-2.9 0-5.815.553-8.703 1.526a507.383 507.383 0 0 0-3.258-8.554c-7.377-18.687-16.146-44.883-35.968-53.999-2.952-1.358-6.827-2.324-10.611-2.324-4.696 0-9.253 1.488-11.733 5.566-5.147 8.481 2.746 19.901 11.457 19.924h.089c6.423 0 12.177-2.014 17.416-2.014 4.97 0 9.475 1.812 13.646 8.875 6.309 10.682 10.899 22.471 14.708 34.263-13.521 6.434-26.038 20.882-33.395 29.48-12.735 14.883-24.237 31.815-30.974 50.312-4.69 12.876-7.098 30.013 6.093 38.673 6.626 4.35 15.216 5.606 23.156 5.606 1.062 0 2.111-.022 3.143-.063 11.993-.47 24.367-1.567 35.08-7.395a65.17 65.17 0 0 0 5.47-3.35c1.118 1.975 2.291 3.707 2.645 4.134 3.709 4.475 10.15 6.109 17.054 6.109 8.803 0 18.362-2.653 23.988-5.45 2.919-1.452 5.582-3.346 8.035-5.52 5.78 7.376 13.181 10.269 21.585 10.269 3.333 0 6.823-.455 10.433-1.266 7.112-1.597 14.173-5.007 20.995-7.578 2.091-.789 3.83-1.195 5.357-1.195 3.065 0 5.28 1.635 7.79 5.106 2.725 3.769 6.871 5.37 11.243 5.37 1.878 0 3.799-.295 5.667-.841 3.375-.987 6.606-3.348 9.388-5.672a24.21 24.21 0 0 0 .373 3.768c-19.203 16.627-38.52 33.158-57.301 50.252-27.648 25.167-54.196 51.499-81.579 76.945-4.389 4.078-8.716 8.216-13.03 12.369.191-.722.394-1.447.56-2.163 4.792-20.661-6.329-37.782-20.822-52.05-4.069-4.005-8.49-7.636-13.199-10.934-36.462-25.532-90.213-31.068-131.755-35.307-7.61-.777-14.968-1.195-22.355-1.428 6.067-10.992 11.398-22.416 16.369-33.819 1.141-2.618 2.21-5.272 3.261-7.935 7.25 6.825 22.356 7.723 31.249 5.155 12.245-3.536 22.744-12.21 31.841-20.813 4.812-4.548 9.932-9.286 14.1-14.442 11.504-14.23 20.452-30.239 28.635-46.547 7.675-15.289 13.445-31.788 25.107-44.415.634-.687 2.188-2.68 1.876-3.729-.23-.77-1.025-.954-1.834-.954-.518 0-1.042.076-1.426.122-2.211.267-4.393.947-6.504 1.631-1.879.611-4.042 1.887-5.985 2.147-12.398 1.666-16.443 5.637-22.204 17.009-6.874 13.57-14.392 26.98-20.939 40.69-5.996 12.555-12.282 25.433-19.957 37.181-5.9 9.032-14.399 21.32-24.195 26.423-4.89 2.548-15.243 2.401-20.609 1.294-8.511-1.757-5.67-9.867-3.464-15.402 2.63-6.595 5.87-10.262 10.723-15.461 11.814-12.654 20.377-28.748 29.556-43.328 10.147-16.119 19.914-32.871 27.533-50.347 7.772-17.827 16.733-35.024 21.448-54.003 2.953-11.89 10.203-34.355-6.79-39.56-1.617-.496-3.294-.723-4.999-.723-10.477 0-22.043 8.582-27.553 16.35-11.364 16.021-18.412 35.426-25.14 53.725-6.132 16.677-11.619 33.54-17.897 50.167-3.356 8.889-6.695 17.79-9.874 26.743-5.831 16.42-9.51 33.916-16.504 49.879-6.033 13.771-16.679 20.455-31.645 21.213-.724.036-1.452.056-2.177.056-4.041 0-8.077-.602-11.816-2.207-2.76-1.189-4.982-3.54-7.293-5.483 22.057-17.755 35.668-43.519 46.567-69.147 6.219-14.624 10.603-30.255 20.675-42.643.549-.675 1.873-2.614 1.52-3.57-.225-.615-.831-.785-1.484-.785-.564 0-1.164.128-1.584.205-2.036.376-4.018 1.134-5.934 1.895-1.707.674-3.639 1.983-5.424 2.339-11.396 2.27-14.912 6.187-19.589 17.07-6.288 14.628-12.162 29.469-19.366 43.683-3.724 7.346-7.808 14.36-11.621 21.656a122.026 122.026 0 0 1-5.618 9.632c-5.669 8.817-13.351 20.12-23.108 24.771-5.66 2.699-17.891 4.123-22.043-2.488-1.063-1.695-1.084-3.505-1.041-5.303 9.889-10.027 17.347-23.405 23.923-34.44 13.998-23.493 23.7-48.607 33.546-74.012a522.944 522.944 0 0 0 4.556-12.18 92.464 92.464 0 0 0 3.661-1.157c21.025-7.192 47.767-16.311 57.401-38.305 3.338-7.622 4.113-17.237-4.986-20.795-2.071-.81-4.284-1.181-6.523-1.181-5.658 0-11.47 2.374-15.517 6.043-5.558 5.039-7.124 11.828-.689 16.69 3.932 2.971 10.327 4.516 8.416 10.846-1.54 5.107-8.285 8.611-12.674 10.795-8.548 4.254-17.69 6.953-26.661 10.091 2.066-6.156 3.946-12.374 5.525-18.684 3.387-13.525 6.908-27.448 6.278-41.484-.019-.408-1.924-.587-4.652-.587-6.974 0-19.324 1.171-19.256 2.678.537 11.95-2.071 23.548-4.78 35.109-2.532 10.807-5.665 21.337-9.376 31.784-1.24.469-2.474.955-3.698 1.473-7.653 3.237-15.861 5.415-20.778 12.765-3.939 5.888-4.079 17.176.988 22.755 1.454 1.601 4.545 3.082 7.893 3.853-3.81 9.141-7.866 18.168-12.348 26.965-5.176 10.158-10.895 20-16.996 29.629-5.187 8.186-9.297 17.365-15.382 24.914-4.32 5.361-10.614 8.027-17.537 7.528-17.603-1.27-1.077-28.035 1.242-35.817 3.684-12.366 9.103-24.131 13.608-36.204 6.069-16.265 12.605-32.61 20.7-47.986 3.411-6.479 6.053-13.936 10.443-19.827 2.157-2.896 9.038-7.699 7.711-12.04-.428-1.395-2.647-1.841-5.351-1.841-4.15 0-9.438 1.05-11.136 1.328-3.326.543-6.779.88-10.228.88-3.967 0-7.928-.445-11.687-1.535a35.43 35.43 0 0 1-5.046-1.9 218.164 218.164 0 0 0 1.703-6.336c3.432-13.706 5.73-27.868 6.001-42.008.15-7.893 1.96-16.214-.341-23.938-2.07-6.946-7.954-12.072-14.725-12.072zm-12.529 72.271c-7.888-8.046-11.783-20.768-12.912-31.723a40.612 40.612 0 0 1-.204-3.172c-.163-6.704 6.118-28.157 15.769-28.159.328 0 .656.025.991.075 5.874.891 5.5 10.603 5.222 14.864-1.008 15.46-3.155 33.648-8.866 48.115zm178.052 130.765c13.62-38.063 25.856-74.347 39.595-112.366 5.93-16.406 12.361-32.847 20.984-48.05 2.658-4.687 5.43-13.114 11.149-15.11.973-.34 1.836-.493 2.6-.493 5.573-.001 5.922 8.191 5.215 12.659-1.191 7.522-2.888 15.452-5.108 22.734-3.782 12.4-9.053 24.552-14.227 36.431-5.743 13.191-11.762 27.02-19.186 39.35-.277.461-.55.922-.825 1.384-2.346 3.943-4.618 7.928-6.871 11.925-2.276 4.037-4.514 8.095-6.797 12.129-2.285 4.038-4.573 8.075-6.968 12.05-2.385 3.957-4.809 7.887-7.403 11.712-2.414 3.56-4.811 7.137-7.554 10.455-1.486 1.8-3.204 3.328-4.604 5.19zm399.797-116.439c2.852-4.727 5.859-9.369 9.141-13.859 6.245-8.545 17.789-24.79 28.629-27.585a8.786 8.786 0 0 1 2.206-.288c4.015 0 7.207 2.979 7.452 7.808.28 5.536-6.205 15.436-9.587 19.548-4.765 5.794-11.231 9.335-18.36 11.414-6.246 1.822-12.818 2.726-19.481 2.962zM335.93 342.715c-8.344-.964-12.12-9.759-7.097-18.681 3.858-6.851 11.429-9.87 18.864-12.172-3.764 10.318-7.62 20.647-11.767 30.853zm273.834-6.64c-2.061 0-5.905-1.921-6.609-3.595a221.625 221.625 0 0 1-2.164-5.365c2.104-1.628 4.286-2.892 6.527-3.508a9.06 9.06 0 0 1 2.389-.341c4.086-.001 6.404 3.308 4.882 7.634-.735 2.092-2.184 4.723-4.586 5.14-.134.024-.28.035-.439.035zm180.859 106.769c-6.287 0-11.967-1.948-18.089-6.103 4.318-4.315 8.359-8.872 12.872-12.996 5.967-5.453 23.319-20.816 35.036-20.816.281 0 .559.009.833.027 3.843.252 7.003 2.307 8.835 7.124 2.286 6.016-.751 13.083-4.876 17.503-5.905 6.329-15.694 11.374-23.926 13.651-3.836 1.06-7.346 1.61-10.685 1.61zm-456.402 42.842c.25 0 3.71-.34 4.188-.375 2.084-.154 4.167-.304 6.251-.457 9.601-.707 19.225-1.075 28.849-1.256 2.112-.04 4.216-.055 6.32-.063-4.068 6.724-8.414 13.279-13.111 19.602-12.739 17.153-29.407 35.544-49.137 44.605-5.362 2.463-11.211 4.277-17.108 4.277-2.041 0-4.087-.218-6.122-.701-5.138-1.219-16.221-6.341-18.567-11.483-4.698-10.302-.294-22.877 5.97-31.427 9.165-12.511 26.865-17.89 41.303-20.916 3.682-.772 7.413-1.345 11.15-1.807l.014.001z"/></g><path fill="#36B29A" d="M275.016 204.123c3.28.161 6.346 2.959 7.525 6.918 1.262 4.234.874 9.207.464 14.473-.184 2.363-.375 4.805-.422 7.27-.238 12.423-2.184 26.014-5.787 40.397a202.815 202.815 0 0 1-1.647 6.125l-.648 2.29-.463 1.539c-2.395 7.955-5.319 16.291-9.482 27.032l-.189.485c-2.357 6.081-22.462 63.711-29.672 60.104-4.065-2.038 1.5-9.715 2.55-11.558 3.082-5.408 4.912-11.372 7.352-17.078 4.939-11.549 9.169-23.395 13.457-35.201 3.68-10.131 6.753-20.249 9.4-30.93l.354-1.431 1.077-2.727c4.965-12.575 7.937-28.555 9.354-50.29.177-2.712.325-6.756-.425-10.559-.582-2.953-1.597-5.18-2.798-6.859m223.561 24.003c-.922 1.636-1.716 3.264-2.435 4.741-.573 1.174-1.113 2.285-1.584 3.116-9.028 15.919-15.666 33.033-21.492 49.155-5.513 15.253-10.777 30.587-16.175 45.879-2.167 6.137-4.389 12.457-7.718 18.08-.328.553-6.243 9.01-7.867 5.981-2.659-4.958 3.089-12.446 4.924-16.793 3.564-8.448 6.306-17.31 9.324-25.964 2.568-7.364 5.222-14.979 7.952-22.404l.306-.832c6.544-17.804 13.311-36.214 23.948-51.211 2.484-3.502 6.474-7.156 10.817-9.748m366.268 12.863c-8.452 6.559-15.828 16.671-20.834 23.532l-.646.885c-3.131 4.283-6.236 8.989-9.493 14.387 0 0-.794 1.317-.827 1.317l-.717 1.243-5.326 8.827.325-.012c-1.861 3.364-3.677 6.732-5.457 10.032-2.947 5.466-5.995 11.118-9.136 16.546l-1.547 2.673c-6.095 10.528-12.398 21.416-18.306 32.299-3.866 7.123-7.812 14.252-11.324 21.559-2.147 4.464-4.193 12.79-10.247 13.658-5.304.759 1.491-9.118 1.872-9.797 2.558-4.567 4.526-9.412 7.136-13.977 5.98-10.457 11.665-21.06 17.832-31.418 8.64-14.511 17.719-29.204 25.549-41.837l4.005-6.462.802-1.293c3.395-5.47 6.787-10.938 10.168-16.407 2.341-3.788 7.376-11.136 14.798-17.809 3.05-2.74 6.982-5.772 11.373-7.946M380.542 244c-.497 10.872-3.273 21.96-5.973 32.74l-.084.339c-1.426 5.697-3.182 11.631-5.367 18.142 0 0-1.14 3.397-1.146 3.4l-1.232 3.43a512.13 512.13 0 0 1-4.494 12.013l-.186.482c-1.939 5.005-4.055 10.412-6.813 15.033-1.025 1.717-4.134 7.665-6.873 7.155-2.583-.482-1.617-3.146-.811-5.091 2.385-5.759 4.759-11.445 6.899-17.312l4.976-13.642-.253.079a298.107 298.107 0 0 0 6.885-24.581c2.236-9.544 4.728-20.177 5.014-31.428 2.6-.338 6.105-.646 9.458-.759m-226.079 68.523c-8.231 10.422-16.355 24.636-23.159 44.027-1.497 4.267-5.398 26.352-12.932 23.947-9.226-2.949 8.89-32.7 11.191-36.676 7.482-12.928 15.739-23.323 24.9-31.298m388.744 8.353c-4.853 7.57-8.604 15.677-12.274 23.605-2.754 5.954-7.165 20.802-14.467 22.553-5.127 1.229-3.84-4.175-2.618-6.641 2.605-5.262 5.606-10.365 8.235-15.633 1.806-3.619 3.621-7.257 5.474-10.911 4.879-9.634 7.237-11.715 15.65-12.973m-130.018 2.737c-3.798 7.035-6.67 14.43-9.483 21.673-1.454 3.745-7.869 27.002-14.944 23.394-3.769-1.924 6.599-19.614 7.711-22.247 1.46-3.456 2.929-6.932 4.43-10.424 3.674-8.548 5.673-10.809 12.286-12.396m254.693.055c-1.575 2.373-3.007 4.786-4.418 7.161a224.417 224.417 0 0 1-2.738 4.532c-4.578 7.317-8.728 14.92-12.741 22.274-2.331 4.273-7.784 20.738-15.227 17.467-.714-3.652 5.19-10.281 6.916-13.422 7.103-12.922 14.445-26.28 23.604-37.433.954-.311 2.924-.477 4.604-.579m42.832 2.949c-7.145 7.87-12.915 15.547-17.562 23.357-3.495 5.874-6.608 11.95-9.65 18.066-1.775 3.57-4.112 11.452-8.831 12.297-6.8 1.216 5.559-17.793 5.919-18.394 6.108-10.214 12.703-19.772 21.231-28.166a57.451 57.451 0 0 1 8.893-7.16m-124.156 4.919a305.422 305.422 0 0 0-2.77 3.375c-1.206 1.485-2.346 2.887-3.355 4.041-2.435 2.782-24.003 33.105-27.416 30.207-2.507-2.129 10.55-14.229 12.06-15.993 4.811-5.624 12.689-14.83 21.481-21.63M274.044 506.939c-6.258 9.851-10.378 23.675-4.811 35.884.359.785.799 1.541 1.31 2.271-4.13-2.481-7.607-5.742-9.745-9.312-2.334-3.895-2.967-8.003-1.88-12.207 1.418-5.481 5.856-10.596 13.566-15.64a97.197 97.197 0 0 1 1.56-.996m174.242 80.212a49.163 49.163 0 0 0-1.846 1.93c-10.561 11.672-16.614 27.664-15.796 41.735.34 5.825 1.853 10.852 4.24 15.118-9.449-7.868-12.101-19.494-11.117-28.902 1.163-11.139 8.298-25.392 24.519-29.881"/><text transform="translate(371.672 880)" font-family="'MuseoSans-300'" font-size="42">theartificial.nl</text></svg>