<?xml version="1.0" encoding="utf-8"?>
<!-- Generator: Adobe Illustrator 18.0.0, SVG Export Plug-In . SVG Version: 6.00 Build 0)  -->
<!DOCTYPE svg PUBLIC "-//W3C//DTD SVG 1.1//EN" "http://www.w3.org/Graphics/SVG/1.1/DTD/svg11.dtd">
<svg version="1.1" id="Layer_1" xmlns="http://www.w3.org/2000/svg" xmlns:xlink="http://www.w3.org/1999/xlink" x="0px" y="0px"
	 viewBox="-48.9 0 660.9 792" enable-background="new -48.9 0 660.9 792" xml:space="preserve">
<rect x="97.1" y="157.9" opacity="0.5" fill="#FFFF00" enable-background="new    " width="512.9" height="515.1"/>
<g enable-background="new    ">
	<path d="M245.1,774.6c-8.4,0-12.8-5.4-12.8-13.8c0-8.4,4.6-15,13.4-15c2.2,0,4.6,0.3,6.8,0.8v6.8h-2.7c-0.3-1.5-0.5-2.7-0.5-3.8
		c-1.5-0.5-2.7-0.5-4.1-0.5c-6,0-8.8,4.9-8.8,11.1c0,6.8,3.1,10.9,9.5,10.9c2.2,0,4.9-0.5,6.5-1.5l0.8,3.1
		C250.7,773.8,248,774.6,245.1,774.6z"/>
	<path d="M264.5,774.6c-5.5,0-9.2-3.1-9.2-10.4c0-6.3,3.8-10.9,10.1-10.9c5.4,0,9.2,2.8,9.2,10.4
		C274.5,769.7,270.9,774.6,264.5,774.6z M265,756.2c-3.1,0-5.8,2.2-5.8,7.4c0,4.9,1.9,7.4,5.8,7.4c3.1,0,5.8-2.4,5.8-7.4
		C270.6,759.1,268.7,756.2,265,756.2z"/>
	<path d="M306.6,774.1v-13.3c0-2.8-0.8-4.6-3.4-4.6c-2.8,0-5.8,3.1-5.8,8.2v6.9c1.2,0,2.4,0.3,3.4,0.5v2.2h-6.9v-13.3
		c0-2.7-0.5-4.6-3.4-4.6c-3.1,0-5.8,3.4-5.8,8.2v6.9c1.2,0,2.4,0.3,3.4,0.5v2.2h-10.6v-2.2c0.9-0.3,2.4-0.5,3.6-0.5v-15
		c-0.9-0.3-2.4-0.3-3.6-0.5v-2.2c2.2-0.3,5-0.5,7.3-0.3c0,1.2-0.3,3.1-0.3,4.3l0,0c1.2-2.8,3.8-4.9,6.9-4.9c4.3,0,5.5,2.8,5.8,4.6
		c0.8-1.9,3.1-4.6,6.9-4.6s6,2.2,6,6.8v11.4c1.2,0,2.4,0.3,3.4,0.5v2.2L306.6,774.1L306.6,774.1z"/>
	<path d="M325.6,774.3c-1.2,0-2.2,0-3.6-0.3v7.4c1.2,0,2.4,0.3,3.6,0.5v2.2h-10.9v-2.2c0.9-0.3,2.2-0.5,3.4-0.5v-25.2
		c-0.9-0.3-2.2-0.3-3.4-0.5v-2.2c1.9-0.3,4.9-0.5,6.9-0.3c0,1.2-0.3,3.1-0.3,4.1l0,0c1.2-2.8,3.6-4.6,6.8-4.6c4.9,0,7.4,3.4,7.4,9.6
		C336.2,770.2,332.4,774.3,325.6,774.3z M327.8,756.2c-3.6,0-5.5,4.3-5.5,7.9v6.8c1.2,0.3,2.2,0.5,3.6,0.5c3.8,0,6.5-2.4,6.5-8.2
		C332.4,758.9,331,756.2,327.8,756.2z"/>
	<path d="M355.3,774.1c0-1.2,0-3.1,0.3-4.3l0,0c-1.2,2.8-3.6,4.9-7.3,4.9c-4.9,0-6.3-2.8-6.3-6.5v-11.4c-0.9-0.3-2.4-0.3-3.4-0.5
		v-2.2c1.9-0.3,4.9-0.5,7.3-0.3v13.3c0,2.8,0.8,4.6,3.6,4.6c3.4,0,5.8-3.4,5.8-7.9v-6.9c-0.9-0.3-2.2-0.3-3.4-0.5v-2.2
		c1.9-0.3,4.9-0.5,6.9-0.3v17.6c0.9,0.3,2.4,0.3,3.4,0.5v2.2C360.4,774.1,357.5,774.3,355.3,774.1z"/>
	<path d="M372.7,774.6c-4.1,0-5.5-1.8-5.5-6.3v-11.9h-4.1v-2.8h4.1v-6.8l3.6-0.9v7.7h5.8v2.8h-5.8V767c0,3.4,0.8,4.3,2.8,4.3
		c0.9,0,1.9-0.3,2.7-0.3l0.5,3.1C375.5,774.3,373.9,774.6,372.7,774.6z"/>
	<path d="M397.1,763.7h-13.4c-0.3,5.4,1.9,7.7,6.5,7.7c1.9,0,4.1-0.5,5.8-1.2l0.5,2.8c-2.2,0.8-4.6,1.2-7.3,1.2
		c-6.3,0-9.6-3.4-9.6-10.6c0-6,3.4-10.9,9.2-10.9s8.2,3.8,8.2,8.4C397.4,762.1,397.4,763,397.1,763.7z M388.8,756
		c-2.7,0-4.6,1.9-5,5h9.6C393.4,758,391.7,756,388.8,756z"/>
	<path d="M414.4,757c-4.9-0.8-6.8,2.4-6.8,8.8v5.5c1.2,0,2.4,0.3,3.6,0.5v2.2h-10.9v-2.2c0.9-0.3,2.4-0.5,3.6-0.5v-15
		c-0.9-0.3-2.4-0.3-3.6-0.5v-2.2c2.2-0.3,4.9-0.5,7.3-0.3c0,1.2-0.3,3.1-0.5,4.9l0,0c0.9-2.8,2.8-5.8,7.4-5.4L414.4,757z"/>
</g>
<g>
	<rect x="97.1" y="160" fill="none" stroke="#999999" stroke-width="1.3" width="512.9" height="512.9"/>
	<line fill="none" stroke="#999999" stroke-width="1.3" x1="97.1" y1="587.5" x2="609.9" y2="587.5"/>
	<line fill="none" stroke="#999999" stroke-width="1.3" x1="97.1" y1="501.7" x2="609.9" y2="501.7"/>
	<line fill="none" stroke="#999999" stroke-width="1.3" x1="97.1" y1="416.5" x2="609.9" y2="416.5"/>
	<line fill="none" stroke="#999999" stroke-width="1.3" x1="97.1" y1="331" x2="609.9" y2="331"/>
	<line fill="none" stroke="#999999" stroke-width="1.3" x1="97.1" y1="245.5" x2="609.9" y2="245.5"/>
	<line fill="none" stroke="#999999" stroke-width="1.3" x1="524.5" y1="160" x2="524.5" y2="673.1"/>
	<line fill="none" stroke="#999999" stroke-width="1.3" x1="439.1" y1="160" x2="439.1" y2="673.1"/>
	<line fill="none" stroke="#999999" stroke-width="1.3" x1="353.4" y1="160" x2="353.4" y2="673.1"/>
	<line fill="none" stroke="#999999" stroke-width="1.3" x1="267.7" y1="160" x2="267.7" y2="673.1"/>
	<line fill="none" stroke="#999999" stroke-width="1.3" x1="182.5" y1="160" x2="182.5" y2="673.1"/>
</g>
<g enable-background="new    ">
	<path d="M107.2,36.8l-4.6-7.7L98,36.8h-6.3v-2.4c1.2-0.3,2.4-0.5,3.6-0.5l5-7.4l-4.9-7.4c-1.2,0-2.4-0.3-3.4-0.5v-2.2h6.3l4.3,7.4
		l4.6-7.4h6v2.2c-1.2,0.3-2.4,0.5-3.6,0.5l-4.6,7.3l5,7.7c1.2,0,2.2,0.3,3.4,0.5v2.2H107.2L107.2,36.8L107.2,36.8z"/>
</g>
<g enable-background="new    ">
	<path d="M-19.4,148.5l-7.3,20.1c-2.2,6.3-4.3,8.4-8.8,8.4c-0.8,0-1.9,0-2.8-0.3l0.3-3.4c0.9,0.3,1.8,0.5,2.7,0.5c2.2,0,3.6-1.2,5-5
		l0.9-2.4h-0.9l-6.3-17.9c-0.9,0-1.9-0.3-2.7-0.5v-2.2h9.5v2.2c-0.8,0.3-1.8,0.5-2.7,0.5l3.1,8.8c0.8,1.9,1.2,3.4,1.8,5l0,0
		c0.3-1.5,1.2-3.8,1.9-6l2.7-7.9c-0.9,0-1.9-0.3-2.7-0.5v-2.2h9.2v2.2C-17.5,148.3-18.4,148.3-19.4,148.5z"/>
</g>
<g enable-background="new    ">
	<path d="M104.4,107.7c-5.5,0-10.1-3.1-10.1-12.8c0-8.2,5-12.8,10.9-12.8c5.4,0,10.1,3.1,10.1,12.5
		C115.3,103.1,110.4,107.7,104.4,107.7z M104.8,85.1c-3.4,0-6.5,2.8-6.5,9.6c0,6.9,2.7,10,6.5,10c3.4,0,6.5-2.8,6.5-9.5
		C111.3,88.2,108.8,85.1,104.8,85.1z"/>
</g>
<g enable-background="new    ">
	<path d="M179.5,107.2v-3.4h7.4V86.5l-7.3,4.6l-1.2-3.1l9.2-5.5h3.1V104h6.5v3.4L179.5,107.2L179.5,107.2z"/>
</g>
<g enable-background="new    ">
	<path d="M261.4,107.2v-3.1l6-5.4c5.4-4.3,6.5-6.3,6.5-8.8c0-2.6-1.8-4.6-5-4.6c-2.4,0-4.6,1.2-6,2.2l-0.7-3.4
		c2.2-1.2,4.6-2.2,7.4-2.2c5.5,0,8.4,3.1,8.4,7.4c0,3.6-1.9,6.3-6.5,10.1l-5,4.3h-0.3c1.9-0.3,6.5-0.3,12.5-0.3v3.6L261.4,107.2
		L261.4,107.2L261.4,107.2z"/>
</g>
<g enable-background="new    ">
	<path d="M349.8,111.1c-1.8,0-3.6-0.3-5-0.8l0.8-3.4c1.5,0.5,3.1,0.8,5,0.8c4.3,0,7.3-2.4,7.3-5.5s-2.4-5-6.8-5
		c-1.5,0-2.4,0-3.6,0.3v-3.1h0.9c6,0,8.8-1.8,8.8-5c0-2.7-1.9-4.1-5-4.1c-2.2,0-4.1,0.8-5.8,1.8l-0.8-3.1c2.2-0.9,4.3-1.5,7.3-1.5
		c5.5,0,8.2,2.7,8.2,6.5c0,3.1-1.9,5.5-5,6.5l0,0c3.4,0.5,6,3.4,6,6.8C361.6,107.2,356.7,111.1,349.8,111.1z"/>
</g>
<g enable-background="new    ">
	<path d="M441.6,103.5v6.9H438v-6.9h-12.8l-0.3-3.1l11.5-18.3h5.4V100h4.9v3.4h-5v0.1H441.6z M438,85.6L438,85.6l-9.5,14.7
		c2.4,0,7.7,0,9.5,0V85.6z"/>
</g>
<g enable-background="new    ">
	<path d="M515,111.1c-1.2,0-3.1-0.3-4.6-0.5l0.3-3.4c1.5,0.5,3.4,0.5,4.6,0.5c5,0,7.7-2.8,7.7-6.3c0-3.6-2.8-5.4-7.4-5.4
		c-1.8,0-3.1,0.3-4.3,0.3V82.1h14.5v3.6h-11.1V93c0.8,0,1.5,0,1.9,0c6.8,0,10.4,3.6,10.4,7.9C527.3,106.7,522.3,111.1,515,111.1z"/>
</g>
<g enable-background="new    ">
	<path d="M601.7,107.7c-5.8,0-9.5-4.3-9.5-11.9c0-11.9,5.8-16.9,13.8-16.9c0.8,0,1.9,0,2.4,0.3v3.4c-0.9-0.3-1.8-0.3-2.7-0.3
		c-5.4,0-8.2,3.1-9.5,8.8c-0.3,0.5-0.3,1.2-0.5,2.2l0,0c1.5-2.4,3.8-3.6,6.5-3.6c5.5,0,8.4,3.6,8.4,8.2
		C611.2,103.5,607.2,107.7,601.7,107.7z M601.7,92.8c-3.4,0-5.4,2.8-5.4,5.4c0,3.4,1.9,6.3,5.5,6.3c3.4,0,5.4-2.4,5.4-6
		C607.2,94.8,605.3,92.8,601.7,92.8z"/>
</g>
<circle cx="97.1" cy="160" r="13.3"/>
<g enable-background="new    ">
	<path d="M40.2,178.8c-5.5,0-10.1-3.1-10.1-12.8c0-8.2,5-12.8,10.9-12.8c5.4,0,10.1,3.1,10.1,12.5C51.1,174.2,46,178.8,40.2,178.8z
		 M40.5,156.6c-3.4,0-6.5,2.8-6.5,9.6c0,6.9,2.7,10,6.5,10c3.4,0,6.5-2.8,6.5-9.5C47,159.4,44.3,156.6,40.5,156.6z"/>
</g>
<g enable-background="new    ">
	<path d="M32.3,261.4V258h7.4v-17.4l-7.3,4.6l-1.2-3.1l9.2-5.5h3.1v21.5H50v3.4L32.3,261.4L32.3,261.4z"/>
</g>
<g enable-background="new    ">
	<path d="M31.5,344.2v-3.1l6-5.4c5.4-4.3,6.5-6.3,6.5-8.8c0-2.7-1.8-4.6-5-4.6c-2.4,0-4.6,1.2-6,2.2l-0.8-3.4
		c2.2-1.2,4.6-2.2,7.4-2.2c5.5,0,8.4,3.1,8.4,7.4c0,3.6-1.9,6.3-6.5,10.1l-5,4.3h-0.3c1.9-0.3,6.5-0.3,12.5-0.3v3.6L31.5,344.2
		L31.5,344.2L31.5,344.2z"/>
</g>
<g enable-background="new    ">
	<path d="M37,430.8c-1.8,0-3.6-0.3-5-0.8l0.8-3.4c1.5,0.5,3.1,0.8,5,0.8c4.3,0,7.3-2.4,7.3-5.5s-2.4-5-6.8-5c-1.5,0-2.4,0-3.6,0.3
		v-3.1h0.9c6,0,8.8-1.8,8.8-5c0-2.7-1.9-4.1-5-4.1c-2.2,0-4.1,0.8-5.8,1.8l-0.8-3.1c2.2-0.9,4.3-1.5,7.3-1.5c5.5,0,8.2,2.7,8.2,6.5
		c0,3.1-1.9,5.5-5,6.5l0,0c3.4,0.5,6,3.4,6,6.8C48.7,426.9,43.9,430.8,37,430.8z"/>
</g>
<g enable-background="new    ">
	<path d="M46.2,506.1v6.9h-3.6v-6.9H29.8l-0.3-3.1L41,484.7h5.4v17.9h4.9v3.4L46.2,506.1L46.2,506.1z M42.5,488.2L42.5,488.2
		L33,502.9c2.4,0,7.7,0,9.5,0V488.2z"/>
</g>
<g enable-background="new    ">
	<path d="M36.9,596.2c-1.2,0-3.1-0.3-4.6-0.5l0.3-3.4c1.5,0.5,3.4,0.5,4.6,0.5c5,0,7.7-2.8,7.7-6.3c0-3.6-2.8-5.4-7.4-5.4
		c-1.8,0-3.1,0.3-4.3,0.3v-14.1h14.5v3.6H36.6v7.3c0.8,0,1.5,0,1.9,0c6.8,0,10.4,3.6,10.4,7.9C48.9,592,44.2,596.2,36.9,596.2z"/>
</g>
<g enable-background="new    ">
	<path d="M40.5,675.6c-5.8,0-9.5-4.3-9.5-11.9c0-11.9,5.8-16.9,13.8-16.9c0.8,0,1.9,0,2.4,0.3v3.4c-0.9-0.3-1.8-0.3-2.7-0.3
		c-5.4,0-8.2,3.1-9.5,8.8c-0.3,0.5-0.3,1.2-0.5,2.2l0,0c1.5-2.4,3.8-3.6,6.5-3.6c5.5,0,8.7,3.6,8.7,8.2
		C49.8,671.8,46,675.6,40.5,675.6z M40.6,660.8c-3.4,0-5.4,2.8-5.4,5.4c0,3.4,1.9,6.3,5.5,6.3c3.4,0,5.4-2.4,5.4-6
		C46,663.1,44.2,660.8,40.6,660.8z"/>
</g>
<line fill="none" stroke="#000000" stroke-width="1.3" x1="99" y1="160" x2="82.9" y2="160"/>
<line fill="none" stroke="#000000" stroke-width="1.3" x1="99" y1="246" x2="82.9" y2="246"/>
<line fill="none" stroke="#000000" stroke-width="1.3" x1="99" y1="331" x2="82.9" y2="331"/>
<line fill="none" stroke="#000000" stroke-width="1.3" x1="99" y1="416.3" x2="82.9" y2="416.3"/>
<line fill="none" stroke="#000000" stroke-width="1.3" x1="99" y1="502.2" x2="82.9" y2="502.2"/>
<line fill="none" stroke="#000000" stroke-width="1.3" x1="99" y1="588.5" x2="82.9" y2="588.5"/>
<line fill="none" stroke="#000000" stroke-width="1.3" x1="99" y1="672.3" x2="82.9" y2="672.3"/>
<line fill="none" stroke="#000000" stroke-width="1.3" x1="609" y1="159.8" x2="609" y2="143.7"/>
<line fill="none" stroke="#000000" stroke-width="1.3" x1="523.3" y1="159.8" x2="523.3" y2="143.7"/>
<line fill="none" stroke="#000000" stroke-width="1.3" x1="438" y1="159.8" x2="438" y2="143.7"/>
<line fill="none" stroke="#000000" stroke-width="1.3" x1="352.9" y1="159.8" x2="352.9" y2="143.7"/>
<line fill="none" stroke="#000000" stroke-width="1.3" x1="267.2" y1="159.8" x2="267.2" y2="143.7"/>
<line fill="none" stroke="#000000" stroke-width="1.3" x1="180.4" y1="159.8" x2="180.4" y2="143.7"/>
<line fill="none" stroke="#000000" stroke-width="1.3" x1="97.1" y1="159.8" x2="97.1" y2="143.7"/>
<polyline fill="#FFFFFF" stroke="#000000" stroke-width="1.3" points="-18.4,316.8 -28.6,326.8 -38.7,316.8 "/>
<line fill="none" stroke="#000000" stroke-width="1.3" x1="-28.6" y1="326.8" x2="-28.6" y2="206.8"/>
<polyline fill="#FFFFFF" stroke="#000000" stroke-width="1.3" points="253.9,14.1 263.9,24.2 253.9,34.3 "/>
<line fill="none" stroke="#000000" stroke-width="1.3" x1="266.3" y1="24.2" x2="146.4" y2="24.2"/>
<g id="Layer_2">
</g>
</svg>
