<?xml version="1.0" encoding="utf-8"?>
<!-- Generator: Adobe Illustrator 18.0.0, SVG Export Plug-In . SVG Version: 6.00 Build 0)  -->
<!DOCTYPE svg PUBLIC "-//W3C//DTD SVG 1.1//EN" "http://www.w3.org/Graphics/SVG/1.1/DTD/svg11.dtd">
<svg version="1.1" id="Layer_1" xmlns="http://www.w3.org/2000/svg" xmlns:xlink="http://www.w3.org/1999/xlink" x="0px" y="0px"
	 viewBox="14 0 576.2 792" enable-background="new 14 0 576.2 792" xml:space="preserve">
<g>
	<rect x="136.5" y="135.3" fill="none" stroke="#999999" stroke-width="1.3" width="434.3" height="434.3"/>
	<line fill="none" stroke="#999999" stroke-width="1.3" x1="136.5" y1="497.3" x2="570.8" y2="497.3"/>
	<line fill="none" stroke="#999999" stroke-width="1.3" x1="136.5" y1="424.8" x2="570.8" y2="424.8"/>
	<line fill="none" stroke="#999999" stroke-width="1.3" x1="136.5" y1="352.4" x2="570.8" y2="352.4"/>
	<line fill="none" stroke="#999999" stroke-width="1.3" x1="136.5" y1="280.2" x2="570.8" y2="280.2"/>
	<line fill="none" stroke="#999999" stroke-width="1.3" x1="136.5" y1="207.6" x2="570.8" y2="207.6"/>
	<line fill="none" stroke="#999999" stroke-width="1.3" x1="498.3" y1="135.3" x2="498.3" y2="569.6"/>
	<line fill="none" stroke="#999999" stroke-width="1.3" x1="426.2" y1="135.3" x2="426.2" y2="569.6"/>
	<line fill="none" stroke="#999999" stroke-width="1.3" x1="353.5" y1="135.3" x2="353.5" y2="569.6"/>
	<line fill="none" stroke="#999999" stroke-width="1.3" x1="281.2" y1="135.3" x2="281.2" y2="569.6"/>
	<line fill="none" stroke="#999999" stroke-width="1.3" x1="208.9" y1="135.3" x2="208.9" y2="569.6"/>
</g>
<g>
	<path d="M145.1,30.7l-3.9-6.4l-3.9,6.4H132v-2c1-0.2,2-0.5,2.9-0.5l4.2-6.3l-4.1-6.3c-1,0-1.9-0.3-2.9-0.5v-1.9h5.4l3.7,6.3
		l3.7-6.3h5.1v1.9c-1,0.2-2,0.5-2.9,0.5l-3.9,6.1l4.2,6.4c1,0,1.9,0.3,2.9,0.5v1.9h-5.4V30.7z"/>
</g>
<g>
	<path d="M37.8,125.3l-6.1,17c-1.9,5.4-3.7,7.1-7.6,7.1c-0.7,0-1.7,0-2.4-0.2l0.3-2.9c0.8,0.3,1.5,0.3,2.2,0.3c1.9,0,2.9-1,4.2-4.4
		l0.8-1.9h-0.8l-5.4-15.1c-0.8,0-1.7-0.2-2.2-0.5v-1.9h8v1.9c-0.7,0.2-1.5,0.3-2.2,0.5l2.5,7.5c0.5,1.7,1,2.9,1.4,4.4l0,0
		c0.3-1.2,1-3.2,1.7-5.3l2.2-6.6c-0.8,0-1.7-0.2-2.2-0.5v-1.9h8.1v1.9C39.5,125.1,38.7,125.3,37.8,125.3z"/>
</g>
<g>
	<path d="M142.9,90.8c-4.8,0-8.7-2.7-8.7-10.9c0-7,4.2-10.9,9.3-10.9c4.6,0,8.7,2.5,8.7,10.7C151.9,86.9,147.8,90.8,142.9,90.8z
		 M143.1,71.6c-2.9,0-5.6,2.5-5.6,8.1c0,5.8,2.2,8.3,5.6,8.3c2.9,0,5.6-2.4,5.6-8.1C148.5,74.2,146.5,71.6,143.1,71.6z"/>
	<path d="M206.4,90.5v-2.9h6.4V72.8l-5.9,3.9l-1.2-2.7l7.8-4.8h2.7v18.3h5.6v2.9H206.4z"/>
	<path d="M275.6,90.5v-2.5l5.1-4.6c4.4-3.7,5.6-5.3,5.6-7.6c0-2.2-1.4-3.9-4.4-3.9c-2,0-3.9,1-5.1,1.9l-0.7-2.7
		c1.9-1.2,3.9-1.9,6.4-1.9c4.8,0,7.1,2.5,7.1,6.1c0,2.9-1.7,5.3-5.4,8.7l-4.2,3.6h-0.2c1.7-0.2,5.6-0.2,10.7-0.2v3.1L275.6,90.5
		L275.6,90.5z"/>
	<path d="M350.5,93.7c-1.5,0-3.1-0.2-4.4-0.5l0.5-2.9c1.2,0.5,2.7,0.7,4.2,0.7c3.7,0,6.1-2,6.1-4.8s-2-4.4-5.8-4.4
		c-1.2,0-2,0-3.1,0.2v-2.5h0.8c5.1,0,7.5-1.5,7.5-4.4c0-2.2-1.9-3.4-4.2-3.4c-1.9,0-3.6,0.5-5.1,1.4l-0.5-2.7
		c1.9-0.8,3.7-1.4,5.9-1.4c4.8,0,7,2.2,7,5.6c0,2.7-1.9,4.8-4.2,5.6l0,0c2.9,0.3,5.1,2.7,5.1,5.6C360.5,90.5,356.2,93.7,350.5,93.7z
		"/>
	<path d="M428.4,87.6v5.8h-3.1v-5.8h-10.7l-0.3-2.5l9.7-15.6h4.4v15.3h4.1v2.9H428.4z M425.3,72.3L425.3,72.3l-8,12.4c2,0,6.4,0,8,0
		V72.3z"/>
	<path d="M490.5,93.7c-1.2,0-2.5-0.2-3.9-0.3l0.3-2.7c1.2,0.3,2.7,0.5,3.9,0.5c4.2,0,6.4-2.4,6.4-5.3c0-2.9-2.4-4.6-6.3-4.6
		c-1.5,0-2.7,0.2-3.6,0.3v-12h12.4v3.1h-9.3v6.1c0.7,0,1.4,0,1.9,0c5.8,0,8.8,2.9,8.8,6.6C500.8,90,496.8,93.7,490.5,93.7z"/>
	<path d="M563.6,90.8c-4.9,0-8-3.7-8-10c0-10,5.1-14.3,11.7-14.3c0.7,0,1.7,0,2,0.2v2.7c-0.8-0.2-1.5-0.2-2.2-0.2
		c-4.6,0-7,2.5-8,7.5c-0.2,0.3-0.2,1-0.3,1.9l0,0c1.2-1.9,3.2-3.1,5.6-3.1c4.8,0,7.3,3.1,7.3,6.8C571.6,87.6,568.6,90.8,563.6,90.8z
		 M563.8,78.1c-2.9,0-4.6,2.5-4.6,4.6c0,2.9,1.7,5.4,4.8,5.4c2.7,0,4.6-2,4.6-5.3C568.6,80.1,567,78.1,563.8,78.1z"/>
</g>
<circle fill="#808080" cx="355" cy="356.1" r="11.4"/>
<g>
	<path d="M88.4,151.1c-4.8,0-8.7-2.7-8.7-10.9c0-7,4.2-10.9,9.3-10.9c4.6,0,8.7,2.5,8.7,10.7C97.4,147.3,93.2,151.1,88.4,151.1z
		 M88.6,132.1c-2.9,0-5.6,2.5-5.6,8.1c0,5.8,2.2,8.3,5.6,8.3c2.9,0,5.6-2.4,5.6-8.1C94,134.6,92,132.1,88.6,132.1z"/>
	<path d="M81.6,221v-2.9h6.4v-14.8l-5.9,3.9l-1.2-2.7l7.8-4.8h2.7v18.3h5.6v2.9L81.6,221L81.6,221z"/>
	<path d="M81,291.1v-2.7l5.1-4.6c4.4-3.7,5.6-5.3,5.6-7.6c0-2.2-1.4-3.9-4.4-3.9c-2,0-3.9,1-5.1,1.9l-0.7-2.7
		c1.9-1.2,3.9-1.9,6.4-1.9c4.8,0,7.1,2.5,7.1,6.1c0,2.9-1.7,5.3-5.4,8.7l-4.2,3.6h-0.2c1.7-0.2,5.6-0.2,10.7-0.2v3.1L81,291.1
		L81,291.1z"/>
	<path d="M85.5,364.4c-1.5,0-3.1-0.2-4.4-0.5l0.5-2.9c1.2,0.5,2.7,0.7,4.2,0.7c3.7,0,6.1-2,6.1-4.8c0-2.5-2-4.4-5.8-4.4
		c-1.2,0-2,0-3.1,0.2v-2.5H84c5.1,0,7.5-1.5,7.5-4.4c0-2.2-1.9-3.4-4.2-3.4c-1.9,0-3.6,0.5-5.1,1.4l-0.5-2.7
		c1.9-0.8,3.7-1.4,5.9-1.4c4.8,0,7,2.2,7,5.6c0,2.7-1.9,4.8-4.2,5.6l0,0c2.9,0.3,5.1,2.7,5.1,5.6C95.7,361.2,91.5,364.4,85.5,364.4z
		"/>
	<path d="M93.3,428.4v5.8h-3.1v-5.8H79.6l-0.3-2.5l9.7-15.4h4.4v15.3h4.1v2.9L93.3,428.4L93.3,428.4z M90.3,413.1L90.3,413.1
		l-8,12.4c2,0,6.4,0,8,0V413.1z"/>
	<path d="M85.4,504.6c-1.2,0-2.5-0.2-3.9-0.3l0.3-2.7c1.2,0.3,2.7,0.5,3.9,0.5c4.2,0,6.4-2.4,6.4-5.3c0-2.9-2.4-4.6-6.3-4.6
		c-1.5,0-2.7,0.2-3.6,0.3v-12h12.4v3.1h-9.3v6.1c0.7,0,1.4,0,1.9,0c5.8,0,8.8,2.9,8.8,6.6C95.9,500.9,91.6,504.6,85.4,504.6z"/>
	<path d="M88.6,571.8c-4.9,0-8-3.7-8-10c0-10,5.1-14.3,11.7-14.3c0.7,0,1.7,0,2,0.2v2.7c-0.8-0.2-1.5-0.2-2.2-0.2
		c-4.6,0-7,2.5-8,7.5c-0.2,0.3-0.2,1-0.3,1.9l0,0c1.2-1.9,3.2-3.1,5.6-3.1c4.8,0,7.3,3.1,7.3,6.8C96.4,568.6,93.3,571.8,88.6,571.8z
		 M88.8,559.2c-2.9,0-4.6,2.5-4.6,4.6c0,2.9,1.7,5.4,4.8,5.4c2.7,0,4.6-2,4.6-5.3C93.3,561.1,91.8,559.2,88.8,559.2z"/>
</g>
<line fill="none" stroke="#000000" stroke-width="1.3" x1="138.1" y1="135.3" x2="124.4" y2="135.3"/>
<line fill="none" stroke="#000000" stroke-width="1.3" x1="138.1" y1="207.9" x2="124.4" y2="207.9"/>
<line fill="none" stroke="#000000" stroke-width="1.3" x1="138.1" y1="280.1" x2="124.4" y2="280.1"/>
<line fill="none" stroke="#000000" stroke-width="1.3" x1="138.1" y1="352.2" x2="124.4" y2="352.2"/>
<line fill="none" stroke="#000000" stroke-width="1.3" x1="138.1" y1="424.8" x2="124.4" y2="424.8"/>
<line fill="none" stroke="#000000" stroke-width="1.3" x1="138.1" y1="498.1" x2="124.4" y2="498.1"/>
<line fill="none" stroke="#000000" stroke-width="1.3" x1="138.1" y1="568.9" x2="124.4" y2="568.9"/>
<line fill="none" stroke="#000000" stroke-width="1.3" x1="570.1" y1="135.1" x2="570.1" y2="121.2"/>
<line fill="none" stroke="#000000" stroke-width="1.3" x1="497.3" y1="135.1" x2="497.3" y2="121.2"/>
<line fill="none" stroke="#000000" stroke-width="1.3" x1="425.3" y1="135.1" x2="425.3" y2="121.2"/>
<line fill="none" stroke="#000000" stroke-width="1.3" x1="353" y1="135.1" x2="353" y2="121.2"/>
<line fill="none" stroke="#000000" stroke-width="1.3" x1="280.5" y1="135.1" x2="280.5" y2="121.2"/>
<line fill="none" stroke="#000000" stroke-width="1.3" x1="207.2" y1="135.1" x2="207.2" y2="121.2"/>
<line fill="none" stroke="#000000" stroke-width="1.3" x1="137.1" y1="135.1" x2="137.1" y2="121.2"/>
<polyline fill="#FFFFFF" stroke="#000000" stroke-width="1.3" points="38.7,267.8 30,276.5 21.6,267.8 "/>
<line fill="none" stroke="#000000" stroke-width="1.3" x1="30" y1="276.5" x2="30" y2="174.7"/>
<polyline fill="#FFFFFF" stroke="#000000" stroke-width="1.3" points="269.3,11.6 278,20.2 269.3,28.7 "/>
<line fill="none" stroke="#000000" stroke-width="1.3" x1="279.9" y1="20.2" x2="178" y2="20.2"/>
<g>
	<path d="M373.2,340.5c-5.8-5.4-8.7-10.9-8.7-17.7c0-7.1,3.4-13.1,8.8-17.8l1.9,1.9c-4.8,4.8-7.3,10-7.3,15.8
		c0,5.8,2.4,11.2,7.3,16.1L373.2,340.5z"/>
	<path d="M387.5,336.1c-1.5,0-3.1-0.2-4.4-0.5l0.5-2.9c1.2,0.5,2.7,0.7,4.2,0.7c3.7,0,6.1-2,6.1-4.8c0-2.5-2-4.4-5.8-4.4
		c-1.2,0-2,0-3.1,0.2v-2.5h0.8c5.1,0,7.5-1.5,7.5-4.4c0-2.2-1.9-3.4-4.2-3.4c-1.9,0-3.6,0.5-5.1,1.4l-0.5-2.7
		c1.9-0.8,3.7-1.4,5.9-1.4c4.8,0,7,2.2,7,5.6c0,2.7-1.9,4.8-4.2,5.6l0,0c2.9,0.3,5.1,2.7,5.1,5.6
		C397.3,332.7,393.2,336.1,387.5,336.1z"/>
	<path d="M405.6,337.3c3.6-1,4.8-2.5,4.8-3.9c0-2.2-1.9-2.2-1.9-4.1c0-1.5,1-2.5,2.4-2.5c2.2,0,3.2,2,3.2,4.4c0,4.4-2.9,7-8.1,8.1
		L405.6,337.3z"/>
	<path d="M429.6,336.1c-1.5,0-3.1-0.2-4.4-0.5l0.5-2.9c1.2,0.5,2.7,0.7,4.2,0.7c3.7,0,6.1-2,6.1-4.8c0-2.5-2-4.4-5.8-4.4
		c-1.2,0-2,0-3.1,0.2v-2.5h0.8c5.1,0,7.5-1.5,7.5-4.4c0-2.2-1.9-3.4-4.2-3.4c-1.9,0-3.6,0.5-5.1,1.4l-0.5-2.7
		c1.9-0.8,3.7-1.4,5.9-1.4c4.8,0,7,2.2,7,5.6c0,2.7-1.9,4.8-4.2,5.6l0,0c2.9,0.3,5.1,2.7,5.1,5.6
		C439.6,332.7,435.3,336.1,429.6,336.1z"/>
	<path d="M449.9,305c5.8,5.4,8.7,10.9,8.7,17.7c0,7.1-3.4,13.1-8.8,17.8l-1.9-1.9c4.8-4.8,7.3-10,7.3-15.8s-2.4-11.2-7.3-16.1
		L449.9,305z"/>
</g>
<g>
	<path fill="#808080" d="M104.4,667.9V666c1-0.2,1.9-0.3,3.1-0.5v-19c-1,0-2-0.3-3.1-0.5v-1.9h15.3v5.6h-2.2c-0.2-1.2-0.3-2-0.5-2.9
		h-6.3v7.8h5.1c0.2-0.8,0.3-1.7,0.5-2.4h1.9v7.1h-1.9c-0.2-0.8-0.3-1.7-0.5-2.4h-5.1v8.5h6.3c0.2-1,0.3-1.9,0.5-3.1h2.2v5.6
		L104.4,667.9L104.4,667.9z"/>
	<path fill="#808080" d="M135.1,667.9l-3.9-6.4l-3.9,6.4H122V666c1-0.2,2-0.5,2.9-0.5l4.2-6.3l-4.1-6.3c-1,0-1.9-0.3-2.9-0.5v-1.9
		h5.4l3.7,6.3l3.7-6.3h5.1v1.9c-1,0.2-2,0.5-2.9,0.5l-3.9,6.1l4.2,6.4c1,0,1.9,0.3,2.9,0.5v1.9L135.1,667.9L135.1,667.9z"/>
	<path fill="#808080" d="M153.1,667.9c0-1.4,0-2.4,0.2-3.4l0,0c-0.8,2-3.1,3.7-5.9,3.7c-2.9,0-4.9-1.9-4.9-4.6
		c0-3.7,3.9-5.9,10.4-5.9v-1.4c0-2.4-0.8-3.9-3.6-3.9c-1,0-2.2,0.2-3.2,0.5c0,0.8-0.3,1.9-0.5,2.9h-1.9v-4.8c1.9-0.5,3.9-1,5.9-1
		c5.3,0,6.4,2.2,6.4,5.8v9.3c0.8,0.2,1.9,0.3,2.9,0.3v1.9C157.3,667.7,155,667.9,153.1,667.9z M152.9,659.7c-5.6,0-7.3,1.4-7.3,3.2
		c0,1.5,1,2.5,2.5,2.5c2.7,0,4.8-2.7,4.8-5.6V659.7z"/>
	<path fill="#808080" d="M185.5,667.9v-11.2c0-2.4-0.5-3.9-2.7-3.9c-2.4,0-4.9,2.5-4.9,6.8v5.9c1,0,1.9,0.2,2.9,0.5v1.9h-6.1v-11.2
		c0-2.2-0.5-3.9-2.9-3.9c-2.5,0-4.9,2.9-4.9,6.8v5.9c1,0,1.9,0.2,2.7,0.5v1.9h-9.2V666c1-0.2,1.9-0.3,3.1-0.5v-12.7
		c-0.8-0.2-2-0.3-3.1-0.3v-1.9c1.9-0.2,4.2-0.3,6.1-0.3c0,1-0.2,2.5-0.3,3.7l0,0c1-2.4,3.2-4.1,5.9-4.1c3.7,0,4.8,2.5,4.9,3.9
		c0.7-1.7,2.5-3.9,5.9-3.9c3.2,0,5.3,1.9,5.3,5.6v9.7c1,0,2,0.3,2.9,0.5v1.9L185.5,667.9L185.5,667.9z"/>
	<path fill="#808080" d="M201.5,668c-1.2,0-1.9,0-2.9-0.2v6.3c1,0,2,0.3,3.1,0.5v1.9h-9.3v-1.9c1-0.2,1.9-0.3,2.9-0.5v-21.2
		c-0.8-0.2-1.9-0.3-2.9-0.3v-1.9c1.9-0.2,4.1-0.3,5.9-0.3c0,1-0.2,2.5-0.3,3.6l0,0c1-2.4,3.1-3.9,5.8-3.9c4.1,0,6.4,2.9,6.4,8.3
		C210.5,664.5,207.2,668,201.5,668z M203.3,652.6c-3.1,0-4.8,3.7-4.8,6.6v5.6c1,0.3,1.9,0.5,3.1,0.5c3.2,0,5.6-1.9,5.6-7
		C207.2,654.8,205.9,652.6,203.3,652.6z"/>
	<path fill="#808080" d="M212.5,667.9V666c0.8-0.2,1.9-0.3,2.9-0.5v-20.7c-0.8-0.2-1.9-0.3-3.1-0.3v-1.9c1.9-0.2,4.1-0.3,6.1-0.3
		v23.3c1,0,2,0.3,2.9,0.5v1.9H212.5L212.5,667.9z"/>
	<path fill="#808080" d="M238.3,659.2h-11.4c-0.2,4.6,1.9,6.4,5.6,6.4c1.7,0,3.4-0.3,5.1-1l0.5,2.4c-1.9,0.7-3.9,1.2-5.9,1.2
		c-5.4,0-8.1-2.7-8.1-9c0-5.3,2.9-9.2,7.8-9.2c4.9,0,7,3.2,7,7.1C238.3,657.7,238.3,658.4,238.3,659.2z M231.2,652.4
		c-2.2,0-3.9,1.7-4.2,4.4h8.1C235.1,654.1,233.7,652.4,231.2,652.4z"/>
	<path fill="#808080" d="M245.6,657.8c-1.2,0-2-1-2-2s1-2,2-2c1.2,0,2,1,2,2S246.6,657.8,245.6,657.8z M245.6,668.2c-1.2,0-2-1-2-2
		s1-2,2-2c1.2,0,2,1,2,2S246.6,668.2,245.6,668.2z"/>
	<path d="M282.6,661.6h-11.4c-0.2,4.6,1.9,6.4,5.6,6.4c1.7,0,3.4-0.3,5.1-1l0.5,2.4c-1.9,0.7-3.9,1.2-5.9,1.2c-5.4,0-8.1-2.7-8.1-9
		c0-5.3,2.9-9.2,7.8-9.2c4.9,0,7,3.2,7,7.1C282.8,660.2,282.6,660.9,282.6,661.6z M275.5,655c-2.2,0-3.9,1.7-4.2,4.4h8.1
		C279.4,656.8,278,655,275.5,655z"/>
	<path d="M284.8,670.4v-1.9c0.8-0.2,1.9-0.3,2.9-0.5v-20.7c-0.8-0.2-1.9-0.3-3.1-0.3v-1.9c1.9-0.2,4.1-0.3,6.1-0.3V668
		c1,0,2,0.3,2.9,0.5v1.9H284.8L284.8,670.4z"/>
	<path d="M295.2,670.4v-1.9c0.8-0.2,1.9-0.3,2.9-0.5v-20.7c-0.8-0.2-1.9-0.3-3.1-0.3v-1.9c1.9-0.2,4.1-0.3,6.1-0.3V668
		c1,0,2,0.3,2.9,0.5v1.9H295.2L295.2,670.4z"/>
	<path d="M305.8,670.4v-1.9c1-0.2,1.9-0.3,3.1-0.5v-12.7c-0.8-0.2-2-0.3-3.1-0.3v-1.7c1.9-0.2,4.2-0.3,6.1-0.3V668
		c1,0,2,0.3,2.9,0.5v1.9H305.8L305.8,670.4z M310.6,649.5c-1.2,0-2-0.8-2-2c0-1.4,1-2,2-2s2,1,2,2
		C312.5,648.5,311.6,649.5,310.6,649.5z"/>
	<path d="M325,670.6c-1.2,0-1.9,0-2.9-0.2v6.3c1,0,2,0.3,3.1,0.5v1.9H316v-1.9c1-0.2,1.9-0.3,2.9-0.5v-21.2
		c-0.8-0.2-1.9-0.3-2.9-0.3v-1.9c1.9-0.2,4.1-0.3,5.9-0.3c0,1-0.2,2.5-0.3,3.6l0,0c1-2.4,3.1-3.9,5.8-3.9c4.1,0,6.4,2.9,6.4,8.3
		C334,667,330.6,670.6,325,670.6z M326.9,655.1c-3.1,0-4.8,3.7-4.8,6.6v5.6c1,0.3,1.9,0.5,3.1,0.5c3.2,0,5.6-1.9,5.6-7
		C330.6,657.5,329.4,655.1,326.9,655.1z"/>
	<path d="M341.7,670.7c-1.4,0-2.9-0.2-4.1-0.5v-4.9h1.9c0.2,0.8,0.3,1.9,0.5,2.7c0.7,0.2,1.4,0.2,2,0.2c2.2,0,3.9-1,3.9-2.7
		c0-3.9-8.8-1.7-8.8-7.6c0-2.9,2.4-5.3,7-5.3c1.4,0,2.7,0.2,4.1,0.5v4.8h-1.9c-0.2-0.8-0.3-1.9-0.5-2.7c-0.7-0.2-1.4-0.2-1.9-0.2
		c-2.2,0-3.6,1-3.6,2.5c0,3.9,8.8,1.9,8.8,7.5C349.1,668.2,346.1,670.7,341.7,670.7z"/>
	<path d="M366.8,661.6h-11.4c-0.2,4.6,1.9,6.4,5.6,6.4c1.7,0,3.4-0.3,5.1-1l0.5,2.4c-1.9,0.7-3.9,1.2-5.9,1.2c-5.4,0-8.1-2.7-8.1-9
		c0-5.3,2.9-9.2,7.8-9.2c4.9,0,7,3.2,7,7.1C366.9,660.2,366.9,660.9,366.8,661.6z M359.8,655c-2.2,0-3.9,1.7-4.2,4.4h8.1
		C363.9,656.8,362.2,655,359.8,655z"/>
	<path d="M390.5,678.2c-5.8-5.4-8.7-10.9-8.7-17.7c0-7.1,3.4-13.1,8.8-17.8l1.9,1.9c-4.8,4.8-7.3,10-7.3,15.8
		c0,5.8,2.4,11.2,7.3,16.1L390.5,678.2z"/>
	<path d="M405,673.6c-1.5,0-3.1-0.2-4.4-0.5l0.5-2.9c1.2,0.5,2.7,0.7,4.2,0.7c3.7,0,6.1-2,6.1-4.8c0-2.7-2-4.4-5.8-4.4
		c-1.2,0-2,0-3.1,0.2v-2.5h0.8c5.1,0,7.5-1.5,7.5-4.4c0-2.2-1.9-3.4-4.2-3.4c-1.9,0-3.6,0.5-5.1,1.4l-0.5-2.7
		c1.9-0.8,3.7-1.4,5.9-1.4c4.8,0,7,2.2,7,5.6c0,2.7-1.9,4.8-4.2,5.6l0,0c2.9,0.3,5.1,2.7,5.1,5.6C414.8,670.2,410.7,673.6,405,673.6
		z"/>
	<path d="M423.1,675c3.6-1,4.8-2.5,4.8-3.9c0-2.2-1.9-2.2-1.9-4.1c0-1.5,1-2.5,2.4-2.5c2.2,0,3.2,2,3.2,4.4c0,4.4-2.9,7-8.1,8.1
		L423.1,675z"/>
	<path d="M446.9,673.6c-1.5,0-3.1-0.2-4.4-0.5l0.5-2.9c1.2,0.5,2.7,0.7,4.2,0.7c3.7,0,6.1-2,6.1-4.8c0-2.7-2-4.4-5.8-4.4
		c-1.2,0-2,0-3.1,0.2v-2.5h0.8c5.1,0,7.5-1.5,7.5-4.4c0-2.2-1.9-3.4-4.2-3.4c-1.9,0-3.6,0.5-5.1,1.4l-0.5-2.7
		c1.9-0.8,3.7-1.4,5.9-1.4c4.8,0,7,2.2,7,5.6c0,2.7-1.9,4.8-4.2,5.6l0,0c2.9,0.3,5.1,2.7,5.1,5.6
		C456.9,670.2,452.8,673.6,446.9,673.6z"/>
	<path d="M465,675c3.6-1,4.8-2.5,4.8-3.9c0-2.2-1.9-2.2-1.9-4.1c0-1.5,1-2.5,2.4-2.5c2.2,0,3.2,2,3.2,4.4c0,4.4-2.9,7-8.1,8.1
		L465,675z"/>
	<path d="M496.8,667.4v5.8h-3.1v-5.8H483l-0.3-2.5l9.7-15.4h4.4v15.3h4.1v2.9L496.8,667.4L496.8,667.4z M493.7,652.2L493.7,652.2
		l-8,12.4c2,0,6.4,0,8,0V652.2z"/>
	<path d="M507.1,675c3.6-1,4.8-2.5,4.8-3.9c0-2.2-1.9-2.2-1.9-4.1c0-1.5,1-2.5,2.4-2.5c2.2,0,3.2,2,3.2,4.4c0,4.4-2.9,7-8.1,8.1
		L507.1,675z"/>
	<path d="M533.9,670.7c-4.9,0-8-3.7-8-10c0-10,5.1-14.3,11.7-14.3c0.7,0,1.7,0,2,0.2v2.7c-0.8-0.2-1.5-0.2-2.2-0.2
		c-4.6,0-7,2.5-8,7.5c-0.2,0.3-0.2,1-0.3,1.9l0,0c1.2-1.9,3.2-3.1,5.6-3.1c4.8,0,7.3,3.1,7.3,6.8
		C541.9,667.4,538.7,670.7,533.9,670.7z M534.1,658c-2.9,0-4.6,2.5-4.6,4.6c0,2.9,1.7,5.4,4.8,5.4c2.7,0,4.6-2,4.6-5.3
		C538.7,660.1,537.2,658,534.1,658z"/>
	<path d="M551.3,642.7c5.8,5.4,8.7,10.9,8.7,17.7c0,7.1-3.4,13.1-8.8,17.8l-1.9-1.9c4.8-4.8,7.3-10,7.3-15.8
		c0-5.8-2.4-11.2-7.3-16.1L551.3,642.7z"/>
	<path d="M576.9,675.8l-1.4-1.2c2.2-2.4,2.2-4.1,1.5-5.1c-1-1.4-0.2-3.1,1.5-3.1C581.1,666.3,582.5,670.9,576.9,675.8z M578.7,660.4
		c-1.2,0-2-1-2-2s1-2,2-2c1.2,0,2,1,2,2C580.8,659.5,579.8,660.4,578.7,660.4z"/>
</g>
<ellipse fill="none" stroke="#000000" stroke-width="2" cx="353.5" cy="352.4" rx="144.8" ry="217.1"/>
</svg>
