<svg xmlns="http://www.w3.org/2000/svg" width="90" height="90"><path d="M45 89C20.9 89 1 69.4 1 45 1 20.9 20.6 1 45 1c24.1 0 44 19.6 44 44 0 24.1-19.9 44-44 44zm0-85.5C22.1 3.5 3.5 22.1 3.5 45S22.1 86.5 45 86.5 86.5 67.9 86.5 45 67.9 3.5 45 3.5z" fill="#999" stroke="#999" stroke-width="1.5" stroke-miterlimit="10"/><path d="M35.3 30.3v33.8c0 .5 0 .8-.3 1.3s-.5.5-1 .5c-.3 0-.8 0-1-.3L19.6 59c-.5-.3-.8-.5-1-1-.3-.5-.5-1-.5-1.3V23.9c0-.5 0-.8.3-1 .3-.3.5-.5.8-.5.3 0 .8.3 1.3.5l14.8 7.4zm1.8 3l15.3 24.9-15.3-7.6V33.3zm32.6.5v30.3c0 .5-.3.8-.5 1.3-.3.5-.5.5-1 .5s-1 0-1.3-.3l-12.7-6.4 15.5-25.4zm0-3.5s-2.5 4.1-7.4 11.9c-4.8 7.9-7.9 12.7-8.6 14L42.5 37.9l9.4-15.3c.3-.5.8-.8 1.5-.8.3 0 .5 0 .8.3l15.5 8.2z" fill="#999"/></svg>