<svg xmlns="http://www.w3.org/2000/svg" width="250" height="114" viewBox="0 0 250 114"><path fill="#EC245E" d="M16.254 27.631v7.998h.359c.715-1.113 1.65-2.248 2.805-3.402 1.155-1.154 2.568-2.188 4.24-3.105 1.67-.912 3.561-1.67 5.67-2.268 2.107-.596 4.477-.896 7.104-.896 4.059 0 7.799.777 11.223 2.328 3.422 1.555 6.367 3.684 8.836 6.389 2.465 2.707 4.375 5.891 5.73 9.551 1.352 3.662 2.029 7.602 2.029 11.82s-.656 8.179-1.971 11.879c-1.312 3.701-3.184 6.925-5.611 9.67-2.427 2.746-5.371 4.938-8.834 6.566-3.463 1.631-7.385 2.446-11.76 2.446-4.061 0-7.781-.836-11.164-2.506-3.385-1.672-5.99-3.938-7.82-6.807h-.238v36.295H2.525V27.631h13.729zm33.43 28.414c0-2.229-.338-4.438-1.014-6.627a18.592 18.592 0 0 0-3.045-5.91c-1.354-1.748-3.064-3.162-5.135-4.238-2.07-1.074-4.496-1.611-7.281-1.611-2.627 0-4.977.557-7.045 1.672a18.058 18.058 0 0 0-5.312 4.297 18.305 18.305 0 0 0-3.344 5.971c-.758 2.229-1.133 4.459-1.133 6.686 0 2.229.375 4.438 1.133 6.625a18.422 18.422 0 0 0 3.344 5.912 17.198 17.198 0 0 0 5.312 4.236c2.068 1.075 4.418 1.61 7.045 1.61 2.785 0 5.211-.555 7.281-1.67 2.07-1.115 3.781-2.547 5.135-4.299 1.352-1.75 2.367-3.74 3.045-5.97a22.912 22.912 0 0 0 1.014-6.684zm139.648-31.152v63.505c0 3.422-.279 6.666-.836 9.73-.559 3.064-1.611 5.73-3.164 8-1.551 2.27-3.662 4.078-6.328 5.432-2.668 1.354-6.146 2.029-10.445 2.029-1.193 0-2.389-.08-3.582-.238-1.193-.16-2.148-.319-2.865-.479l1.195-12.178c.637.16 1.311.279 2.027.359.717.077 1.354.118 1.91.118 1.67 0 3.023-.317 4.059-.955a6.42 6.42 0 0 0 2.391-2.627c.555-1.114.914-2.407 1.074-3.881.156-1.474.236-3.043.236-4.715v-64.1h14.328zm48.83 18.019c-1.275-1.672-3.025-3.123-5.254-4.357-2.229-1.234-4.656-1.852-7.283-1.852-2.309 0-4.416.479-6.326 1.434-1.912.953-2.863 2.547-2.863 4.775s1.053 3.803 3.16 4.715c2.109.916 5.195 1.852 9.256 2.807a52.844 52.844 0 0 1 6.506 1.91c2.189.795 4.18 1.85 5.971 3.164a15.605 15.605 0 0 1 4.357 4.895c1.111 1.951 1.672 4.318 1.672 7.104 0 3.504-.658 6.47-1.973 8.896-1.311 2.428-3.062 4.397-5.254 5.91-2.189 1.512-4.734 2.606-7.641 3.283a39.64 39.64 0 0 1-9.014 1.014c-4.459 0-8.795-.816-13.014-2.447-4.219-1.629-7.721-3.959-10.506-6.982l9.432-8.836c1.592 2.07 3.66 3.781 6.209 5.133 2.547 1.354 5.371 2.029 8.477 2.029 1.033 0 2.088-.117 3.164-.357a10.68 10.68 0 0 0 2.984-1.133 6.202 6.202 0 0 0 2.209-2.09c.555-.877.834-1.949.834-3.225 0-2.389-1.094-4.098-3.281-5.133-2.191-1.035-5.475-2.07-9.85-3.104a47.155 47.155 0 0 1-6.27-1.853c-2.029-.756-3.84-1.75-5.432-2.983-1.596-1.234-2.865-2.764-3.82-4.598-.955-1.83-1.436-4.098-1.436-6.805 0-3.184.656-5.928 1.973-8.236a16.931 16.931 0 0 1 5.191-5.674c2.148-1.471 4.576-2.566 7.283-3.281a32.486 32.486 0 0 1 8.357-1.076c4.137 0 8.178.717 12.117 2.148 3.939 1.434 7.062 3.625 9.373 6.568l-9.308 8.237zm-84.603 29.904l8.533-2.576 1.676 5.156-8.498 2.897 5.275 7.479-4.447 3.226-5.553-7.349-5.408 7.154-4.318-3.289 5.275-7.223-8.564-3.09 1.678-5.16 8.6 2.771v-8.896h5.754v8.897h-.003zm-29.473-26.98c-1.473-3.301-3.52-6.088-6.148-8.357-2.625-2.268-5.711-4-9.252-5.193-3.543-1.193-7.383-1.791-11.521-1.791-1.512 0-3.203.082-5.074.238-1.871.162-3.482.439-4.834.838l.834-18.268h34.503V.41H74.481l-1.432 46.201c1.271-.635 2.725-1.232 4.357-1.791a66.852 66.852 0 0 1 5.014-1.49 45.797 45.797 0 0 1 5.254-1.016 38.576 38.576 0 0 1 5.074-.357c2.307 0 4.576.258 6.805.775 2.227.518 4.238 1.434 6.029 2.746s3.242 3.045 4.357 5.193c1.113 2.148 1.672 4.855 1.672 8.119 0 2.547-.418 4.836-1.254 6.865-.836 2.026-1.971 3.721-3.402 5.071a14.708 14.708 0 0 1-5.016 3.104c-1.91.719-3.939 1.076-6.088 1.076-3.82 0-7.125-1.017-9.91-3.046-2.787-2.028-4.775-4.715-5.969-8.059l-.16.059-10.367 9.716a27.781 27.781 0 0 0 8.139 8.553c4.854 3.302 10.824 4.955 17.91 4.955 4.217 0 8.197-.678 11.938-2.028 3.741-1.352 7.004-3.304 9.791-5.853 2.786-2.545 4.994-5.67 6.627-9.371 1.629-3.701 2.445-7.897 2.445-12.597 0-4.296-.736-8.094-2.209-11.399zm6.984-38.994h2.521a3.1 3.1 0 0 1 .723.086c.236.059.447.152.635.283.186.131.336.301.453.508.115.207.172.457.172.749 0 .365-.104.667-.311.904a1.74 1.74 0 0 1-.812.511v.02c.408.055.742.213 1.006.475.262.262.393.611.393 1.051 0 .354-.07.65-.209.891-.143.24-.324.434-.555.58a2.346 2.346 0 0 1-.785.314 4.235 4.235 0 0 1-.898.096h-2.33V6.842h-.003zm1.151 2.631h1.023c.383 0 .676-.076.877-.229.201-.153.301-.369.301-.648 0-.293-.104-.5-.311-.621-.207-.122-.529-.184-.969-.184h-.924v1.682h.003zm0 2.868h1.031c.146 0 .307-.011.477-.032s.328-.064.471-.133a.9.9 0 0 0 .355-.292c.096-.128.143-.298.143-.511 0-.342-.115-.579-.348-.713-.23-.135-.582-.201-1.051-.201h-1.078v1.882zm4.715-5.499h4.283v1.004h-3.135v1.645h2.969v.969h-2.969v1.827h3.299v1.022h-4.447V6.842zm7.152 1.004h-1.982V6.842h5.117v1.004h-1.982v5.463h-1.152V7.846h-.001zm5.361-1.004h.996l2.787 6.467h-1.316l-.602-1.479h-2.807l-.584 1.479h-1.289l2.815-6.467zm1.463 4.001l-.996-2.631-1.014 2.631h2.01z"/></svg>