<?xml version="1.0" encoding="utf-8"?>
<!-- Generator: Adobe Illustrator 18.1.1, SVG Export Plug-In . SVG Version: 6.00 Build 0)  -->
<!DOCTYPE svg PUBLIC "-//W3C//DTD SVG 1.1//EN" "http://www.w3.org/Graphics/SVG/1.1/DTD/svg11.dtd">
<svg version="1.1" id="Layer_1" xmlns="http://www.w3.org/2000/svg" xmlns:xlink="http://www.w3.org/1999/xlink" x="0px" y="0px"
	 width="1000px" height="1000px" viewBox="0 0 1000 1000" enable-background="new 0 0 1000 1000" xml:space="preserve">
<g>
	<g>
		<g>
			<path fill="#111918" d="M168.361,231.454c0,7.416-0.072,21.887-0.072,27.862c0,2.665,1.08,3.025,2.736,3.025
				c0.72,0,1.727-0.073,2.375-0.144v4.32c-1.152,0.216-2.592,0.36-4.248,0.36c-2.952,0-5.76-1.512-5.76-6.479
				c0-7.2,0-19.583,0-28.943h-3.024v-4.392h3.024c0-0.143,0.144-6.264,0.144-6.264l4.752-0.216c0,0,0,6.264,0,6.479h5.183v4.392
				H168.361z"/>
			<path fill="#111918" d="M188.954,266.661c-0.073,0-0.073-0.575-0.073-31.895c0-2.016-0.791-3.456-3.383-3.456
				c-2.304,0-4.104,1.656-4.104,5.329v30.022h-4.823v-57.526h4.751v21.239c0.648-2.447,3.096-3.743,6.192-3.743
				c3.6,0,6.264,2.16,6.264,7.2c0,32.255,0,32.83,0.073,32.83H188.954z"/>
			<path fill="#111918" d="M206.594,267.093c-3.6,0-6.048-0.865-7.487-4.032c-1.369-2.952-1.873-7.92-1.873-15.768
				c0-8.424,0.648-13.968,2.448-17.135c1.44-2.52,3.6-3.6,6.768-3.6c7.056,0,8.927,4.825,8.927,14.4v8.064h-13.391
				c0,10.152,0.504,13.751,4.464,13.751c3.529,0,4.177-2.231,4.177-8.064h4.608C215.234,263.493,212.354,267.093,206.594,267.093z
				 M210.626,239.733c0-5.472-0.504-8.639-4.321-8.639c-3.168,0-4.32,1.583-4.32,13.679h8.64V239.733z"/>
		</g>
		<path fill="#111918" d="M275.016,204.123c3.28,0.161,6.346,2.959,7.525,6.918c1.262,4.234,0.874,9.207,0.464,14.473
			c-0.184,2.363-0.375,4.805-0.422,7.27c-0.238,12.423-2.184,26.014-5.787,40.397c-0.458,1.829-0.981,3.776-1.647,6.125l-0.648,2.29
			l-0.463,1.539c-2.395,7.955-5.319,16.291-9.482,27.032l-0.189,0.485c-2.357,6.081-22.462,63.711-29.672,60.104
			c-4.065-2.038,1.5-9.715,2.55-11.558c3.082-5.408,4.912-11.372,7.352-17.078c4.939-11.549,9.169-23.395,13.457-35.201
			c3.68-10.131,6.753-20.249,9.4-30.93l0.354-1.431l1.077-2.727c4.965-12.575,7.937-28.555,9.354-50.29
			c0.177-2.712,0.325-6.756-0.425-10.559C277.232,208.029,276.217,205.802,275.016,204.123 M498.577,228.126
			c-0.922,1.636-1.716,3.264-2.435,4.741c-0.573,1.174-1.113,2.285-1.584,3.116c-9.028,15.919-15.666,33.033-21.492,49.155
			c-5.513,15.253-10.777,30.587-16.175,45.879c-2.167,6.137-4.389,12.457-7.718,18.08c-0.328,0.553-6.243,9.01-7.867,5.981
			c-2.659-4.958,3.089-12.446,4.924-16.793c3.564-8.448,6.306-17.31,9.324-25.964c2.568-7.364,5.222-14.979,7.952-22.404
			l0.306-0.832c6.544-17.804,13.311-36.214,23.948-51.211C490.244,234.372,494.234,230.718,498.577,228.126 M864.845,240.989
			c-8.452,6.559-15.828,16.671-20.834,23.532l-0.646,0.885c-3.131,4.283-6.236,8.989-9.493,14.387c0,0-0.794,1.317-0.827,1.317
			l-0.717,1.243l-5.326,8.827l0.325-0.012c-1.861,3.364-3.677,6.732-5.457,10.032c-2.947,5.466-5.995,11.118-9.136,16.546
			l-1.547,2.673c-6.095,10.528-12.398,21.416-18.306,32.299c-3.866,7.123-7.812,14.252-11.324,21.559
			c-2.147,4.464-4.193,12.79-10.247,13.658c-5.304,0.759,1.491-9.118,1.872-9.797c2.558-4.567,4.526-9.412,7.136-13.977
			c5.98-10.457,11.665-21.06,17.832-31.418c8.64-14.511,17.719-29.204,25.549-41.837l4.005-6.462l0.802-1.293
			c3.395-5.47,6.787-10.938,10.168-16.407c2.341-3.788,7.376-11.136,14.798-17.809C856.522,246.195,860.454,243.163,864.845,240.989
			 M380.542,244c-0.497,10.872-3.273,21.96-5.973,32.74l-0.084,0.339c-1.426,5.697-3.182,11.631-5.367,18.142
			c0,0-1.14,3.397-1.146,3.4l-1.232,3.43c-1.379,3.84-2.85,7.77-4.494,12.013l-0.186,0.482c-1.939,5.005-4.055,10.412-6.813,15.033
			c-1.025,1.717-4.134,7.665-6.873,7.155c-2.583-0.482-1.617-3.146-0.811-5.091c2.385-5.759,4.759-11.445,6.899-17.312
			c0.002-0.007,4.976-13.642,4.976-13.642l-0.253,0.079c2.679-8.213,4.949-16.318,6.885-24.581
			c2.236-9.544,4.728-20.177,5.014-31.428C373.684,244.421,377.189,244.113,380.542,244 M154.463,312.523
			c-8.231,10.422-16.355,24.636-23.159,44.027c-1.497,4.267-5.398,26.352-12.932,23.947c-9.226-2.949,8.89-32.7,11.191-36.676
			C137.045,330.893,145.302,320.498,154.463,312.523 M543.207,320.876c-4.853,7.57-8.604,15.677-12.274,23.605
			c-2.754,5.954-7.165,20.802-14.467,22.553c-5.127,1.229-3.84-4.175-2.618-6.641c2.605-5.262,5.606-10.365,8.235-15.633
			c1.806-3.619,3.621-7.257,5.474-10.911C532.436,324.215,534.794,322.134,543.207,320.876 M413.189,323.613
			c-3.798,7.035-6.67,14.43-9.483,21.673c-1.454,3.745-7.869,27.002-14.944,23.394c-3.769-1.924,6.599-19.614,7.711-22.247
			c1.46-3.456,2.929-6.932,4.43-10.424C404.577,327.461,406.576,325.2,413.189,323.613 M667.882,323.668
			c-1.575,2.373-3.007,4.786-4.418,7.161c-0.935,1.575-1.819,3.064-2.738,4.532c-4.578,7.317-8.728,14.92-12.741,22.274
			c-2.331,4.273-7.784,20.738-15.227,17.467c-0.714-3.652,5.19-10.281,6.916-13.422c7.103-12.922,14.445-26.28,23.604-37.433
			C664.232,323.936,666.202,323.77,667.882,323.668 M710.714,326.617c-7.145,7.87-12.915,15.547-17.562,23.357
			c-3.495,5.874-6.608,11.95-9.65,18.066c-1.775,3.57-4.112,11.452-8.831,12.297c-6.8,1.216,5.559-17.793,5.919-18.394
			c6.108-10.214,12.703-19.772,21.231-28.166C704.561,331.078,707.555,328.68,710.714,326.617 M586.558,331.536
			c-0.966,1.155-1.89,2.292-2.77,3.375c-1.206,1.485-2.346,2.887-3.355,4.041c-2.435,2.782-24.003,33.105-27.416,30.207
			c-2.507-2.129,10.55-14.229,12.06-15.993C569.888,347.542,577.766,338.336,586.558,331.536 M274.044,506.939
			c-6.258,9.851-10.378,23.675-4.811,35.884c0.359,0.785,0.799,1.541,1.31,2.271c-4.13-2.481-7.607-5.742-9.745-9.312
			c-2.334-3.895-2.967-8.003-1.88-12.207c1.418-5.481,5.856-10.596,13.566-15.64C272.997,507.6,273.517,507.269,274.044,506.939
			 M448.286,587.151c-0.689,0.682-1.307,1.335-1.846,1.93c-10.561,11.672-16.614,27.664-15.796,41.735
			c0.34,5.825,1.853,10.852,4.24,15.118c-9.449-7.868-12.101-19.494-11.117-28.902C424.93,605.893,432.065,591.64,448.286,587.151
			 M274.718,196.916c-2.236,0-4.568,0.559-6.892,1.795c-13.372,7.117-21.459,20.105-22.307,35.215
			c-0.772,13.784,7.153,29.351,14.946,40.331c-2.536,10.24-5.568,20.262-9.178,30.203c-9.516,26.197-19.473,53.223-33.913,77.183
			c-7.01,11.63-14.314,23.084-21.101,34.848c-3.687,6.389-7.682,18.378-16.78,18.378c-0.257,0-0.517-0.009-0.782-0.029
			c-10.968-0.825-3.193-20.469-1.309-25.957c4.09-11.912,9.178-23.883,14.865-34.882c3.918-7.579,7.651-15.333,11.609-22.95
			c1.595-3.073,3.382-6.645,5.217-9.471c0.878-1.352,4.923-4.263,3.75-6.072c-2.62-4.039-13.293,3.984-15.408,5.76
			c-4.186,3.517-7.77,7.685-10.905,12.152c-9.84,14.017-15.459,29.913-22.897,45.19c-4.455,9.15-7.87,18.797-12.994,27.664
			c-2.59,4.48-6.638,9.913-12.35,9.913c-0.606,0-1.23-0.061-1.875-0.191c-12.026-2.428-10.45-20.435-9.404-29.262
			c0.811-6.846,1.537-13.712,2.945-20.471c1.911-9.178,5.041-18.487,8.143-27.331c9.005-25.664,26.391-56.879,53.868-66.075
			c1.215-0.407,2.378-0.594,3.478-0.594c6.926,0,11.511,7.392,12.787,14.065c0.786,4.113,0.158,9.996-2.696,13.296
			c-0.827,0.956-2.222,1.615-3.54,1.615c-1.095,0-2.136-0.453-2.76-1.564c-1.787-3.184,2.784-5.286,3.329-7.911
			c0.674-3.247-4.587-7.728-7.39-7.944c-0.172-0.013-0.345-0.02-0.517-0.02c-3.708,0-7.37,3.009-9.471,5.773
			c-4.403,5.79-3.898,15.67,2.801,19.937c3.335,2.125,6.437,3.052,9.251,3.052c14.309,0,21.198-23.947,13.971-35.957
			c-3.988-6.623-11.243-9.218-18.638-9.218c-3.244,0-6.513,0.499-9.548,1.376c-27.167,7.852-45.962,27.728-59.692,51.452
			c-6.753,11.67-12.551,23.919-15.648,37.097c-4.695,19.973-13.134,53.545,13.859,61.776c4.378,1.336,10.054,2.314,15.179,2.314
			c1.711,0,3.36-0.109,4.88-0.35c4.562-0.724,8.945-2.228,13.295-3.739c2.783-0.967,5.745-2.873,8.749-2.873
			c0.765,0,1.534,0.124,2.304,0.42c1.57,0.602,1.931,1.631,3.214,2.545c4.226,3.012,8.957,4.304,13.75,4.304
			c10.784,0,21.898-6.534,28.393-14.735c9.75-12.309,18.386-26.715,26.418-40.194c13.998-23.493,23.7-48.607,33.546-74.012
			c3.52-9.084,6.855-18.237,9.662-27.558c4.336,0.271,8.964,0.697,11.705,3.927c4.422,5.217-1.318,14.287-3.465,19.39
			c-8.205,19.5-16.645,38.985-24.887,58.522c-6.864,16.273-12.418,33.705-14.612,51.307c-1.021,8.193,2.372,16.286,9.688,20.252
			c8.775,4.757,19.628,2.418,28.839,0.359c7.546-1.686,14.048-5.514,19.774-10.532c0.621,3.237,2.699,6.361,5.611,8.3
			c4.797,3.197,9.853,4.568,14.978,4.568c9.061,0,18.342-4.283,26.807-10.332c5.578,5.959,16.287,8.45,24.539,8.45
			c0.948,0,1.862-0.033,2.734-0.097c5.678-0.418,19.415-1.982,23.18-7.24c-2.182,3.048-3.233,6.196-4.802,9.63
			c-1.798,3.933-3.451,7.934-5.286,11.852c-3.711,7.929-7.691,15.736-12.016,23.347c-19.586,0.075-39.292,1.658-58.603,4.813
			c-19.098,3.121-40.305,9.543-56.57,20.182c-7.315,4.785-14.327,11.097-16.595,19.863c-4.479,17.315,11.89,30.727,26.394,34.246
			c5.004,1.214,10.113,1.741,15.241,1.741c11.463,0,23.034-2.632,33.81-6.108c22-7.096,44.55-26.119,58.857-43.726
			c6.091-7.495,11.512-15.52,16.453-23.855c0.435-0.735,2.239-1.032,4.889-1.032c10.705,0,35.211,4.868,38.951,5.49
			c14.427,2.399,28.786,5.487,42.962,9.077c27.288,6.911,56.004,19.029,72.764,42.695c11.371,16.057,18.007,40.855,8.46,59.514
			c-2.216,4.33-7.267,7.623-10.458,11.415c-4.811,4.324-9.697,8.569-14.722,12.667c-19.03,15.516-41.545,29.635-66.264,33.223
			c-2.318,0.336-4.699,0.51-7.086,0.51c-16.396,0-33.256-8.134-34.368-27.232c-0.758-13.034,5.322-26.954,13.947-36.486
			c3.313-3.661,9.156-8.722,14.719-8.722c1.903,0,3.774,0.592,5.5,2.036c7.504,6.277-1.161,12.512-5.712,17.041
			c-7.965,7.927-12.431,21.151,3.884,21.321c0.08,0.001,0.158,0.001,0.238,0.001c15.872,0,24.605-16.711,19.004-30.029
			c-5.317-12.641-16.684-17.283-28.814-17.283c-4.046,0-8.175,0.516-12.196,1.424c-37.332,8.428-44.252,61.307-8.94,77.513
			c8.803,4.041,18.834,5.613,29.099,5.613c14.415,0,29.29-3.103,41.87-6.83c27.601-8.178,51.393-26.987,72.622-45.755
			c21.79-19.263,42.334-40.05,63.415-60.084c27.497-26.132,54.723-52.559,83.179-77.658c7.107-6.27,14.411-12.302,21.506-18.586
			c2.816-2.493,5.911-4.928,5.911-4.928s5.102,2.005,8.531,2.946c2.681,0.736,5.756,1.025,8.94,1.025
			c5.482,0,11.289-0.858,15.981-1.772c15.755-3.069,37.23-13.201,45.204-27.983c3.465-6.427,2.761-17.559-4.225-21.963
			c-3.773-2.379-8.27-3.337-13.021-3.337c-10.908,0-23.157,5.048-31.085,9.53c-5.428,3.068-10.576,6.64-15.562,10.451
			c0.868-2.985,1.829-5.793,2.643-8.225c6.22-18.618,15.4-36.295,24.739-53.502c6.352-11.701,13.088-23.276,19.757-34.801
			c6.32-10.923,11.974-22.185,18.264-33.085c4.234-0.045,8.5-0.279,12.8-0.736c10.46-1.111,23.357-4.582,31.785-11.283
			c12.314-9.79,25.35-34.772,4.74-43.375c-3.422-1.428-6.852-2.067-10.241-2.067c-9.976,0-19.603,5.535-27.655,12.776
			c-6.689,6.014-12.293,13.205-16.109,19.377c-4.022,6.506-8.06,13.01-12.097,19.518c-5.56-0.736-11.03-1.788-16.262-3.039
			c-26.123-6.241-50.398-19.596-75.805-28.024c-9.186-3.047-19.127-5.823-28.973-5.823c-3.143,0-6.274,0.282-9.37,0.929
			c-8.704,1.819-18.319,6.372-23.644,13.696c-4.823,6.636-4.486,18.05,2.3,23.703c3.73,3.108,9.836,5.134,15.663,5.134
			c4.786,0,9.384-1.366,12.326-4.623c2.978-3.297,5.05-9.97,3.345-14.205c-1.002-2.493-3.134-3.503-5.499-4.441
			c-1.937-0.769-8.041-1.656-9.165-3.323c-1.286-1.907-0.331-4.889,0.884-6.643c1.573-2.272,4.784-3.095,7.312-3.668
			c3.018-0.684,6.044-0.99,9.066-0.99c16.166,0,32.237,8.746,46.559,15.025c22.098,9.689,44.763,17.97,68.391,20.931
			c-8.633,13.928-17.241,27.881-25.616,41.947c-11.127,18.686-21.787,37.71-31.028,57.407
			c-6.132,13.074-12.603,27.273-14.628,41.801c-0.948,1.2-1.897,2.36-2.93,3.299c-3.432,3.123-7.62,6.104-11.984,6.104
			c-1.741,0-3.51-0.474-5.271-1.602c-6.476-4.15-4.389-16.518-2.583-22.686c2.737-9.351,6.244-18.544,10.02-27.517
			c3.184-7.566,6.453-15.357,11.245-22.071c2.238-3.136,4.649-6.159,7.29-8.963c0.667-0.707,5.231-5.129,1.48-5.484
			c-0.152-0.014-0.307-0.021-0.463-0.021c-1.58,0-3.326,0.68-4.87,0.834c-2.94,0.295-5.593,0-8.391,1.154
			c-8.012,3.311-11.541,10.261-15.353,17.43c-6.011,11.306-10.499,23.313-16.687,34.563c-4.389,7.978-8.848,16.73-14.808,23.652
			c-4.928,5.723-14.529,11.249-22.788,11.249c-0.874,0-1.732-0.062-2.569-0.192c-4.054-0.629-7.46-2.825-10.099-5.914
			c-0.438-0.516-1.005-1.672-1.649-3.05c4.28-4.372,7.908-9.507,11.179-14.4c12.809-19.154,20.502-41.23,32.264-60.998
			c5.639-9.477,12.536-17.933,20.142-25.887c5.593-5.849,12.946-12.083,21.28-12.962c0.741-0.079,1.502-0.117,2.276-0.117
			c7.175,0,15.338,3.397,16.579,10.992c1.107,6.775-3.53,13.945-9.803,16.568c-1.412,0.591-2.829,0.87-4.141,0.87
			c-4.789,0-8.202-3.711-5.019-9.525c1.609-2.94,3.384-6.266,0.778-9.339c-0.7-0.825-2.424-1.151-4.155-1.151
			c-1.639,0-3.287,0.292-4.085,0.731c-2.641,1.452-3.503,4.757-3.474,7.564c0.097,9.464,7.852,15.25,15.979,15.25
			c2.816,0,5.678-0.695,8.28-2.173c7.349-4.172,11.125-13.899,8.278-21.865c-3.001-8.394-13.411-11.15-21.531-11.674
			c-1.015-0.066-2.031-0.097-3.047-0.097c-15.145-0.001-30.11,7.175-40.907,17.803c-16.6,16.341-26.943,36.458-36.938,57.202
			c-6.237,12.942-12.376,25.635-20.85,37.324c-5.017,6.92-13.037,14.206-21.396,14.206c-3.78,0-7.629-1.489-11.302-5.177
			c-0.245-0.246-0.899-1.085-1.708-2.092c16.856-12.78,28.889-33.211,39.366-50.643c7.962-13.248,14.691-27.185,22.887-40.284
			c3.903-6.237,7.277-12.95,12.35-18.345c0.455-0.483,8.735-8.136,3.459-8.136c-0.086,0-0.175,0.002-0.267,0.006
			c-2.515,0.11-5.061,2.421-7.502,3.088c-4.111,1.124-13.789-0.164-16.72,3.357c-13.025,15.676-22.073,34.787-32.208,52.351
			c-11.471,19.882-23.578,40.455-40.471,56.28c-6.141,5.754-12.492,10.191-18.901,10.191c-4.232,0-8.49-1.934-12.73-6.7
			c-10.29-11.566-3.43-30.577,2-42.656c7.382-16.419,18.195-31.425,30.009-44.923c3.084-3.524,6.82-8.616,10.984-12.845
			c2.847,7.7,7.256,15.582,15.4,15.582c0.757,0,1.545-0.067,2.367-0.21c11.486-1.988,12.791-20.45,3.844-26.544
			c-4.053-2.76-8.256-3.936-12.488-3.936c-2.9,0-5.815,0.553-8.703,1.526c-1.069-2.861-2.14-5.719-3.258-8.554
			c-7.377-18.687-16.146-44.883-35.968-53.999c-2.952-1.358-6.827-2.324-10.611-2.324c-4.696,0-9.253,1.488-11.733,5.566
			c-5.147,8.481,2.746,19.901,11.457,19.924c0.029,0,0.06,0,0.089,0c6.423,0,12.177-2.014,17.416-2.014
			c4.97,0,9.475,1.812,13.646,8.875c6.309,10.682,10.899,22.471,14.708,34.263c-13.521,6.434-26.038,20.882-33.395,29.48
			c-12.735,14.883-24.237,31.815-30.974,50.312c-4.69,12.876-7.098,30.013,6.093,38.673c6.626,4.35,15.216,5.606,23.156,5.606
			c1.062,0,2.111-0.022,3.143-0.063c11.993-0.47,24.367-1.567,35.08-7.395c1.878-1.022,3.698-2.146,5.47-3.35
			c1.118,1.975,2.291,3.707,2.645,4.134c3.709,4.475,10.15,6.109,17.054,6.109c8.803,0,18.362-2.653,23.988-5.45
			c2.919-1.452,5.582-3.346,8.035-5.52c5.78,7.376,13.181,10.269,21.585,10.269c3.333,0,6.823-0.455,10.433-1.266
			c7.112-1.597,14.173-5.007,20.995-7.578c2.091-0.789,3.83-1.195,5.357-1.195c3.065,0,5.28,1.635,7.79,5.106
			c2.725,3.769,6.871,5.37,11.243,5.37c1.878,0,3.799-0.295,5.667-0.841c3.375-0.987,6.606-3.348,9.388-5.672
			c0.032,1.265,0.145,2.53,0.373,3.768c-19.203,16.627-38.52,33.158-57.301,50.252c-27.648,25.167-54.196,51.499-81.579,76.945
			c-4.389,4.078-8.716,8.216-13.03,12.369c0.191-0.722,0.394-1.447,0.56-2.163c4.792-20.661-6.329-37.782-20.822-52.05
			c-4.069-4.005-8.49-7.636-13.199-10.934c-36.462-25.532-90.213-31.068-131.755-35.307c-7.61-0.777-14.968-1.195-22.355-1.428
			c6.067-10.992,11.398-22.416,16.369-33.819c1.141-2.618,2.21-5.272,3.261-7.935c7.25,6.825,22.356,7.723,31.249,5.155
			c12.245-3.536,22.744-12.21,31.841-20.813c4.812-4.548,9.932-9.286,14.1-14.442c11.504-14.23,20.452-30.239,28.635-46.547
			c7.675-15.289,13.445-31.788,25.107-44.415c0.634-0.687,2.188-2.68,1.876-3.729c-0.23-0.77-1.025-0.954-1.834-0.954
			c-0.518,0-1.042,0.076-1.426,0.122c-2.211,0.267-4.393,0.947-6.504,1.631c-1.879,0.611-4.042,1.887-5.985,2.147
			c-12.398,1.666-16.443,5.637-22.204,17.009c-6.874,13.57-14.392,26.98-20.939,40.69c-5.996,12.555-12.282,25.433-19.957,37.181
			c-5.9,9.032-14.399,21.32-24.195,26.423c-4.89,2.548-15.243,2.401-20.609,1.294c-8.511-1.757-5.67-9.867-3.464-15.402
			c2.63-6.595,5.87-10.262,10.723-15.461c11.814-12.654,20.377-28.748,29.556-43.328c10.147-16.119,19.914-32.871,27.533-50.347
			c7.772-17.827,16.733-35.024,21.448-54.003c2.953-11.89,10.203-34.355-6.79-39.56c-1.617-0.496-3.294-0.723-4.999-0.723
			c-10.477,0-22.043,8.582-27.553,16.35c-11.364,16.021-18.412,35.426-25.14,53.725c-6.132,16.677-11.619,33.54-17.897,50.167
			c-3.356,8.889-6.695,17.79-9.874,26.743c-5.831,16.42-9.51,33.916-16.504,49.879c-6.033,13.771-16.679,20.455-31.645,21.213
			c-0.724,0.036-1.452,0.056-2.177,0.056c-4.041,0-8.077-0.602-11.816-2.207c-2.76-1.189-4.982-3.54-7.293-5.483
			c22.057-17.755,35.668-43.519,46.567-69.147c6.219-14.624,10.603-30.255,20.675-42.643c0.549-0.675,1.873-2.614,1.52-3.57
			c-0.225-0.615-0.831-0.785-1.484-0.785c-0.564,0-1.164,0.128-1.584,0.205c-2.036,0.376-4.018,1.134-5.934,1.895
			c-1.707,0.674-3.639,1.983-5.424,2.339c-11.396,2.27-14.912,6.187-19.589,17.07c-6.288,14.628-12.162,29.469-19.366,43.683
			c-3.724,7.346-7.808,14.36-11.621,21.656c-1.758,3.362-3.564,6.437-5.618,9.632c-5.669,8.817-13.351,20.12-23.108,24.771
			c-5.66,2.699-17.891,4.123-22.043-2.488c-1.063-1.695-1.084-3.505-1.041-5.303c9.889-10.027,17.347-23.405,23.923-34.44
			c13.998-23.493,23.7-48.607,33.546-74.012c1.567-4.043,3.091-8.102,4.556-12.18c1.227-0.364,2.449-0.742,3.661-1.157
			c21.025-7.192,47.767-16.311,57.401-38.305c3.338-7.622,4.113-17.237-4.986-20.795c-2.071-0.81-4.284-1.181-6.523-1.181
			c-5.658,0-11.47,2.374-15.517,6.043c-5.558,5.039-7.124,11.828-0.689,16.69c3.932,2.971,10.327,4.516,8.416,10.846
			c-1.54,5.107-8.285,8.611-12.674,10.795c-8.548,4.254-17.69,6.953-26.661,10.091c2.066-6.156,3.946-12.374,5.525-18.684
			c3.387-13.525,6.908-27.448,6.278-41.484c-0.019-0.408-1.924-0.587-4.652-0.587c-6.974,0-19.324,1.171-19.256,2.678
			c0.537,11.95-2.071,23.548-4.78,35.109c-2.532,10.807-5.665,21.337-9.376,31.784c-1.24,0.469-2.474,0.955-3.698,1.473
			c-7.653,3.237-15.861,5.415-20.778,12.765c-3.939,5.888-4.079,17.176,0.988,22.755c1.454,1.601,4.545,3.082,7.893,3.853
			c-3.81,9.141-7.866,18.168-12.348,26.965c-5.176,10.158-10.895,20-16.996,29.629c-5.187,8.186-9.297,17.365-15.382,24.914
			c-4.32,5.361-10.614,8.027-17.537,7.528c-17.603-1.27-1.077-28.035,1.242-35.817c3.684-12.366,9.103-24.131,13.608-36.204
			c6.069-16.265,12.605-32.61,20.7-47.986c3.411-6.479,6.053-13.936,10.443-19.827c2.157-2.896,9.038-7.699,7.711-12.04
			c-0.428-1.395-2.647-1.841-5.351-1.841c-4.15,0-9.438,1.05-11.136,1.328c-3.326,0.543-6.779,0.88-10.228,0.88
			c-3.967,0-7.928-0.445-11.687-1.535c-1.775-0.514-3.448-1.16-5.046-1.9c0.595-2.104,1.171-4.213,1.703-6.336
			c3.432-13.706,5.73-27.868,6.001-42.008c0.15-7.893,1.96-16.214-0.341-23.938C287.373,202.042,281.489,196.916,274.718,196.916z
			 M262.189,269.187c-7.888-8.046-11.783-20.768-12.912-31.723c-0.109-1.056-0.178-2.114-0.204-3.172
			c-0.163-6.704,6.118-28.157,15.769-28.159c0.328,0,0.656,0.025,0.991,0.075c5.874,0.891,5.5,10.603,5.222,14.864
			C270.047,236.532,267.9,254.72,262.189,269.187L262.189,269.187z M440.241,399.952c13.62-38.063,25.856-74.347,39.595-112.366
			c5.93-16.406,12.361-32.847,20.984-48.05c2.658-4.687,5.43-13.114,11.149-15.11c0.973-0.34,1.836-0.493,2.6-0.493
			c5.573-0.001,5.922,8.191,5.215,12.659c-1.191,7.522-2.888,15.452-5.108,22.734c-3.782,12.4-9.053,24.552-14.227,36.431
			c-5.743,13.191-11.762,27.02-19.186,39.35c-0.277,0.461-0.55,0.922-0.825,1.384c-2.346,3.943-4.618,7.928-6.871,11.925
			c-2.276,4.037-4.514,8.095-6.797,12.129c-2.285,4.038-4.573,8.075-6.968,12.05c-2.385,3.957-4.809,7.887-7.403,11.712
			c-2.414,3.56-4.811,7.137-7.554,10.455C443.359,396.562,441.641,398.09,440.241,399.952L440.241,399.952z M840.038,283.513
			c2.852-4.727,5.859-9.369,9.141-13.859c6.245-8.545,17.789-24.79,28.629-27.585c0.752-0.195,1.492-0.288,2.206-0.288
			c4.015,0,7.207,2.979,7.452,7.808c0.28,5.536-6.205,15.436-9.587,19.548c-4.765,5.794-11.231,9.335-18.36,11.414
			C853.273,282.373,846.701,283.277,840.038,283.513L840.038,283.513z M335.93,342.715c-8.344-0.964-12.12-9.759-7.097-18.681
			c3.858-6.851,11.429-9.87,18.864-12.172C343.933,322.18,340.077,332.509,335.93,342.715L335.93,342.715z M609.764,336.075
			c-2.061,0-5.905-1.921-6.609-3.595c-0.748-1.775-1.461-3.567-2.164-5.365c2.104-1.628,4.286-2.892,6.527-3.508
			c0.846-0.232,1.648-0.341,2.389-0.341c4.086-0.001,6.404,3.308,4.882,7.634c-0.735,2.092-2.184,4.723-4.586,5.14
			C610.069,336.064,609.923,336.075,609.764,336.075L609.764,336.075z M790.623,442.844c-6.287,0-11.967-1.948-18.089-6.103
			c4.318-4.315,8.359-8.872,12.872-12.996c5.967-5.453,23.319-20.816,35.036-20.816c0.281,0,0.559,0.009,0.833,0.027
			c3.843,0.252,7.003,2.307,8.835,7.124c2.286,6.016-0.751,13.083-4.876,17.503c-5.905,6.329-15.694,11.374-23.926,13.651
			C797.472,442.294,793.962,442.844,790.623,442.844L790.623,442.844z M334.221,485.686c0.25,0,3.71-0.34,4.188-0.375
			c2.084-0.154,4.167-0.304,6.251-0.457c9.601-0.707,19.225-1.075,28.849-1.256c2.112-0.04,4.216-0.055,6.32-0.063
			c-4.068,6.724-8.414,13.279-13.111,19.602c-12.739,17.153-29.407,35.544-49.137,44.605c-5.362,2.463-11.211,4.277-17.108,4.277
			c-2.041,0-4.087-0.218-6.122-0.701c-5.138-1.219-16.221-6.341-18.567-11.483c-4.698-10.302-0.294-22.877,5.97-31.427
			c9.165-12.511,26.865-17.89,41.303-20.916c3.682-0.772,7.413-1.345,11.15-1.807C334.208,485.686,334.213,485.686,334.221,485.686
			L334.221,485.686z"/>
	</g>
	<path fill="#36B29A" d="M275.016,204.123c3.28,0.161,6.346,2.959,7.525,6.918c1.262,4.234,0.874,9.207,0.464,14.473
		c-0.184,2.363-0.375,4.805-0.422,7.27c-0.238,12.423-2.184,26.014-5.787,40.397c-0.458,1.829-0.981,3.776-1.647,6.125l-0.648,2.29
		l-0.463,1.539c-2.395,7.955-5.319,16.291-9.482,27.032l-0.189,0.485c-2.357,6.081-22.462,63.711-29.672,60.104
		c-4.065-2.038,1.5-9.715,2.55-11.558c3.082-5.408,4.912-11.372,7.352-17.078c4.939-11.549,9.169-23.395,13.457-35.201
		c3.68-10.131,6.753-20.249,9.4-30.93l0.354-1.431l1.077-2.727c4.965-12.575,7.937-28.555,9.354-50.29
		c0.177-2.712,0.325-6.756-0.425-10.559C277.232,208.029,276.217,205.802,275.016,204.123 M498.577,228.126
		c-0.922,1.636-1.716,3.264-2.435,4.741c-0.573,1.174-1.113,2.285-1.584,3.116c-9.028,15.919-15.666,33.033-21.492,49.155
		c-5.513,15.253-10.777,30.587-16.175,45.879c-2.167,6.137-4.389,12.457-7.718,18.08c-0.328,0.553-6.243,9.01-7.867,5.981
		c-2.659-4.958,3.089-12.446,4.924-16.793c3.564-8.448,6.306-17.31,9.324-25.964c2.568-7.364,5.222-14.979,7.952-22.404l0.306-0.832
		c6.544-17.804,13.311-36.214,23.948-51.211C490.244,234.372,494.234,230.718,498.577,228.126 M864.845,240.989
		c-8.452,6.559-15.828,16.671-20.834,23.532l-0.646,0.885c-3.131,4.283-6.236,8.989-9.493,14.387c0,0-0.794,1.317-0.827,1.317
		l-0.717,1.243l-5.326,8.827l0.325-0.012c-1.861,3.364-3.677,6.732-5.457,10.032c-2.947,5.466-5.995,11.118-9.136,16.546
		l-1.547,2.673c-6.095,10.528-12.398,21.416-18.306,32.299c-3.866,7.123-7.812,14.252-11.324,21.559
		c-2.147,4.464-4.193,12.79-10.247,13.658c-5.304,0.759,1.491-9.118,1.872-9.797c2.558-4.567,4.526-9.412,7.136-13.977
		c5.98-10.457,11.665-21.06,17.832-31.418c8.64-14.511,17.719-29.204,25.549-41.837l4.005-6.462l0.802-1.293
		c3.395-5.47,6.787-10.938,10.168-16.407c2.341-3.788,7.376-11.136,14.798-17.809C856.522,246.195,860.454,243.163,864.845,240.989
		 M380.542,244c-0.497,10.872-3.273,21.96-5.973,32.74l-0.084,0.339c-1.426,5.697-3.182,11.631-5.367,18.142
		c0,0-1.14,3.397-1.146,3.4l-1.232,3.43c-1.379,3.84-2.85,7.77-4.494,12.013l-0.186,0.482c-1.939,5.005-4.055,10.412-6.813,15.033
		c-1.025,1.717-4.134,7.665-6.873,7.155c-2.583-0.482-1.617-3.146-0.811-5.091c2.385-5.759,4.759-11.445,6.899-17.312
		c0.002-0.007,4.976-13.642,4.976-13.642l-0.253,0.079c2.679-8.213,4.949-16.318,6.885-24.581
		c2.236-9.544,4.728-20.177,5.014-31.428C373.684,244.421,377.189,244.113,380.542,244 M154.463,312.523
		c-8.231,10.422-16.355,24.636-23.159,44.027c-1.497,4.267-5.398,26.352-12.932,23.947c-9.226-2.949,8.89-32.7,11.191-36.676
		C137.045,330.893,145.302,320.498,154.463,312.523 M543.207,320.876c-4.853,7.57-8.604,15.677-12.274,23.605
		c-2.754,5.954-7.165,20.802-14.467,22.553c-5.127,1.229-3.84-4.175-2.618-6.641c2.605-5.262,5.606-10.365,8.235-15.633
		c1.806-3.619,3.621-7.257,5.474-10.911C532.436,324.215,534.794,322.134,543.207,320.876 M413.189,323.613
		c-3.798,7.035-6.67,14.43-9.483,21.673c-1.454,3.745-7.869,27.002-14.944,23.394c-3.769-1.924,6.599-19.614,7.711-22.247
		c1.46-3.456,2.929-6.932,4.43-10.424C404.577,327.461,406.576,325.2,413.189,323.613 M667.882,323.668
		c-1.575,2.373-3.007,4.786-4.418,7.161c-0.935,1.575-1.819,3.064-2.738,4.532c-4.578,7.317-8.728,14.92-12.741,22.274
		c-2.331,4.273-7.784,20.738-15.227,17.467c-0.714-3.652,5.19-10.281,6.916-13.422c7.103-12.922,14.445-26.28,23.604-37.433
		C664.232,323.936,666.202,323.77,667.882,323.668 M710.714,326.617c-7.145,7.87-12.915,15.547-17.562,23.357
		c-3.495,5.874-6.608,11.95-9.65,18.066c-1.775,3.57-4.112,11.452-8.831,12.297c-6.8,1.216,5.559-17.793,5.919-18.394
		c6.108-10.214,12.703-19.772,21.231-28.166C704.561,331.078,707.555,328.68,710.714,326.617 M586.558,331.536
		c-0.966,1.155-1.89,2.292-2.77,3.375c-1.206,1.485-2.346,2.887-3.355,4.041c-2.435,2.782-24.003,33.105-27.416,30.207
		c-2.507-2.129,10.55-14.229,12.06-15.993C569.888,347.542,577.766,338.336,586.558,331.536 M274.044,506.939
		c-6.258,9.851-10.378,23.675-4.811,35.884c0.359,0.785,0.799,1.541,1.31,2.271c-4.13-2.481-7.607-5.742-9.745-9.312
		c-2.334-3.895-2.967-8.003-1.88-12.207c1.418-5.481,5.856-10.596,13.566-15.64C272.997,507.6,273.517,507.269,274.044,506.939
		 M448.286,587.151c-0.689,0.682-1.307,1.335-1.846,1.93c-10.561,11.672-16.614,27.664-15.796,41.735
		c0.34,5.825,1.853,10.852,4.24,15.118c-9.449-7.868-12.101-19.494-11.117-28.902C424.93,605.893,432.065,591.64,448.286,587.151"/>
</g>
<text transform="matrix(1 0 0 1 371.6719 880)" font-family="'MuseoSans-300'" font-size="42">theartificial.nl</text>
</svg>
