<?xml version="1.0" encoding="utf-8"?>
<!-- Generator: Adobe Illustrator 18.0.0, SVG Export Plug-In . SVG Version: 6.00 Build 0)  -->
<!DOCTYPE svg PUBLIC "-//W3C//DTD SVG 1.1//EN" "http://www.w3.org/Graphics/SVG/1.1/DTD/svg11.dtd">
<svg version="1.1" id="Layer_1" xmlns="http://www.w3.org/2000/svg" xmlns:xlink="http://www.w3.org/1999/xlink" x="0px" y="0px"
	 viewBox="0 0 349 523" enable-background="new 0 0 349 523" xml:space="preserve">
<g>
	<rect x="76" y="186.7" fill="none" stroke="#999999" stroke-width="1.3" width="265.6" height="265.6"/>
	<line fill="none" stroke="#999999" stroke-width="1.3" x1="76" y1="408.2" x2="341.6" y2="408.2"/>
	<line fill="none" stroke="#999999" stroke-width="1.3" x1="76" y1="363.8" x2="341.6" y2="363.8"/>
	<line fill="none" stroke="#999999" stroke-width="1.3" x1="76" y1="319.5" x2="341.6" y2="319.5"/>
	<line fill="none" stroke="#999999" stroke-width="1.3" x1="76" y1="275.3" x2="341.6" y2="275.3"/>
	<line fill="none" stroke="#999999" stroke-width="1.3" x1="76" y1="231" x2="341.6" y2="231"/>
	<line fill="none" stroke="#999999" stroke-width="1.3" x1="297.3" y1="186.7" x2="297.3" y2="452.3"/>
	<line fill="none" stroke="#999999" stroke-width="1.3" x1="253" y1="186.7" x2="253" y2="452.3"/>
	<line fill="none" stroke="#999999" stroke-width="1.3" x1="208.8" y1="186.7" x2="208.8" y2="452.3"/>
	<line fill="none" stroke="#999999" stroke-width="1.3" x1="164.5" y1="186.7" x2="164.5" y2="452.3"/>
	<line fill="none" stroke="#999999" stroke-width="1.3" x1="120.3" y1="186.7" x2="120.3" y2="452.3"/>
</g>
<g enable-background="new    ">
	<path d="M81.3,122.9l-2.4-4l-2.3,4h-3.2v-1.2c0.6-0.1,1.2-0.3,1.8-0.3l2.6-3.8l-2.5-3.8c-0.6,0-1.2-0.2-1.8-0.3v-1.2h3.2l2.2,3.9
		l2.3-3.9h3.3v1.2c-0.6,0.1-1.2,0.3-1.8,0.3l-2.4,3.7l2.6,3.9c0.6,0,1.2,0.2,1.8,0.3v1.2H81.3L81.3,122.9z"/>
</g>
<g enable-background="new    ">
	<path d="M15.7,180.7L11.9,191c-1.2,3.2-2.2,4.3-4.6,4.3c-0.4,0-1,0-1.5-0.1l0.1-1.7c0.5,0.1,0.9,0.2,1.4,0.2c1.2,0,1.8-0.6,2.6-2.6
		l0.4-1.2H9.8l-3.3-9.2c-0.5,0-1-0.1-1.4-0.3v-1.2H10v1.2c-0.4,0.1-0.9,0.2-1.4,0.3l1.6,4.6c0.3,1,0.6,1.8,0.8,2.7l0,0
		c0.2-0.7,0.6-1.9,1-3.2l1.4-4.1c-0.5,0-1-0.1-1.4-0.3v-1.2h4.7v1.2C16.8,180.5,16.3,180.6,15.7,180.7z"/>
</g>
<g enable-background="new    ">
	<path d="M79.9,159.5c-2.8,0-5.3-1.7-5.3-6.6c0-4.3,2.6-6.6,5.6-6.6c2.7,0,5.3,1.6,5.3,6.5C85.5,157.1,82.9,159.5,79.9,159.5z
		 M80,147.9c-1.7,0-3.4,1.5-3.4,4.9c0,3.6,1.3,5.1,3.4,5.1c1.7,0,3.4-1.5,3.4-4.9C83.4,149.4,82.1,147.9,80,147.9z"/>
</g>
<g enable-background="new    ">
	<path d="M118.7,159.4v-1.7h3.9v-9.1l-3.7,2.4l-0.7-1.6l4.7-2.9h1.7v11.1h3.3v1.7H118.7z"/>
</g>
<g enable-background="new    ">
	<path d="M161.1,159.4v-1.6l3.1-2.8c2.7-2.3,3.4-3.2,3.4-4.6s-0.8-2.4-2.6-2.4c-1.2,0-2.4,0.6-3.1,1.1l-0.4-1.7
		c1.1-0.7,2.3-1.1,3.9-1.1c2.9,0,4.4,1.6,4.4,3.8c0,1.8-0.9,3.2-3.3,5.2l-2.6,2.2h-0.1c1-0.1,3.3-0.1,6.5-0.1v1.8h-9.2L161.1,159.4
		L161.1,159.4z"/>
</g>
<g enable-background="new    ">
	<path d="M206.9,161.4c-0.9,0-1.9-0.1-2.7-0.3l0.3-1.7c0.7,0.3,1.6,0.4,2.6,0.4c2.3,0,3.7-1.3,3.7-2.9s-1.3-2.6-3.5-2.6
		c-0.7,0-1.3,0-1.9,0.1v-1.6h0.4c3.1,0,4.6-0.9,4.6-2.6c0-1.3-1-2.1-2.6-2.1c-1.2,0-2.2,0.3-3,0.8l-0.3-1.7c1.1-0.5,2.3-0.7,3.7-0.7
		c2.9,0,4.3,1.4,4.3,3.4c0,1.7-1,2.9-2.6,3.3l0,0c1.8,0.2,3.1,1.7,3.1,3.4C212.9,159.4,210.5,161.4,206.9,161.4z"/>
</g>
<g enable-background="new    ">
	<path d="M254.6,157.6v3.6h-1.9v-3.6H246l-0.1-1.6l5.9-9.4h2.7v9.3h2.5v1.7L254.6,157.6L254.6,157.6z M252.6,148.2L252.6,148.2
		l-4.8,7.6c1.3,0,4,0,4.8,0V148.2z"/>
</g>
<g enable-background="new    ">
	<path d="M292.5,161.4c-0.7,0-1.6-0.1-2.4-0.2l0.1-1.7c0.7,0.2,1.7,0.3,2.4,0.3c2.6,0,4-1.5,4-3.2c0-1.8-1.5-2.8-3.8-2.8
		c-0.9,0-1.7,0.1-2.2,0.1v-7.3h7.5v1.8h-5.7v3.8c0.4,0,0.8,0,1,0c3.5,0,5.3,1.8,5.3,4.1C298.8,159.1,296.3,161.4,292.5,161.4z"/>
</g>
<g enable-background="new    ">
	<path d="M337.3,159.5c-3,0-4.8-2.2-4.8-6.1c0-6.2,3-8.7,7.1-8.7c0.4,0,0.9,0,1.3,0.1v1.7c-0.4-0.1-0.9-0.1-1.4-0.1
		c-2.7,0-4.3,1.6-4.9,4.6c-0.1,0.2-0.1,0.6-0.2,1.1l0,0c0.7-1.2,2-1.9,3.4-1.9c2.8,0,4.4,1.8,4.4,4.2
		C342.2,157.6,340.2,159.5,337.3,159.5z M337.3,151.8c-1.8,0-2.8,1.5-2.8,2.8c0,1.8,1,3.3,2.9,3.3c1.7,0,2.7-1.3,2.7-3.2
		C340.2,153,339.1,151.8,337.3,151.8z"/>
</g>
<circle fill="#808080" cx="120.3" cy="275.3" r="6.9"/>
<circle fill="#808080" cx="296.6" cy="275.3" r="6.9"/>
<g enable-background="new    ">
	<path d="M46.5,196.4c-2.8,0-5.3-1.7-5.3-6.6c0-4.3,2.6-6.6,5.6-6.6c2.7,0,5.3,1.6,5.3,6.5C52.2,194.1,49.5,196.4,46.5,196.4z
		 M46.7,184.8c-1.7,0-3.4,1.5-3.4,4.9c0,3.6,1.3,5.1,3.4,5.1c1.7,0,3.4-1.5,3.4-4.9C50.1,186.4,48.7,184.8,46.7,184.8z"/>
</g>
<g enable-background="new    ">
	<path d="M42.5,239.2v-1.7h3.9v-9l-3.7,2.4l-0.7-1.6l4.7-2.9h1.7v11.1h3.3v1.7L42.5,239.2L42.5,239.2z"/>
</g>
<g enable-background="new    ">
	<path d="M42,282.1v-1.6l3.1-2.8c2.7-2.3,3.4-3.2,3.4-4.6c0-1.4-0.8-2.4-2.6-2.4c-1.2,0-2.4,0.6-3.1,1.1l-0.4-1.7
		c1.1-0.7,2.3-1.1,3.9-1.1c2.9,0,4.4,1.6,4.4,3.8c0,1.8-0.9,3.2-3.3,5.2l-2.6,2.2h-0.1c1-0.1,3.3-0.1,6.5-0.1v1.8H42V282.1z"/>
</g>
<g enable-background="new    ">
	<path d="M44.9,326.9c-0.9,0-1.9-0.1-2.7-0.3l0.3-1.7c0.7,0.3,1.6,0.4,2.6,0.4c2.3,0,3.7-1.3,3.7-2.9c0-1.6-1.3-2.6-3.5-2.6
		c-0.7,0-1.3,0-1.9,0.1v-1.6h0.4c3.1,0,4.6-0.9,4.6-2.6c0-1.3-1-2.1-2.6-2.1c-1.2,0-2.2,0.3-3,0.8l-0.3-1.7c1.1-0.5,2.3-0.7,3.7-0.7
		c2.9,0,4.3,1.4,4.3,3.4c0,1.7-1,2.9-2.6,3.3l0,0c1.8,0.2,3.1,1.7,3.1,3.4C51,324.9,48.5,326.9,44.9,326.9z"/>
</g>
<g enable-background="new    ">
	<path d="M49.7,366v3.6h-1.9V366h-6.6l-0.1-1.6L47,355h2.7v9.3h2.5v1.7H49.7z M47.8,356.6L47.8,356.6l-4.8,7.6c1.3,0,4,0,4.8,0
		V356.6z"/>
</g>
<g enable-background="new    ">
	<path d="M44.8,412.6c-0.7,0-1.6-0.1-2.4-0.2l0.1-1.7c0.7,0.2,1.7,0.3,2.4,0.3c2.6,0,4-1.5,4-3.2c0-1.8-1.5-2.8-3.8-2.8
		c-0.9,0-1.7,0.1-2.2,0.1v-7.3h7.5v1.8h-5.7v3.8c0.4,0,0.8,0,1,0c3.5,0,5.3,1.8,5.3,4.1C51.1,410.4,48.5,412.6,44.8,412.6z"/>
</g>
<g enable-background="new    ">
	<path d="M46.7,453.7c-3,0-4.8-2.2-4.8-6.1c0-6.2,3-8.7,7.1-8.7c0.4,0,0.9,0,1.3,0.1v1.7c-0.4-0.1-0.9-0.1-1.4-0.1
		c-2.7,0-4.3,1.6-4.9,4.6c-0.1,0.2-0.1,0.6-0.2,1.1l0,0c0.7-1.2,2-1.9,3.4-1.9c2.8,0,4.4,1.8,4.4,4.2
		C51.6,451.7,49.6,453.7,46.7,453.7z M46.8,446c-1.8,0-2.8,1.5-2.8,2.8c0,1.8,1,3.3,2.9,3.3c1.7,0,2.7-1.3,2.7-3.2
		C49.6,447.2,48.6,446,46.8,446z"/>
</g>
<line fill="none" stroke="#000000" stroke-width="1.3" x1="77.1" y1="186.7" x2="68.6" y2="186.7"/>
<line fill="none" stroke="#000000" stroke-width="1.3" x1="77.1" y1="231.1" x2="68.6" y2="231.1"/>
<line fill="none" stroke="#000000" stroke-width="1.3" x1="77.1" y1="275.3" x2="68.6" y2="275.3"/>
<line fill="none" stroke="#000000" stroke-width="1.3" x1="77.1" y1="319.5" x2="68.6" y2="319.5"/>
<line fill="none" stroke="#000000" stroke-width="1.3" x1="77.1" y1="363.9" x2="68.6" y2="363.9"/>
<line fill="none" stroke="#000000" stroke-width="1.3" x1="77.1" y1="408.6" x2="68.6" y2="408.6"/>
<line fill="none" stroke="#000000" stroke-width="1.3" x1="77.1" y1="451.9" x2="68.6" y2="451.9"/>
<line fill="none" stroke="#000000" stroke-width="1.3" x1="341.3" y1="186.6" x2="341.3" y2="178.2"/>
<line fill="none" stroke="#000000" stroke-width="1.3" x1="296.7" y1="186.6" x2="296.7" y2="178.2"/>
<line fill="none" stroke="#000000" stroke-width="1.3" x1="252.5" y1="186.6" x2="252.5" y2="178.2"/>
<line fill="none" stroke="#000000" stroke-width="1.3" x1="208.4" y1="186.6" x2="208.4" y2="178.2"/>
<line fill="none" stroke="#000000" stroke-width="1.3" x1="164.1" y1="186.6" x2="164.1" y2="178.2"/>
<line fill="none" stroke="#000000" stroke-width="1.3" x1="119.2" y1="186.6" x2="119.2" y2="178.2"/>
<line fill="none" stroke="#000000" stroke-width="1.3" x1="76.4" y1="186.6" x2="76.4" y2="178.2"/>
<polyline fill="#FFFFFF" stroke="#000000" stroke-width="1.3" points="16.3,267.8 10.9,273 5.7,267.8 "/>
<line fill="none" stroke="#000000" stroke-width="1.3" x1="10.9" y1="273" x2="10.9" y2="210.9"/>
<polyline fill="#FFFFFF" stroke="#000000" stroke-width="1.3" points="157.2,111.1 162.5,116.3 157.2,121.6 "/>
<line fill="none" stroke="#000000" stroke-width="1.3" x1="163.6" y1="116.3" x2="101.4" y2="116.3"/>
<g enable-background="new    ">
	<path d="M49.5,22.7v-1.2c0.5-0.1,1.2-0.2,1.8-0.3V8.4c-0.5-0.1-1.2-0.2-1.8-0.2V7c1.1-0.1,2.5-0.2,3.8-0.1v14.3
		c0.6,0,1.3,0.2,1.8,0.3v1.2L49.5,22.7L49.5,22.7z"/>
	<path d="M56.1,22.7v-1.2c0.6-0.1,1.2-0.2,1.9-0.3v-7.7c-0.5-0.1-1.2-0.2-1.9-0.2V12c1.1-0.1,2.5-0.2,3.8-0.2V21
		c0.6,0,1.3,0.2,1.8,0.3v1.2h-5.6V22.7z M59,9.8c-0.7,0-1.3-0.5-1.3-1.2s0.6-1.3,1.3-1.3c0.7,0,1.3,0.6,1.3,1.3
		C60.2,9.3,59.7,9.8,59,9.8z"/>
	<path d="M71.3,22.7v-6.8c0-1.5-0.4-2.4-1.8-2.4c-1.8,0-3,1.8-3,4.1v3.7c0.6,0,1.2,0.1,1.7,0.3v1.2h-5.5v-1.2
		c0.6-0.1,1.2-0.2,1.9-0.3v-7.7c-0.5-0.1-1.2-0.2-1.9-0.2v-1.2c1.1-0.1,2.5-0.2,3.7-0.2c0,0.6,0,1.6-0.1,2.2l0,0
		c0.6-1.5,1.9-2.4,3.8-2.4c2.4,0,3.2,1.5,3.2,3.4v6c0.6,0,1.3,0.2,1.8,0.3v1.2L71.3,22.7L71.3,22.7z"/>
	<path d="M85.3,17.3h-6.9c-0.1,2.8,1,4,3.4,4c1,0,2.1-0.2,3-0.6l0.3,1.5c-1.1,0.4-2.4,0.7-3.7,0.7c-3.2,0-5-1.7-5-5.5
		c0-3.2,1.8-5.6,4.8-5.6s4.2,2,4.2,4.4C85.3,16.4,85.3,16.8,85.3,17.3z M81,13.2c-1.4,0-2.4,1-2.6,2.7h5
		C83.4,14.3,82.5,13.2,81,13.2z"/>
	<path d="M95.7,27.2c-2.5-4-3.1-7.4-3.1-10.5S93.3,9.8,95.7,6l1.4,0.7c-1.7,3-2.7,6.4-2.7,9.9c0,3.7,0.9,6.9,2.7,9.9L95.7,27.2z"/>
	<path d="M110.3,22.7l-2.4-4l-2.3,4h-3.2v-1.2c0.6-0.1,1.2-0.3,1.8-0.3l2.6-3.8l-2.5-3.8c-0.6,0-1.2-0.2-1.8-0.3V12h3.2l2.2,3.9
		l2.3-3.9h3.1v1.2c-0.6,0.1-1.2,0.3-1.8,0.3l-2.4,3.7l2.6,3.9c0.6,0,1.2,0.2,1.8,0.3v1.2H110.3L110.3,22.7z"/>
	<path d="M116,22.7V21h3.9v-9l-3.7,2.4l-0.7-1.6l4.7-2.9h1.6V21h3.3v1.7L116,22.7L116,22.7z"/>
	<path d="M132.8,26l-0.8-0.7c1.4-1.5,1.4-2.5,0.9-3.1c-0.6-0.7-0.1-1.9,0.9-1.9C135.4,20.3,136.1,23,132.8,26z"/>
	<path d="M150.5,13.4l-3.8,10.3c-1.2,3.2-2.2,4.3-4.6,4.3c-0.4,0-1,0-1.5-0.1l0.1-1.7c0.5,0.1,0.9,0.2,1.4,0.2
		c1.2,0,1.8-0.6,2.6-2.6l0.4-1.2h-0.5l-3.3-9.2c-0.5,0-1-0.1-1.4-0.3v-1.2h4.9v1.2c-0.4,0.1-0.9,0.2-1.4,0.3l1.6,4.6
		c0.3,1,0.6,1.8,0.8,2.7l0,0c0.2-0.7,0.6-1.9,1-3.2l1.4-4.1c-0.5,0-1-0.1-1.4-0.3v-1.2h4.7v1.2C151.4,13.2,151,13.3,150.5,13.4z"/>
	<path d="M154.2,22.7V21h3.9v-9l-3.7,2.4l-0.7-1.6l4.7-2.9h1.6V21h3.3v1.7L154.2,22.7L154.2,22.7z"/>
	<path d="M171,26l-0.8-0.7c1.4-1.5,1.4-2.5,0.9-3.1c-0.6-0.7-0.1-1.9,0.9-1.9C173.6,20.3,174.3,23,171,26z"/>
	<path d="M186.3,22.7l-2.4-4l-2.3,4h-3.2v-1.2c0.6-0.1,1.2-0.3,1.8-0.3l2.6-3.8l-2.5-3.8c-0.6,0-1.2-0.2-1.8-0.3V12h3.2l2.2,3.9
		l2.3-3.9h3.1v1.2c-0.6,0.1-1.2,0.3-1.8,0.3l-2.4,3.7l2.6,3.9c0.6,0,1.2,0.2,1.8,0.3v1.2H186.3L186.3,22.7z"/>
	<path d="M191.6,22.7v-1.6l3.1-2.8c2.7-2.3,3.4-3.2,3.4-4.6c0-1.4-0.8-2.4-2.6-2.4c-1.2,0-2.4,0.6-3.1,1.1l-0.4-1.7
		c1.1-0.7,2.3-1.1,3.9-1.1c2.9,0,4.4,1.6,4.4,3.8c0,1.8-0.9,3.2-3.3,5.2l-2.6,2.2h-0.1c1-0.1,3.3-0.1,6.5-0.1v1.8h-9.2V22.7z"/>
	<path d="M208.8,26l-0.8-0.7c1.4-1.5,1.4-2.5,0.9-3.1c-0.6-0.7-0.1-1.9,0.9-1.9C211.4,20.3,212.1,23,208.8,26z"/>
	<path d="M226.5,13.4l-3.8,10.3c-1.2,3.2-2.2,4.3-4.6,4.3c-0.4,0-1,0-1.5-0.1l0.1-1.7c0.5,0.1,0.9,0.2,1.4,0.2
		c1.2,0,1.8-0.6,2.6-2.6l0.4-1.2h-0.5l-3.3-9.2c-0.5,0-1-0.1-1.4-0.3v-1.2h4.9v1.2c-0.4,0.1-0.9,0.2-1.4,0.3l1.6,4.6
		c0.3,1,0.6,1.8,0.8,2.7l0,0c0.2-0.7,0.6-1.9,1-3.2l1.4-4.1c-0.5,0-1-0.1-1.4-0.3v-1.2h4.7v1.2C227.5,13.2,227,13.3,226.5,13.4z"/>
	<path d="M229.8,22.7v-1.6l3.1-2.8c2.7-2.3,3.4-3.2,3.4-4.6c0-1.4-0.8-2.4-2.6-2.4c-1.2,0-2.4,0.6-3.1,1.1l-0.4-1.7
		c1.1-0.7,2.3-1.1,3.9-1.1c2.9,0,4.4,1.6,4.4,3.8c0,1.8-0.9,3.2-3.3,5.2l-2.6,2.2h-0.1c1-0.1,3.3-0.1,6.5-0.1v1.8h-9.2L229.8,22.7
		L229.8,22.7z"/>
	<path d="M247.6,27.2l-1.4-0.7c1.8-3,2.7-6.4,2.7-9.8c0-3.7-0.9-6.9-2.7-10l1.5-0.7c2.5,4,3.1,7.4,3.1,10.5
		C250.7,19.6,250,23.3,247.6,27.2z"/>
	<path d="M259.1,26l-0.8-0.7c1.4-1.5,1.4-2.5,0.9-3.1c-0.6-0.7-0.1-1.9,0.9-1.9C261.7,20.3,262.4,23,259.1,26z M260.1,16.6
		c-0.7,0-1.3-0.6-1.3-1.3c0-0.7,0.6-1.3,1.3-1.3s1.3,0.6,1.3,1.3C261.5,16,260.9,16.6,260.1,16.6z"/>
</g>
<text transform="matrix(1 0 0 1 49.1954 68.3887)" fill="#999999" font-family="'TheSansMonoCd-W5Regular'" font-size="16.673" letter-spacing="36"> </text>
<g enable-background="new    ">
	<path fill="#999999" d="M107.6,64.5c-0.5,0-0.9,0-1.2-0.1v2.8c0.5,0,1,0.1,1.4,0.2v0.9h-4.4v-0.9c0.4-0.1,0.9-0.2,1.4-0.2v-9
		c-0.5,0-1-0.1-1.4-0.2V57h1.4c0.5,0,1.9-0.1,2.9-0.1c3,0,4.3,1.6,4.3,3.5C112.1,62.9,110.3,64.5,107.6,64.5z M107.6,58.4
		c-0.4,0-0.9,0-1.2,0v4.8c0.3,0,0.8,0.1,1.3,0.1c1.9,0,2.8-1.1,2.8-2.5C110.5,59.6,109.8,58.4,107.6,58.4z"/>
	<path fill="#999999" d="M116.9,68.5c-2.3,0-3.7-1.3-3.7-4.2c0-2.5,1.5-4.4,4-4.4c2.1,0,3.7,1.1,3.7,4.2
		C121,66.6,119.4,68.5,116.9,68.5z M117,61.1c-1.2,0-2.3,0.9-2.3,3c0,1.9,0.8,3,2.3,3c1.2,0,2.3-1,2.3-3
		C119.3,62.3,118.6,61.1,117,61.1z"/>
	<path fill="#999999" d="M122.2,68.4v-0.9c0.4-0.1,0.9-0.2,1.4-0.2v-6c-0.4-0.1-1-0.1-1.4-0.2v-0.9c0.8-0.1,2-0.2,2.9-0.1v7.2
		c0.5,0,1,0.1,1.4,0.2v0.9L122.2,68.4L122.2,68.4L122.2,68.4z M124.3,58.5c-0.5,0-1-0.4-1-1s0.4-1,1-1c0.5,0,1,0.4,1,1
		C125.3,58.1,124.8,58.5,124.3,58.5z"/>
	<path fill="#999999" d="M134,68.4v-5.3c0-1.2-0.3-1.9-1.4-1.9c-1.4,0-2.4,1.4-2.4,3.2v2.8c0.4,0,0.9,0.1,1.3,0.2v0.9h-4.3v-0.9
		c0.4-0.1,0.9-0.2,1.4-0.2v-6c-0.4-0.1-1-0.1-1.4-0.2v-0.9c0.8-0.1,2-0.2,2.9-0.1c0,0.5,0,1.2-0.1,1.7l0,0c0.5-1.1,1.5-1.9,2.9-1.9
		c1.9,0,2.5,1.2,2.5,2.6V67c0.5,0,1,0.1,1.4,0.2v0.9H134L134,68.4L134,68.4z"/>
	<path fill="#999999" d="M140.9,68.5c-1.7,0-2.2-0.7-2.2-2.5v-4.8H137v-1.2h1.7v-2.7l1.5-0.4v3.1h2.3v1.2h-2.3v4.2
		c0,1.4,0.3,1.7,1.2,1.7c0.4,0,0.7,0,1-0.1l0.2,1.2C142.1,68.5,141.5,68.5,140.9,68.5z"/>
	<path fill="#999999" d="M154.1,68.4v-0.9c0.4-0.1,0.9-0.2,1.3-0.2l-0.6-1.8h-4.7l-0.6,1.8c0.4,0,0.9,0.1,1.3,0.2v0.9h-3.9v-0.9
		c0.3-0.1,0.7-0.2,1-0.2l3.7-10.1h1.9l3.7,10.1c0.3,0,0.7,0.1,1,0.2v0.9H154.1z M153,60.3c-0.2-0.6-0.4-1.1-0.5-1.6l0,0
		c-0.1,0.5-0.3,1-0.5,1.6l-1.4,4h3.9L153,60.3z"/>
	<path fill="#999999" d="M177.5,64.5c-0.5,0-0.9,0-1.2-0.1v2.8c0.5,0,1,0.1,1.4,0.2v0.9h-4.4v-0.9c0.4-0.1,0.9-0.2,1.4-0.2v-9
		c-0.5,0-1-0.1-1.4-0.2V57h1.4c0.5,0,1.9-0.1,2.9-0.1c3,0,4.3,1.6,4.3,3.5C182,62.9,180.2,64.5,177.5,64.5z M177.5,58.4
		c-0.4,0-0.9,0-1.2,0v4.8c0.3,0,0.8,0.1,1.3,0.1c1.9,0,2.8-1.1,2.8-2.5C180.4,59.6,179.7,58.4,177.5,58.4z"/>
	<path fill="#999999" d="M186.8,68.5c-2.3,0-3.7-1.3-3.7-4.2c0-2.5,1.5-4.4,4-4.4c2.1,0,3.7,1.1,3.7,4.2
		C190.8,66.6,189.3,68.5,186.8,68.5z M186.9,61.1c-1.2,0-2.3,0.9-2.3,3c0,1.9,0.8,3,2.3,3c1.2,0,2.3-1,2.3-3
		C189.2,62.3,188.4,61.1,186.9,61.1z"/>
	<path fill="#999999" d="M191.9,68.4v-0.9c0.4-0.1,0.9-0.2,1.4-0.2v-6c-0.4-0.1-1-0.1-1.4-0.2v-0.9c0.8-0.1,2-0.2,2.9-0.1v7.2
		c0.5,0,1,0.1,1.4,0.2v0.9L191.9,68.4L191.9,68.4L191.9,68.4z M194.2,58.5c-0.5,0-1-0.4-1-1s0.4-1,1-1c0.5,0,1,0.4,1,1
		C195.1,58.1,194.7,58.5,194.2,58.5z"/>
	<path fill="#999999" d="M203.9,68.4v-5.3c0-1.2-0.3-1.9-1.4-1.9c-1.4,0-2.4,1.4-2.4,3.2v2.8c0.4,0,0.9,0.1,1.3,0.2v0.9H197v-0.9
		c0.4-0.1,0.9-0.2,1.4-0.2v-6c-0.4-0.1-1-0.1-1.4-0.2v-0.9c0.8-0.1,2-0.2,2.9-0.1c0,0.5,0,1.2-0.1,1.7l0,0c0.5-1.1,1.5-1.9,2.9-1.9
		c1.9,0,2.5,1.2,2.5,2.6V67c0.5,0,1,0.1,1.4,0.2v0.9h-2.8L203.9,68.4L203.9,68.4z"/>
	<path fill="#999999" d="M210.8,68.5c-1.7,0-2.2-0.7-2.2-2.5v-4.8h-1.7v-1.2h1.7v-2.7l1.5-0.4v3.1h2.3v1.2h-2.3v4.2
		c0,1.4,0.3,1.7,1.2,1.7c0.4,0,0.7,0,1-0.1l0.2,1.2C212,68.5,211.4,68.5,210.8,68.5z"/>
	<path fill="#999999" d="M221.5,68.4c-0.6,0-1.7,0-2.9,0h-1.5v-0.9c0.4-0.1,0.9-0.2,1.4-0.2v-9c-0.5,0-1-0.1-1.4-0.2v-0.9h1.4
		c0.8,0,1.9,0,3.2,0c2.4,0,3.6,1,3.6,2.7c0,1.2-0.6,2.2-1.8,2.6l0,0c1.6,0.3,2.3,1.4,2.3,2.6C225.8,66.4,225,68.4,221.5,68.4z
		 M221.5,58.4c-0.5,0-0.9,0-1.4,0V62c0.3,0,0.6,0,1,0c1.8,0,2.6-0.7,2.6-2C223.8,59.1,223.3,58.4,221.5,58.4z M221.2,63.2
		c-0.2,0-0.8,0-1.1,0v3.9c0.3,0,0.8,0.1,1.5,0.1c1.8,0,2.6-0.9,2.6-2.1C224.2,63.6,222.9,63.2,221.2,63.2z"/>
</g>
<g enable-background="new    ">
	<path d="M98.5,262.5v-1.2c0.5-0.1,1.1-0.2,1.7-0.3l-0.8-2.4h-6l-0.8,2.4c0.6,0,1.2,0.1,1.7,0.3v1.2h-5v-1.2
		c0.4-0.1,0.9-0.2,1.3-0.2l4.7-13.1h2.4l4.8,13.1c0.4,0,0.9,0.1,1.3,0.2v1.2H98.5z M97,252c-0.3-0.7-0.5-1.4-0.7-2.1l0,0
		c-0.2,0.7-0.4,1.3-0.6,2.1l-1.9,5.1h5L97,252z"/>
	<path d="M117.2,267.3c-3.6-3.3-5.3-6.6-5.3-10.8c0-4.4,2.1-8,5.3-10.9l1.1,1.1c-2.9,2.8-4.5,6.2-4.5,9.6c0,3.6,1.5,6.8,4.5,9.7
		L117.2,267.3z"/>
	<path d="M123.6,262.5v-1.7h3.9v-9l-3.7,2.4l-0.7-1.6l4.7-2.9h1.6v11.1h3.3v1.7L123.6,262.5L123.6,262.5z"/>
	<path d="M137,265.3c2.2-0.6,2.9-1.6,2.9-2.4c0-1.3-1.1-1.4-1.1-2.5c0-0.9,0.6-1.6,1.5-1.6c1.3,0,2,1.3,2,2.7c0,2.6-1.8,4.2-4.9,5
		L137,265.3z"/>
	<path d="M148.8,262.5v-1.6l3.1-2.8c2.7-2.3,3.4-3.2,3.4-4.6c0-1.4-0.8-2.4-2.6-2.4c-1.2,0-2.4,0.6-3.1,1.1l-0.4-1.7
		c1.1-0.7,2.3-1.1,3.9-1.1c2.9,0,4.4,1.6,4.4,3.8c0,1.8-0.9,3.2-3.3,5.2l-2.6,2.2h-0.1c1-0.1,3.3-0.1,6.5-0.1v1.8h-9.2L148.8,262.5
		L148.8,262.5z"/>
	<path d="M164.2,245.6c3.6,3.3,5.3,6.6,5.3,10.8c0,4.4-2.1,8-5.3,10.9l-1.1-1.1c2.9-2.8,4.5-6.2,4.5-9.6c0-3.6-1.5-6.9-4.5-9.7
		L164.2,245.6z"/>
</g>
<g enable-background="new    ">
	<path d="M267.4,261.2c-0.8,0-2.2-0.1-3.7-0.1h-1.9v-1.2c0.6-0.1,1.2-0.2,1.9-0.3V248c-0.6,0-1.3-0.2-1.9-0.3v-1.2h1.8
		c1,0,2.4-0.1,4.1-0.1c3.1,0,4.6,1.3,4.6,3.5c0,1.5-0.8,2.8-2.4,3.4l0,0c2,0.3,2.9,1.8,2.9,3.3C272.9,258.4,272,261.2,267.4,261.2z
		 M267.4,248.1c-0.7,0-1.2,0-1.8,0v4.7c0.4,0,0.8,0,1.3,0c2.4,0,3.4-0.9,3.4-2.5C270.3,249,269.7,248.1,267.4,248.1z M267,254.3
		c-0.3,0-1,0-1.4,0v5c0.4,0.1,1,0.1,1.9,0.1c2.4,0,3.4-1.2,3.4-2.7C270.9,254.9,269.2,254.3,267,254.3z"/>
	<path d="M287.5,265.9c-3.6-3.3-5.3-6.6-5.3-10.8c0-4.4,2.1-8,5.3-10.9l1.1,1.1c-2.9,2.8-4.5,6.2-4.5,9.6c0,3.6,1.5,6.8,4.5,9.7
		L287.5,265.9z"/>
	<path d="M296.1,263.1c-0.7,0-1.6-0.1-2.4-0.2l0.1-1.7c0.7,0.2,1.7,0.3,2.4,0.3c2.6,0,4-1.5,4-3.2c0-1.8-1.5-2.8-3.8-2.8
		c-0.9,0-1.7,0.1-2.2,0.1v-7.3h7.5v1.8H296v3.8c0.4,0,0.8,0,1,0c3.5,0,5.3,1.8,5.3,4.1C302.4,260.8,299.9,263.1,296.1,263.1z"/>
	<path d="M307.3,263.8c2.2-0.6,2.9-1.6,2.9-2.4c0-1.3-1.1-1.4-1.1-2.5c0-0.9,0.6-1.6,1.5-1.6c1.3,0,2,1.3,2,2.7c0,2.6-1.8,4.2-4.9,5
		L307.3,263.8z"/>
	<path d="M319.1,261v-1.6l3.1-2.8c2.7-2.3,3.4-3.2,3.4-4.6c0-1.4-0.8-2.4-2.6-2.4c-1.2,0-2.4,0.6-3.1,1.1l-0.4-1.7
		c1.1-0.7,2.3-1.1,3.9-1.1c2.9,0,4.4,1.6,4.4,3.8c0,1.8-0.9,3.2-3.3,5.2l-2.6,2.2h-0.1c1-0.1,3.3-0.1,6.5-0.1v1.8H319L319.1,261
		L319.1,261z"/>
	<path d="M334.4,244.1c3.6,3.3,5.3,6.6,5.3,10.8c0,4.4-2.1,8-5.3,10.9l-1.1-1.1c2.9-2.8,4.5-6.2,4.5-9.6c0-3.6-1.5-6.9-4.5-9.7
		L334.4,244.1z"/>
</g>
<line fill="none" stroke="#999999" stroke-width="5" x1="102.8" y1="38.3" x2="155.8" y2="38.3"/>
<line fill="none" stroke="#999999" stroke-width="5" x1="168.3" y1="38.3" x2="228.2" y2="38.3"/>
<line fill="none" stroke="#000000" stroke-width="2" x1="118.9" y1="276" x2="297.3" y2="276"/>
<g enable-background="new    ">
	<path fill="#808080" d="M78.4,510.6v-1.2c0.6-0.1,1.2-0.2,1.9-0.3v-11.6c-0.6,0-1.3-0.2-1.9-0.3v-1.2h9.3v3.3h-1.4
		c-0.1-0.7-0.2-1.3-0.3-1.8h-3.9v4.7h3.1c0.1-0.5,0.2-1,0.3-1.5h1.2v4.4h-1.2c-0.1-0.4-0.2-1-0.3-1.5h-3.1v5.1H86
		c0.1-0.6,0.2-1.2,0.3-1.8h1.4v3.4h-9.3V510.6z"/>
	<path fill="#808080" d="M97.3,510.6l-2.4-4l-2.3,4h-3.2v-1.2c0.6-0.1,1.2-0.3,1.8-0.3l2.6-3.8l-2.5-3.8c-0.6,0-1.2-0.2-1.8-0.3
		v-1.2h3.2l2.2,3.9l2.3-3.9h3.1v1.2c-0.6,0.1-1.2,0.3-1.8,0.3l-2.4,3.7l2.6,3.9c0.6,0,1.2,0.2,1.8,0.3v1.2H97.3L97.3,510.6z"/>
	<path fill="#808080" d="M108.2,510.6c0-0.7,0-1.5,0.1-2.1l0,0c-0.5,1.3-1.9,2.3-3.6,2.3s-3-1.1-3-2.8c0-2.3,2.4-3.6,6.4-3.6v-0.9
		c0-1.5-0.5-2.3-2.2-2.3c-0.6,0-1.4,0.1-2,0.3c0,0.5-0.1,1.1-0.3,1.7h-1.2v-2.9c1.1-0.3,2.4-0.6,3.6-0.6c3.1,0,4,1.4,4,3.5v5.8
		c0.5,0.1,1.2,0.2,1.8,0.2v1.2C110.9,510.5,109.4,510.6,108.2,510.6z M108.1,505.7c-3.3,0-4.5,0.8-4.5,2c0,0.9,0.6,1.6,1.6,1.6
		c1.7,0,2.9-1.7,2.9-3.4L108.1,505.7L108.1,505.7z"/>
	<path fill="#808080" d="M128,510.6v-6.8c0-1.5-0.3-2.4-1.7-2.4c-1.5,0-3,1.6-3,4.2v3.6c0.6,0,1.2,0.1,1.7,0.3v1.2h-3.6v-6.8
		c0-1.3-0.3-2.4-1.7-2.4c-1.6,0-3,1.8-3,4.2v3.6c0.6,0,1.2,0.1,1.7,0.3v1.2h-5.5v-1.2c0.6-0.1,1.2-0.2,1.9-0.3v-7.8
		c-0.5-0.1-1.2-0.2-1.9-0.2V500c1.1-0.1,2.6-0.2,3.7-0.2c0,0.6-0.1,1.6-0.2,2.2l0,0c0.6-1.5,2-2.5,3.7-2.5c2.2,0,2.8,1.5,3,2.4
		c0.4-1,1.6-2.4,3.6-2.4s3.1,1.1,3.1,3.5v5.9c0.6,0,1.3,0.2,1.8,0.3v1.2H128V510.6z"/>
	<path fill="#808080" d="M137.9,510.7c-0.7,0-1.2,0-1.8-0.1v3.8c0.6,0,1.3,0.2,1.9,0.3v1.2h-5.6v-1.2c0.6-0.1,1.1-0.2,1.8-0.3v-13.1
		c-0.5-0.1-1.2-0.2-1.8-0.2v-1.2c1-0.1,2.5-0.2,3.7-0.2c0,0.6-0.1,1.6-0.2,2.2l0,0c0.6-1.5,1.9-2.4,3.5-2.4c2.5,0,3.9,1.8,3.9,5
		C143.4,508.4,141.3,510.7,137.9,510.7z M139,501.2c-1.9,0-2.9,2.2-2.9,4.1v3.5c0.6,0.2,1.2,0.3,1.9,0.3c2,0,3.4-1.2,3.4-4.3
		C141.3,502.5,140.6,501.2,139,501.2z"/>
	<path fill="#808080" d="M144.7,510.6v-1.2c0.5-0.1,1.2-0.2,1.8-0.3v-12.6c-0.5-0.1-1.2-0.2-1.8-0.2V495c1.1-0.1,2.5-0.2,3.8-0.1
		v14.3c0.6,0,1.3,0.2,1.8,0.3v1.2h-5.6V510.6z"/>
	<path fill="#808080" d="M160.3,505.2h-6.9c-0.1,2.8,1,4,3.4,4c1,0,2.1-0.2,3-0.6l0.3,1.5c-1.1,0.4-2.4,0.7-3.7,0.7
		c-3.2,0-5-1.7-5-5.5c0-3.2,1.8-5.6,4.8-5.6s4.2,2,4.2,4.4C160.3,504.3,160.3,504.7,160.3,505.2z M156,501.1c-1.4,0-2.4,1-2.6,2.7h5
		C158.4,502.2,157.5,501.1,156,501.1z"/>
	<path fill="#808080" d="M164.8,504.5c-0.7,0-1.3-0.6-1.3-1.3s0.6-1.3,1.3-1.3c0.7,0,1.3,0.6,1.3,1.3S165.5,504.5,164.8,504.5z
		 M164.8,510.7c-0.7,0-1.3-0.6-1.3-1.3c0-0.7,0.6-1.3,1.3-1.3c0.7,0,1.3,0.6,1.3,1.3C166.1,510.1,165.5,510.7,164.8,510.7z"/>
</g>
<g enable-background="new    ">
	<path d="M177.6,510.6v-1.2c0.5-0.1,1.2-0.2,1.8-0.3v-12.6c-0.5-0.1-1.2-0.2-1.8-0.2V495c1.1-0.1,2.5-0.2,3.8-0.1v14.3
		c0.6,0,1.3,0.2,1.8,0.3v1.2h-5.6V510.6z"/>
	<path d="M184.2,510.6v-1.2c0.6-0.1,1.2-0.2,1.9-0.3v-7.6c-0.5-0.1-1.2-0.2-1.9-0.2V500c1.1-0.1,2.5-0.2,3.8-0.2v9.2
		c0.6,0,1.3,0.2,1.8,0.3v1.2L184.2,510.6L184.2,510.6z M187,497.7c-0.7,0-1.3-0.5-1.3-1.2s0.6-1.3,1.3-1.3c0.7,0,1.3,0.6,1.3,1.3
		S187.7,497.7,187,497.7z"/>
	<path d="M199.5,510.6v-6.8c0-1.5-0.4-2.4-1.8-2.4c-1.8,0-3,1.8-3,4.1v3.7c0.6,0,1.2,0.1,1.7,0.3v1.2h-5.5v-1.2
		c0.6-0.1,1.2-0.2,1.9-0.3v-7.7c-0.5-0.1-1.2-0.2-1.9-0.2V500c1.1-0.1,2.5-0.2,3.7-0.2c0,0.6,0,1.6-0.1,2.2l0,0
		c0.6-1.5,1.9-2.4,3.8-2.4c2.4,0,3.2,1.5,3.2,3.4v6c0.6,0,1.3,0.2,1.8,0.3v1.2L199.5,510.6L199.5,510.6L199.5,510.6z"/>
	<path d="M213.3,505.2h-6.9c-0.1,2.8,1,4,3.4,4c1,0,2.1-0.2,3-0.6l0.3,1.5c-1.1,0.4-2.4,0.7-3.7,0.7c-3.2,0-5-1.7-5-5.5
		c0-3.2,1.8-5.6,4.8-5.6c3,0,4.2,2,4.2,4.4C213.4,504.3,213.4,504.7,213.3,505.2z M209.1,501.1c-1.4,0-2.4,1-2.6,2.7h5
		C211.5,502.2,210.5,501.1,209.1,501.1z"/>
	<path d="M227.8,515.4c-3.6-3.3-5.3-6.6-5.3-10.8c0-4.4,2.1-8,5.3-10.9l1.1,1.1c-2.9,2.8-4.5,6.2-4.5,9.6c0,3.6,1.5,6.8,4.5,9.7
		L227.8,515.4z"/>
	<path d="M234.1,510.6v-1.7h3.9v-9.1l-3.7,2.4l-0.7-1.6l4.7-2.9h1.6v11.1h3.3v1.7H234.1z"/>
	<path d="M247.6,513.4c2.2-0.6,2.9-1.6,2.9-2.4c0-1.3-1.1-1.4-1.1-2.5c0-0.9,0.6-1.6,1.5-1.6c1.3,0,2,1.3,2,2.7c0,2.6-1.8,4.2-4.9,5
		L247.6,513.4z"/>
	<path d="M259.4,510.6V509l3.1-2.8c2.7-2.3,3.4-3.2,3.4-4.6c0-1.4-0.8-2.4-2.6-2.4c-1.2,0-2.4,0.6-3.1,1.1l-0.4-1.7
		c1.1-0.7,2.3-1.1,3.9-1.1c2.9,0,4.4,1.6,4.4,3.8c0,1.8-0.9,3.2-3.3,5.2l-2.6,2.2h-0.1c1-0.1,3.3-0.1,6.5-0.1v1.8h-9.2L259.4,510.6
		L259.4,510.6z"/>
	<path d="M273.4,513.4c2.2-0.6,2.9-1.6,2.9-2.4c0-1.3-1.1-1.4-1.1-2.5c0-0.9,0.6-1.6,1.5-1.6c1.3,0,2,1.3,2,2.7c0,2.6-1.8,4.2-4.9,5
		L273.4,513.4z"/>
	<path d="M287.9,512.5c-0.7,0-1.6-0.1-2.4-0.2l0.1-1.7c0.7,0.2,1.7,0.3,2.4,0.3c2.6,0,4-1.5,4-3.2c0-1.8-1.5-2.8-3.8-2.8
		c-0.9,0-1.7,0.1-2.2,0.1v-7.3h7.5v1.8h-5.7v3.8c0.4,0,0.8,0,1,0c3.5,0,5.3,1.8,5.3,4.1C294.1,510.2,291.7,512.5,287.9,512.5z"/>
	<path d="M299.1,513.4c2.2-0.6,2.9-1.6,2.9-2.4c0-1.3-1.1-1.4-1.1-2.5c0-0.9,0.6-1.6,1.5-1.6c1.3,0,2,1.3,2,2.7c0,2.6-1.8,4.2-4.9,5
		L299.1,513.4z"/>
	<path d="M310.8,510.6V509l3.1-2.8c2.7-2.3,3.4-3.2,3.4-4.6c0-1.4-0.8-2.4-2.6-2.4c-1.2,0-2.4,0.6-3.1,1.1l-0.4-1.7
		c1.1-0.7,2.3-1.1,3.9-1.1c2.9,0,4.4,1.6,4.4,3.8c0,1.8-0.9,3.2-3.3,5.2l-2.6,2.2h-0.1c1-0.1,3.3-0.1,6.5-0.1v1.8h-9.2L310.8,510.6
		L310.8,510.6z"/>
	<path d="M326.2,493.6c3.6,3.3,5.3,6.6,5.3,10.8c0,4.4-2.1,8-5.3,10.9l-1.1-1.1c2.9-2.8,4.5-6.2,4.5-9.6c0-3.6-1.5-6.9-4.5-9.7
		L326.2,493.6z"/>
	<path d="M339.4,513.9l-0.8-0.7c1.4-1.5,1.4-2.5,0.9-3.1c-0.6-0.7-0.1-1.9,0.9-1.9C342,508.2,342.7,510.7,339.4,513.9z M340.4,504.5
		c-0.7,0-1.3-0.6-1.3-1.3s0.6-1.3,1.3-1.3c0.7,0,1.3,0.6,1.3,1.3S341.2,504.5,340.4,504.5z"/>
</g>
</svg>
